<?xml version="1.0" encoding="utf-8"?>
<!-- Generator: Adobe Illustrator 16.0.0, SVG Export Plug-In . SVG Version: 6.00 Build 0)  -->
<!DOCTYPE svg PUBLIC "-//W3C//DTD SVG 1.1//EN" "http://www.w3.org/Graphics/SVG/1.1/DTD/svg11.dtd">
<svg version="1.1" id="Layer_1_2_" xmlns="http://www.w3.org/2000/svg" xmlns:xlink="http://www.w3.org/1999/xlink" x="0px" y="0px"
	 width="107px" height="107px" viewBox="0 0 107 107" enable-background="new 0 0 107 107" xml:space="preserve">
<g id="Ellipse">
	<g>
		<circle fill-rule="evenodd" clip-rule="evenodd" fill="#FEFFEB" cx="53.5" cy="53.5" r="53.5"/>
	</g>
</g>
<g id="Path">
	<g>
		<path fill-rule="evenodd" clip-rule="evenodd" fill="#181818" d="M67.11,45.961c-2.218-1.271-4.436-1.747-6.653-1.747
			c-6.02,0-8.237,3.653-15.841,3.653c-0.476,0-6.495-0.794-6.812-0.794c-0.792,0-1.901,0.158-2.059,1.588v9.688
			c0,2.224,2.218,7.465,4.594,8.895h23.444c1.109,0,3.645-4.765,3.645-4.924c0.475-1.271,0.791-2.541,1.108-3.971v-10.8
			C68.536,47.073,67.428,46.278,67.11,45.961z"/>
	</g>
</g>
<g id="Composite_Path">
	<g>
		<path fill-rule="evenodd" clip-rule="evenodd" fill="#181818" d="M81.367,72.009H68.694c1.268-1.747,2.06-3.971,3.802-4.924
			c7.287-4.447,15.049-9.847,15.049-16.836c0-4.765-3.01-9.212-8.871-9.212c-1.267,0-2.059-0.158-3.643,0.636
			c0.158-1.906-1.426-6.194-4.119-5.877c-2.535,0-2.852,0-3.01-0.158c0.316-0.636,0.634-1.747,0.634-2.065
			c0-1.905-1.426-3.494-3.485-4.129h-1.268c-0.158,0.317-0.158,2.224-1.267,2.224c-0.476,0-1.108-0.795-1.108-1.112
			c0-0.477,0.475-2.224,0.475-2.541c0-4.447-6.336-6.829-9.029-6.829c-1.743,0-1.743-0.159-3.802,0.635
			c-2.693,0.953-5.703,4.447-5.703,6.83c0,2.382,1.743,3.971,1.743,4.765c0,0.158-0.159,1.111-1.109,1.111
			c-1.901,0-2.693-5.082-2.693-5.4h-0.634c-2.693,0-6.02,4.606-5.069,6.671c-2.535-0.794-6.336,1.271-6.178,3.971V58.35
			c0,3.971,2.693,9.688,6.336,13.5l-12.356,0.159c-1.425,0.317-2.218,1.43-2.218,2.7c0,3.335,2.535,7.306,7.129,8.259h47.84
			c0.476,0,0.634-0.317,0.95-0.317c3.961-1.112,6.179-4.765,6.179-7.782C83.269,73.438,83.269,73.121,81.367,72.009z M75.031,48.979
			c1.108-0.635,2.534-1.271,3.643-1.271c1.584,0,2.061,1.589,2.061,2.541c0,2.542-3.01,5.718-5.703,7.624V48.979z M74.715,60.256
			c4.435-2.7,7.92-6.671,7.92-10.165c0-2.383-1.584-4.288-3.961-4.288c-1.108,0-2.534,0.476-3.643,1.111V43.42
			c1.268-0.317,3.326-0.636,3.643-0.636c4.753,0,7.129,3.813,7.129,7.465c0,5.718-6.178,11.118-12.197,14.295
			C74.08,63.114,74.556,61.686,74.715,60.256z M65.844,71.85H38.596c-4.277-2.699-7.445-9.847-7.445-13.5V39.767
			c0.476-1.111,1.109-2.064,2.376-2.224h37.068c0.792,0,2.534,1.112,2.534,2.065v18.9C72.18,62.956,71.07,67.562,65.844,71.85z"/>
	</g>
</g>
</svg>
