<?xml version="1.0" encoding="utf-8"?>
<!-- Generator: Adobe Illustrator 16.0.0, SVG Export Plug-In . SVG Version: 6.00 Build 0)  -->
<!DOCTYPE svg PUBLIC "-//W3C//DTD SVG 1.1//EN" "http://www.w3.org/Graphics/SVG/1.1/DTD/svg11.dtd">
<svg version="1.1" id="Layer_1_2_" xmlns="http://www.w3.org/2000/svg" xmlns:xlink="http://www.w3.org/1999/xlink" x="0px" y="0px"
	 width="107px" height="107px" viewBox="0 0 107 107" enable-background="new 0 0 107 107" xml:space="preserve">
<g id="Ellipse">
	<g>
		<circle fill-rule="evenodd" clip-rule="evenodd" fill="#FEFFEB" cx="53.5" cy="53.5" r="53.5"/>
	</g>
</g>
<g id="Composite_Path">
	<g>
		<path fill-rule="evenodd" clip-rule="evenodd" fill="#181818" d="M79.885,42.844c-0.326,0-2.936,0.483-3.424,0.483
			c-0.326,0-0.164,0-0.326-0.161c0.488-1.934-1.469-6.124-4.077-5.802H34.717c-1.467-0.483-4.076,2.256-3.914,3.707v19.176
			c0,2.578,2.936,12.085,7.175,11.763h30.981c0.49,0,1.795-0.483,2.609-0.967c0.652-0.645,0.979-1.772,1.794-2.095
			c7.827-4.351,15.327-9.668,15.327-16.92C88.689,47.033,85.592,42.844,79.885,42.844z M68.633,59.603
			c-0.162,1.289-0.488,2.417-0.978,3.545c-0.326,0.806-2.446,4.995-3.913,4.995H43.033c-2.12-0.645-4.729-6.284-4.729-8.218V48.967
			c0.163-0.322,0.326-0.645,0.815-0.645c0.326,0,2.12,0.483,3.098,0.645c1.304,0.322,4.076,0.483,4.565,0.483
			c7.338,0,8.479-3.062,14.187-3.062c2.772,0,4.729,0.483,7.663,2.578V59.603z M76.297,59.28v-8.541
			c0.979-0.483,2.609-1.128,3.588-1.128c1.793,0,1.957,1.289,1.957,2.417C81.842,54.606,79.232,57.024,76.297,59.28z"/>
	</g>
</g>
<g id="Path">
	<g>
		<path fill-rule="evenodd" clip-rule="evenodd" fill="#181818" d="M80.211,74.105H26.564c-2.12-0.161-1.957,1.128-1.957,2.095
			c0,3.223,2.283,6.123,6.686,6.768h44.19c3.75,0,6.848-3.384,6.848-6.768C82.33,75.233,82.33,73.944,80.211,74.105z"/>
	</g>
</g>
<g id="Path_1_">
	<g>
		<path fill-rule="evenodd" clip-rule="evenodd" fill="#181818" d="M58.197,20.605c0-1.934,2.446-3.545,2.446-4.351
			c0-0.322-0.163-0.806-0.815-0.806c-1.631,0-3.262,3.867-3.262,5.156c0,3.546,3.914,4.029,3.914,7.091
			c0,0.967-1.468,3.706-1.468,3.867c0,0.322,0.163,0.967,0.815,0.967c1.468,0,2.283-4.512,2.283-4.834
			C62.111,23.828,58.197,22.7,58.197,20.605z"/>
	</g>
</g>
<g id="Path_2_">
	<g>
		<path fill-rule="evenodd" clip-rule="evenodd" fill="#181818" d="M46.457,23.506c0-0.322,1.794-2.739,1.794-3.223
			s-0.163-0.645-0.815-0.645c-1.793,0-2.609,3.384-2.609,3.867c0,2.901,2.935,3.224,2.935,5.318c0,0.483-1.142,2.578-1.142,3.062
			s0.163,0.806,0.815,0.806c1.305,0,1.957-3.062,1.957-3.706C49.392,26.085,46.457,25.118,46.457,23.506z"/>
	</g>
</g>
</svg>
