<?xml version="1.0" encoding="utf-8"?>
<!-- Generator: Adobe Illustrator 26.0.1, SVG Export Plug-In . SVG Version: 6.00 Build 0)  -->
<svg version="1.1" id="Layer_1" xmlns="http://www.w3.org/2000/svg" xmlns:xlink="http://www.w3.org/1999/xlink" x="0px" y="0px"
	 viewBox="0 0 484.7 122" style="enable-background:new 0 0 484.7 122;" xml:space="preserve">
<g>
	<path d="M190.6,47.7c-1-0.2-1.9-0.4-2.7-0.5c-0.2,0-0.3-0.2-0.2-0.3c0.1-0.2,1-1.4,1.6-2.4c0.5-0.9,0.3-0.9-0.4-0.3
		c-0.7,0.5-1.3,1.1-2,1.6c-0.1,0.1-0.3,0-0.3-0.2c-0.1-1-0.2-2.1-0.4-3.1c-0.4-2.5-1-2.1-1.1-0.4c-0.1,1.2-0.3,2.3-0.4,3.5
		c0,0.2-0.1,0.4-0.3,0.3c-0.6-0.5-1.1-1.1-1.7-1.5c-1.5-1.3-1.6-0.8-0.7,0.3c0.6,0.7,1.1,1.5,1.6,2.2c0.1,0.1,0,0.4-0.1,0.4
		c-0.9,0.2-1.7,0.5-2.6,0.6c-0.8,0.1-1,0.6-0.1,0.9c0.5,0.2,1.2,0.2,1.4,0.3c0.4,0.1,0.8,0.2,1.2,0.2c0.2,0,0.3,0.2,0.2,0.3
		c-0.5,0.6-0.9,1.2-1.3,1.9c-1.1,1.7-0.7,1.7,0.3,0.8c0.6-0.6,1.2-1.1,1.7-1.6c0.1-0.1,0.3,0.1,0.3,0.3c0,0.2,0.1,0.4,0.1,0.5
		c0,0.3,0.3,2,0.6,3.4c0.3,1.2,0.5,1,0.8-0.1c0.2-1.1,0.5-2.3,0.6-3.5c0-0.1,0-0.3,0-0.5c0-0.2,0.2-0.3,0.3-0.2
		c0.4,0.4,1.2,1,1.8,1.5c0.8,0.6,0.8,0.3,0.3-0.4c-0.4-0.7-0.9-1.4-1.4-2.1c-0.1-0.2-0.2-0.5,0-0.5c0.8-0.2,1.6-0.4,2.4-0.5
		C191.2,48.5,191.6,47.9,190.6,47.7z"/>
	<path d="M83.4,47.1c-1.9-0.4-3.6-0.7-5.2-1c-0.3,0-0.5-0.4-0.4-0.6c0.3-0.4,1.8-2.6,3-4.5c1-1.7,0.6-1.7-0.7-0.6
		c-1.3,1-2.6,2-3.8,3.1c-0.2,0.2-0.6,0-0.6-0.3c-0.2-2-0.5-4-0.8-5.9c-0.8-4.7-1.8-4.1-2.1-0.8c-0.2,2.3-0.6,4.5-0.8,6.8
		c0,0.4-0.3,0.8-0.5,0.5c-1.1-1-2.2-2-3.3-3c-2.9-2.4-3-1.5-1.3,0.6c1.1,1.4,2,2.8,3.1,4.2c0.2,0.3,0.1,0.7-0.2,0.7
		c-1.6,0.4-3.2,0.9-4.9,1.1c-1.5,0.2-2,1.1-0.2,1.6c1,0.3,2.4,0.5,2.7,0.5c0.7,0.1,1.5,0.3,2.3,0.5c0.3,0.1,0.6,0.4,0.4,0.6
		c-0.9,1.2-1.7,2.4-2.5,3.6c-2.2,3.2-1.4,3.3,0.5,1.5c1.1-1.1,2.2-2,3.3-3c0.3-0.3,0.6,0.2,0.6,0.6c0.1,0.3,0.1,0.7,0.2,1
		c0.1,0.6,0.6,3.9,1.2,6.6c0.5,2.4,1,1.9,1.5-0.1c0.5-2.2,0.9-4.4,1.2-6.6c0-0.3,0.1-0.6,0.1-0.9c0-0.4,0.4-0.6,0.6-0.4
		c0.8,0.7,2.2,1.9,3.5,2.9c1.5,1.2,1.5,0.6,0.6-0.8c-0.8-1.3-1.7-2.7-2.6-4c-0.2-0.3-0.4-0.9,0-1c1.5-0.3,3-0.7,4.6-1
		C84.5,48.6,85.2,47.5,83.4,47.1z"/>
	<path d="M440.8,3.1c4-0.8,7.7-1.8,11.8-2.6c0.5-0.1,1.1-0.3,1.5-0.4h-50.1c0.5,0.3,1.1,0.6,2,0.9c2.6,0.8,6.1,1.2,7,1.4
		c1.8,0.3,3.8,0.8,5.9,1.2c0.8,0.2,1.7,1,1.1,1.7c-2.3,3-4.5,6.1-6.6,9.2c-5.6,8.4-3.6,8.7,1.3,3.9c2.8-2.8,5.7-5.3,8.6-7.9
		c0.7-0.7,1.4,0.6,1.6,1.6c0.1,0.9,0.3,1.8,0.4,2.6c0.2,1.5,1.6,10.1,3.1,17c1.4,6.2,2.7,5,3.8-0.4c1.2-5.6,2.4-11.4,3.1-17.2
		c0.1-0.7,0.2-1.5,0.2-2.2c0.1-0.9,0.9-1.6,1.6-1.1c2.1,1.8,5.8,4.9,9,7.4c3.9,3,3.8,1.7,1.5-2.1c-2.2-3.4-4.4-7-6.8-10.3
		C440.1,4.8,439.7,3.3,440.8,3.1z"/>
	<path d="M314,73c-3.8-0.8-7.1-1.5-10.4-1.9c-0.6-0.1-1.1-0.7-0.7-1.2c0.5-0.8,3.6-5.2,6-9c2.1-3.3,1.1-3.3-1.4-1.2
		c-2.6,2-5.1,4.1-7.6,6.2c-0.5,0.4-1.2,0.1-1.3-0.6c-0.3-4-0.9-8-1.6-11.8c-1.7-9.5-3.6-8.1-4.2-1.5c-0.4,4.6-1.2,8.9-1.6,13.5
		c-0.1,0.7-0.6,1.5-1.1,1.1c-2.1-2.1-4.4-4-6.6-5.9c-5.8-4.8-5.9-3.1-2.6,1.1c2.2,2.8,4.1,5.6,6.2,8.4c0.4,0.5,0.1,1.3-0.5,1.5
		c-3.2,0.8-6.4,1.7-9.8,2.3c-2.9,0.4-4,2.2-0.3,3.3c2,0.6,4.7,0.9,5.3,1.1c1.4,0.2,2.9,0.6,4.5,0.9c0.6,0.1,1.3,0.7,0.9,1.3
		c-1.8,2.3-3.5,4.7-5.1,7.1c-4.3,6.5-2.8,6.6,1,3c2.2-2.1,4.4-4,6.6-6.1c0.6-0.5,1.1,0.4,1.2,1.2c0.1,0.7,0.2,1.4,0.3,2
		c0.2,1.1,1.2,7.8,2.4,13.1c1,4.7,2.1,3.8,2.9-0.3c0.9-4.3,1.8-8.8,2.4-13.2c0.1-0.6,0.1-1.1,0.2-1.7c0.1-0.7,0.7-1.3,1.2-0.8
		c1.6,1.3,4.4,3.8,6.9,5.7c3,2.3,2.9,1.3,1.1-1.6c-1.7-2.6-3.4-5.3-5.2-7.9c-0.5-0.7-0.7-1.8,0-2c3-0.6,5.9-1.4,9.1-2
		C316.2,76,317.6,73.7,314,73z"/>
</g>
</svg>
