<?xml version="1.0" encoding="utf-8"?>
<!-- Generator: Adobe Illustrator 26.0.1, SVG Export Plug-In . SVG Version: 6.00 Build 0)  -->
<svg version="1.1" id="Layer_1" xmlns="http://www.w3.org/2000/svg" xmlns:xlink="http://www.w3.org/1999/xlink" x="0px" y="0px"
	 viewBox="0 0 484.7 122" style="enable-background:new 0 0 484.7 122;" xml:space="preserve">
<g>
	<path d="M307.8,47.7c1-0.2,1.9-0.4,2.7-0.5c0.2,0,0.3-0.2,0.2-0.3c-0.1-0.2-1-1.4-1.6-2.4c-0.5-0.9-0.3-0.9,0.4-0.3
		c0.7,0.5,1.3,1.1,2,1.6c0.1,0.1,0.3,0,0.3-0.2c0.1-1,0.2-2.1,0.4-3.1c0.4-2.5,1-2.1,1.1-0.4c0.1,1.2,0.3,2.3,0.4,3.5
		c0,0.2,0.1,0.4,0.3,0.3c0.6-0.5,1.1-1.1,1.7-1.5c1.5-1.3,1.6-0.8,0.7,0.3c-0.6,0.7-1.1,1.5-1.6,2.2c-0.1,0.1,0,0.4,0.1,0.4
		c0.9,0.2,1.7,0.5,2.6,0.6c0.8,0.1,1,0.6,0.1,0.9c-0.5,0.2-1.2,0.2-1.4,0.3c-0.4,0.1-0.8,0.2-1.2,0.2c-0.2,0-0.3,0.2-0.2,0.3
		c0.5,0.6,0.9,1.2,1.3,1.9c1.1,1.7,0.7,1.7-0.3,0.8c-0.6-0.6-1.2-1.1-1.7-1.6c-0.1-0.1-0.3,0.1-0.3,0.3c0,0.2-0.1,0.4-0.1,0.5
		c0,0.3-0.3,2-0.6,3.4c-0.3,1.2-0.5,1-0.8-0.1c-0.2-1.1-0.5-2.3-0.6-3.5c0-0.1,0-0.3,0-0.5c0-0.2-0.2-0.3-0.3-0.2
		c-0.4,0.4-1.2,1-1.8,1.5c-0.8,0.6-0.8,0.3-0.3-0.4c0.4-0.7,0.9-1.4,1.4-2.1c0.1-0.2,0.2-0.5,0-0.5c-0.8-0.2-1.6-0.4-2.4-0.5
		C307.2,48.5,306.9,47.9,307.8,47.7z"/>
	<path d="M415,47.1c1.9-0.4,3.6-0.7,5.2-1c0.3,0,0.5-0.4,0.4-0.6c-0.3-0.4-1.8-2.6-3-4.5c-1-1.7-0.6-1.7,0.7-0.6
		c1.3,1,2.6,2,3.8,3.1c0.2,0.2,0.6,0,0.6-0.3c0.2-2,0.5-4,0.8-5.9c0.8-4.7,1.8-4.1,2.1-0.8c0.2,2.3,0.6,4.5,0.8,6.8
		c0,0.4,0.3,0.8,0.5,0.5c1.1-1,2.2-2,3.3-3c2.9-2.4,3-1.5,1.3,0.6c-1.1,1.4-2,2.8-3.1,4.2c-0.2,0.3-0.1,0.7,0.2,0.7
		c1.6,0.4,3.2,0.9,4.9,1.1c1.5,0.2,2,1.1,0.2,1.6c-1,0.3-2.4,0.5-2.7,0.5c-0.7,0.1-1.5,0.3-2.3,0.5c-0.3,0.1-0.6,0.4-0.4,0.6
		c0.9,1.2,1.7,2.4,2.5,3.6c2.2,3.2,1.4,3.3-0.5,1.5c-1.1-1.1-2.2-2-3.3-3c-0.3-0.3-0.6,0.2-0.6,0.6c-0.1,0.3-0.1,0.7-0.2,1
		c-0.1,0.6-0.6,3.9-1.2,6.6c-0.5,2.4-1,1.9-1.5-0.1c-0.5-2.2-0.9-4.4-1.2-6.6c0-0.3-0.1-0.6-0.1-0.9c0-0.4-0.4-0.6-0.6-0.4
		c-0.8,0.7-2.2,1.9-3.5,2.9c-1.5,1.2-1.5,0.6-0.6-0.8c0.8-1.3,1.7-2.7,2.6-4c0.2-0.3,0.4-0.9,0-1c-1.5-0.3-3-0.7-4.6-1
		C414,48.6,413.2,47.5,415,47.1z"/>
	<path d="M57.7,3.1c-4-0.8-7.7-1.8-11.8-2.6c-0.5-0.1-1.1-0.3-1.5-0.4l50.1,0c-0.5,0.3-1.1,0.6-2,0.9c-2.6,0.8-6.1,1.2-7,1.4
		c-1.8,0.3-3.8,0.8-5.9,1.2c-0.8,0.2-1.7,1-1.1,1.7c2.3,3,4.5,6.1,6.6,9.2c5.6,8.4,3.6,8.7-1.3,3.9c-2.8-2.8-5.7-5.3-8.6-7.9
		c-0.7-0.7-1.4,0.6-1.6,1.6c-0.1,0.9-0.3,1.8-0.4,2.6c-0.2,1.5-1.6,10.1-3.1,17c-1.4,6.2-2.7,5-3.8-0.4C65.2,25.5,64,19.8,63.3,14
		c-0.1-0.7-0.2-1.5-0.2-2.2c-0.1-0.9-0.9-1.6-1.6-1.1c-2.1,1.8-5.8,4.9-9,7.4c-3.9,3-3.8,1.7-1.5-2.1c2.2-3.4,4.4-7,6.8-10.3
		C58.4,4.8,58.7,3.3,57.7,3.1z"/>
	<path d="M184.4,73c3.8-0.8,7.1-1.5,10.4-1.9c0.6-0.1,1.1-0.7,0.7-1.2c-0.5-0.8-3.6-5.2-6-9c-2.1-3.3-1.1-3.3,1.4-1.2
		c2.6,2,5.1,4.1,7.6,6.2c0.5,0.4,1.2,0.1,1.3-0.6c0.3-4,0.9-8,1.6-11.8c1.7-9.5,3.6-8.1,4.2-1.5c0.4,4.6,1.2,8.9,1.6,13.5
		c0.1,0.7,0.6,1.5,1.1,1.1c2.1-2.1,4.4-4,6.6-5.9c5.8-4.8,5.9-3.1,2.6,1.1c-2.2,2.8-4.1,5.6-6.2,8.4c-0.4,0.5-0.1,1.3,0.5,1.5
		c3.2,0.8,6.4,1.7,9.8,2.3c2.9,0.4,4,2.2,0.3,3.3c-2,0.6-4.7,0.9-5.3,1.1c-1.4,0.2-2.9,0.6-4.5,0.9c-0.6,0.1-1.3,0.7-0.9,1.3
		c1.8,2.3,3.5,4.7,5.1,7.1c4.3,6.5,2.8,6.6-1,3c-2.2-2.1-4.4-4-6.6-6.1c-0.6-0.5-1.1,0.4-1.2,1.2c-0.1,0.7-0.2,1.4-0.3,2
		c-0.2,1.1-1.2,7.8-2.4,13.1c-1,4.7-2.1,3.8-2.9-0.3c-0.9-4.3-1.8-8.8-2.4-13.2c-0.1-0.6-0.1-1.1-0.2-1.7c-0.1-0.7-0.7-1.3-1.2-0.8
		c-1.6,1.3-4.4,3.8-6.9,5.7c-3,2.3-2.9,1.3-1.1-1.6c1.7-2.6,3.4-5.3,5.2-7.9c0.5-0.7,0.7-1.8,0-2c-3-0.6-5.9-1.4-9.1-2
		C182.3,76,180.8,73.7,184.4,73z"/>
</g>
</svg>
