<?xml version="1.0" encoding="utf-8"?>
<!-- Generator: Adobe Illustrator 25.3.1, SVG Export Plug-In . SVG Version: 6.00 Build 0)  -->
<svg version="1.1" id="Layer_1" xmlns="http://www.w3.org/2000/svg" xmlns:xlink="http://www.w3.org/1999/xlink" x="0px" y="0px"
	 viewBox="0 0 129.4 17.3" style="enable-background:new 0 0 129.4 17.3;" xml:space="preserve">
<style type="text/css">
	.st0{fill:#009BFF;}
	.st1{fill:#404040;}
	.st2{fill:#282B6A;}
	.st3{fill:#FFFFFF;}
	.st4{fill:#5F53AE;}
	.st5{fill:#C81A46;}
	.st6{fill:#0E88D3;}
	.st7{fill:#F25C19;}
	.st8{fill:#33B540;}
	.st9{fill:#FAB20B;}
	.st10{fill:#231F20;}
</style>
<g id="logo" transform="matrix(1.841814,0,0,1.841814,-9.1629391,165.81868)">
	<path id="path6" d="M14.4-85.3c0,2.6-2.1,4.7-4.7,4.7S5-82.7,5-85.3C5-87.9,7.1-90,9.7-90c0,0,0,0,0,0C12.3-90,14.4-87.9,14.4-85.3
		L14.4-85.3L14.4-85.3z M14.1-85.3c-0.4-0.8-1-1.5-1.7-2c-0.8-0.5-1.7-0.8-2.7-0.8c-1,0-1.9,0.3-2.7,0.8c-0.7,0.5-1.3,1.2-1.7,2
		c0.4,0.8,1,1.5,1.7,2c0.8,0.5,1.8,0.8,2.7,0.8c1,0,1.9-0.3,2.7-0.8C13.1-83.8,13.7-84.5,14.1-85.3L14.1-85.3z M12.2-85.3
		c0,1.4-1.1,2.5-2.5,2.5c-0.7,0-1.3-0.3-1.8-0.7c-1-1-1-2.5,0-3.5c0.5-0.5,1.1-0.7,1.8-0.7c0.7,0,1.3,0.3,1.8,0.7
		C11.9-86.6,12.2-86,12.2-85.3L12.2-85.3z"/>
	<path id="path8" d="M15.2-85.3c0-2.4,2-4.4,4.6-4.4c1.4,0,2.7,0.6,3.6,1.7l-1.2,1.2c-0.6-0.7-1.4-1.2-2.4-1.2
		c-1.5,0-2.7,1.2-2.7,2.7s1.2,2.7,2.7,2.7c1,0,1.8-0.5,2.4-1.2l1.2,1.2c-0.9,1.1-2.2,1.7-3.6,1.7C17.2-80.9,15.2-82.9,15.2-85.3
		L15.2-85.3z"/>
	<path id="path10" d="M24.1-89.6h3.6c1.7,0,2.7,1,2.7,2.2c0,0.8-0.4,1.5-1.2,1.8c0,0,1.6,0.4,1.6,2.1c0,1.3-1.1,2.4-2.9,2.4h-3.8
		L24.1-89.6z M27.6-86.3c0.6,0,1-0.4,1-0.8c0-0.5-0.4-0.9-1-0.9h-1.6v1.7H27.6z M27.8-82.7c0.7,0,1.2-0.4,1.2-1s-0.4-1-1.2-1h-1.9
		v2.1H27.8z"/>
	<path id="path12" d="M31.1-82.2l1.2-1.2c0.5,0.6,1.2,0.9,2,0.9c1,0,1.4-0.4,1.4-1c0-1.5-4.3-0.8-4.3-3.8c0-1.3,1.2-2.5,3.1-2.5
		c1.1,0,2.1,0.4,2.9,1.2l-1.2,1.2c-0.4-0.4-1-0.7-1.6-0.7c-0.9,0-1.3,0.4-1.3,0.9c0,1.5,4.3,0.8,4.3,3.8c0,1.4-1.2,2.6-3.2,2.6
		C32.2-80.9,31.1-82.2,31.1-82.2L31.1-82.2z"/>
	<path id="path14" d="M40.6-89.6h1.6l4.1,5.3v-5.3h1.8v8.5h-1.6l-4.1-5.3v5.3h-1.8V-89.6z"/>
	<path id="path16" d="M49.4-89.6h6.3v1.7h-4.5v1.6h3.5v1.6h-3.5v1.8h4.6v1.7h-6.4L49.4-89.6z"/>
	<path id="path18" d="M56.3-89.6h1.9l1.8,5.7H60l1.8-5.7h1.7l1.8,5.7h0.1l1.8-5.7h1.9l-2.8,8.5h-1.8l-1.7-5.5h-0.1l-1.7,5.5h-1.8
		L56.3-89.6z"/>
	<path id="path20" d="M68.8-82.2l1.2-1.2c0.5,0.6,1.2,0.9,2,0.9c1,0,1.4-0.4,1.4-1c0-1.5-4.3-0.8-4.3-3.8c0-1.3,1.2-2.5,3.1-2.5
		c1.1,0,2.1,0.4,2.8,1.2l-1.2,1.2c-0.4-0.4-1-0.7-1.6-0.7c-0.9,0-1.3,0.4-1.3,0.9c0,1.5,4.3,0.8,4.3,3.8c0,1.4-1.2,2.6-3.2,2.6
		C69.8-80.9,68.8-82.2,68.8-82.2L68.8-82.2z"/>
</g>
</svg>
