<?xml version="1.0" encoding="utf-8"?>
<!-- Generator: Adobe Illustrator 26.0.1, SVG Export Plug-In . SVG Version: 6.00 Build 0)  -->
<svg version="1.1" id="Layer_1" xmlns="http://www.w3.org/2000/svg" xmlns:xlink="http://www.w3.org/1999/xlink" x="0px" y="0px"
	 viewBox="0 0 215.9 28.9" style="enable-background:new 0 0 215.9 28.9;" xml:space="preserve">
<style type="text/css">
	.st0{fill:#3D3D3D;}
</style>
<g id="logo" transform="matrix(1.841814,0,0,1.841814,-9.1629391,165.81868)">
	<path id="path6" class="st0" d="M20.7-82.2c0,4.3-3.5,7.8-7.8,7.8S5-77.8,5-82.2c0-4.3,3.5-7.8,7.8-7.8l0,0
		C17.2-90,20.7-86.5,20.7-82.2L20.7-82.2L20.7-82.2z M20.2-82.2c-0.7-1.3-1.7-2.5-2.8-3.3c-1.3-0.8-2.8-1.3-4.5-1.3
		s-3.2,0.5-4.5,1.3c-1.2,0.8-2.2,2-2.8,3.3c0.7,1.3,1.7,2.5,2.8,3.3c1.3,0.8,3,1.3,4.5,1.3c1.7,0,3.2-0.5,4.5-1.3
		C18.5-79.7,19.5-80.8,20.2-82.2L20.2-82.2z M17-82.2c0,2.3-1.8,4.2-4.2,4.2c-1.2,0-2.2-0.5-3-1.2c-1.7-1.7-1.7-4.2,0-5.8
		c0.8-0.8,1.8-1.2,3-1.2s2.2,0.5,3,1.2C16.5-84.4,17-83.4,17-82.2L17-82.2z"/>
	<path id="path8" class="st0" d="M22-82.2c0-4,3.3-7.3,7.7-7.3c2.3,0,4.5,1,6,2.8l-2,2c-1-1.2-2.3-2-4-2c-2.5,0-4.5,2-4.5,4.5
		s2,4.5,4.5,4.5c1.7,0,3-0.8,4-2l2,2c-1.5,1.8-3.7,2.8-6,2.8C25.3-74.8,22-78.2,22-82.2L22-82.2z"/>
	<path id="path10" class="st0" d="M36.9-89.4h6c2.8,0,4.5,1.7,4.5,3.7c0,1.3-0.7,2.5-2,3c0,0,2.7,0.7,2.7,3.5c0,2.2-1.8,4-4.8,4
		h-6.3L36.9-89.4z M42.7-83.9c1,0,1.7-0.7,1.7-1.3c0-0.8-0.7-1.5-1.7-1.5H40v2.8L42.7-83.9L42.7-83.9z M43-77.8c1.2,0,2-0.7,2-1.7
		s-0.7-1.7-2-1.7h-3.2v3.5H43V-77.8z"/>
	<path id="path12" class="st0" d="M48.5-77l2-2c0.8,1,2,1.5,3.3,1.5c1.7,0,2.3-0.7,2.3-1.7c0-2.5-7.2-1.3-7.2-6.3
		c0-2.2,2-4.2,5.2-4.2c1.8,0,3.5,0.7,4.8,2l-2,2c-0.7-0.7-1.7-1.2-2.7-1.2c-1.5,0-2.2,0.7-2.2,1.5c0,2.5,7.2,1.3,7.2,6.3
		c0,2.3-2,4.3-5.3,4.3C50.4-74.8,48.5-77,48.5-77L48.5-77z"/>
	<path id="path14" class="st0" d="M64.4-89.4h2.7l6.8,8.8v-8.8h3v14.2h-2.7L67.4-84v8.8h-3V-89.4z"/>
	<path id="path16" class="st0" d="M79.1-89.4h10.5v2.8h-7.5v2.7h5.8v2.7h-5.8v3h7.7v2.8H79.1L79.1-89.4z"/>
	<path id="path18" class="st0" d="M90.6-89.4h3.2l3,9.5l0,0l3-9.5h2.8l3,9.5h0.2l3-9.5h3.2l-4.7,14.2h-3l-2.8-9.2h-0.2l-2.8,9.2h-3
		L90.6-89.4z"/>
	<path id="path20" class="st0" d="M111.5-77l2-2c0.8,1,2,1.5,3.3,1.5c1.7,0,2.3-0.7,2.3-1.7c0-2.5-7.2-1.3-7.2-6.3
		c0-2.2,2-4.2,5.2-4.2c1.8,0,3.5,0.7,4.7,2l-2,2c-0.7-0.7-1.7-1.2-2.7-1.2c-1.5,0-2.2,0.7-2.2,1.5c0,2.5,7.2,1.3,7.2,6.3
		c0,2.3-2,4.3-5.3,4.3C113.2-74.8,111.5-77,111.5-77L111.5-77z"/>
</g>
</svg>
