<?xml version="1.0" encoding="utf-8"?>
<svg width="13px" height="13px" viewBox="0 0 13 13" version="1.1" xmlns:xlink="http://www.w3.org/1999/xlink" xmlns="http://www.w3.org/2000/svg">
  <g id="check-testimonials">
    <g id="check-testimonials">
      <path d="M6.5 13C10.0899 13 13 10.0899 13 6.5C13 2.91015 10.0899 0 6.5 0C2.91015 0 0 2.91015 0 6.5C0 10.0899 2.91015 13 6.5 13Z" id="Oval-Copy-6" fill="#77C44F" fill-rule="evenodd" stroke="none" />
      <g id="002-correct-symbol" transform="translate(2.7083333 4.3333335)">
        <path d="M6.6664 0.671331L6.07073 0.114606C5.98905 0.0382114 5.88972 0 5.77296 0C5.65609 0 5.55675 0.0382114 5.47507 0.114606L2.60173 2.80413L1.314 1.59649C1.23223 1.52007 1.13296 1.4819 1.01619 1.4819C0.899354 1.4819 0.800081 1.52007 0.718311 1.59649L0.122639 2.15323C0.0408693 2.22964 0 2.32245 0 2.43164C0 2.54074 0.0408693 2.63363 0.122639 2.71003L1.70818 4.19187L2.3039 4.74859C2.38562 4.82505 2.48493 4.86321 2.60173 4.86321C2.7185 4.86321 2.8178 4.82495 2.89957 4.74859L3.49528 4.19187L6.6664 1.2281C6.7481 1.15168 6.78904 1.05888 6.78904 0.949693C6.7891 0.840565 6.7481 0.747753 6.6664 0.671331Z" id="Path" fill="#FFFFFF" fill-rule="evenodd" stroke="none" />
      </g>
    </g>
  </g>
</svg>