<?xml version="1.0" encoding="utf-8"?>
<!-- Generator: Adobe Illustrator 25.4.1, SVG Export Plug-In . SVG Version: 6.00 Build 0)  -->
<svg version="1.1" id="Layer_1" xmlns="http://www.w3.org/2000/svg" xmlns:xlink="http://www.w3.org/1999/xlink" x="0px" y="0px"
	 viewBox="0 0 18 18" style="enable-background:new 0 0 18 18;" xml:space="preserve">
<path d="M9,18c-5,0-9-4-9-9s4-9,9-9s9,4,9,9S14,18,9,18z M9,1.5C4.8,1.5,1.5,4.8,1.5,9s3.4,7.5,7.5,7.5s7.5-3.4,7.5-7.5
	C16.5,4.8,13.2,1.5,9,1.5z"/>
<path d="M7.4,13.1c-0.2,0-0.4-0.1-0.5-0.2l-2.7-2.7l1-1l2.2,2.2L12.9,6l1,1l-6,5.8C7.7,13,7.6,13.1,7.4,13.1z"/>
</svg>
