<?xml version="1.0" encoding="utf-8"?>
<!-- Generator: Adobe Illustrator 25.4.1, SVG Export Plug-In . SVG Version: 6.00 Build 0)  -->
<svg version="1.1" id="Layer_1" xmlns="http://www.w3.org/2000/svg" xmlns:xlink="http://www.w3.org/1999/xlink" x="0px" y="0px"
	 viewBox="0 0 180 180" style="enable-background:new 0 0 180 180;" xml:space="preserve">
<path d="M95.8,14.3l-0.7-0.1l1-14.3L97,0.1L95.8,14.3z M72.5,16L69.3,2l0.9-0.2l3.1,14L72.5,16z M117.9,19.5l-0.6-0.2l5.2-13.4
	l0.8,0.3L117.9,19.5z M51.4,24.3l-7.2-12.4l0.7-0.4L52.1,24L51.4,24.3z M137.4,31l-0.6-0.4l8.9-11.2l0.7,0.5L137.4,31z M33.7,38.4
	l-10.6-9.7l0.6-0.6l10.5,9.8L33.7,38.4z M152.7,47.7l-0.4-0.6l11.9-8.1l0.5,0.7L152.7,47.7z M21,57.1L8,50.9l0.4-0.8l12.9,6.3
	L21,57.1z M162.4,68.2l-0.2-0.7l13.7-4.2l0.2,0.8L162.4,68.2z M14.3,78.8L0.1,76.6l0.1-0.8L14.4,78L14.3,78.8z M180,90.8l-14.4-0.1
	v-0.9H180V90.8z M0.1,103.5L0,102.7l14.2-2l0.1,0.7L0.1,103.5z M175.7,117.4l-13.7-4.4l0.2-0.7l13.7,4.2L175.7,117.4z M8.1,129.2
	l-0.4-0.8l13-6.1L21,123L8.1,129.2z M163.8,141.5l-11.8-8.2l0.4-0.6l11.9,8.1L163.8,141.5z M23.3,151.4l-0.6-0.6l10.6-9.6l0.5,0.5
	L23.3,151.4z M145.3,161l-8.9-11.3l0.6-0.5l9,11.2L145.3,161z M44.4,168.2l-0.7-0.4l7.3-12.4l0.6,0.4L44.4,168.2z M121.8,174.3
	l-5.1-13.4l0.7-0.3l5.2,13.3L121.8,174.3z M69.5,178l-0.8-0.2l3.3-13.9l0.7,0.2L69.5,178z M95.5,180l-0.9-14.3l0.7-0.1l1.1,14.3
	L95.5,180z"/>
</svg>
