<?xml version="1.0" encoding="utf-8"?>
<!-- Generator: Adobe Illustrator 26.0.1, SVG Export Plug-In . SVG Version: 6.00 Build 0)  -->
<svg version="1.1" id="Layer_1" xmlns="http://www.w3.org/2000/svg" xmlns:xlink="http://www.w3.org/1999/xlink" x="0px" y="0px"
	 viewBox="0 0 50 50" style="enable-background:new 0 0 50 50;" xml:space="preserve">
<g>
	<path d="M26.7,47.5c-3.8,0-7.5,0-11.3,0c-0.3,0-0.4-0.1-0.5-0.4c-0.2-1.9-0.3-3.8-0.5-5.7c-0.2-1.8-0.4-3.7-0.5-5.5
		c-0.1-1.4-0.3-2.8-0.4-4.2c-0.2-1.6-0.3-3.3-0.5-4.9c-0.1-1.2-0.2-2.4-0.3-3.6c-0.2-1.8-0.4-3.7-0.5-5.5c-0.1-1-0.2-2-0.3-3.1
		c0-0.4,0-0.4-0.5-0.4c-0.7,0-1.4,0-2.1,0c-0.2,0-0.3,0-0.3-0.2c0-2,0-4.1,0-6.1c0-0.2,0.1-0.3,0.3-0.3c1.3,0,2.5,0,3.8,0
		c0.3,0,0.4-0.1,0.4-0.3c0.3-1.4,0.7-2.8,1-4.2c0.1-0.3,0.2-0.4,0.5-0.4c3.7,0,7.3,0,11,0c4.1,0,8.2,0,12.3,0c0.6,0,0.5-0.1,0.6,0.5
		c0.3,1.4,0.7,2.8,1,4.2c0.1,0.2,0.1,0.3,0.4,0.3c1.3,0,2.6,0,3.8,0c0.2,0,0.3,0.1,0.3,0.3c0,2,0,4.1,0,6.1c0,0.2-0.1,0.3-0.3,0.3
		c-0.7,0-1.5,0-2.2,0c-0.2,0-0.3,0.1-0.3,0.3c-0.1,1.2-0.2,2.3-0.3,3.5c-0.2,1.8-0.4,3.7-0.5,5.5c-0.1,1.2-0.2,2.5-0.3,3.7
		c-0.2,1.6-0.3,3.2-0.5,4.8c-0.1,0.8-0.1,1.7-0.2,2.5c-0.1,1.4-0.3,2.8-0.4,4.2c-0.1,1.4-0.3,2.9-0.4,4.3c-0.1,1.4-0.3,2.8-0.4,4.2
		c0,0.3-0.1,0.3-0.4,0.3c-3.5,0-7,0-10.4,0C27.3,47.5,27,47.5,26.7,47.5z M26.7,34.2c-2.8,0-5.6,0-8.4,0c-0.9,0-1.8,0-2.7,0
		c-0.2,0-0.3,0.1-0.2,0.2c0,0.4,0,0.7,0.1,1.1c0.1,0.7,0.2,1.3,0.2,2c0.1,1.2,0.3,2.4,0.4,3.7c0.1,1.4,0.3,2.8,0.4,4.2
		c0,0.4,0,0.4,0.4,0.4c4.1,0,8.3,0,12.4,0c2.5,0,4.9,0,7.4,0c0.2,0,0.3,0,0.4-0.3c0.2-2,0.4-3.9,0.6-5.9c0.2-1.7,0.3-3.4,0.5-5.1
		c0-0.3,0-0.4-0.3-0.4C34,34.2,30.4,34.2,26.7,34.2z M26.7,14.1c-4.3,0-8.5,0-12.8,0c-0.5,0-0.5,0-0.5,0.5c0.2,1.7,0.3,3.4,0.5,5.1
		c0,0.3,0.2,0.4,0.4,0.4c2.8,0,5.6,0,8.4,0c3,0,5.9,0,8.9,0c2.4,0,4.8,0,7.1,0c0.1,0,0.3,0,0.4,0c0.1,0,0.2,0,0.2-0.2
		c0-0.4,0.1-0.8,0.1-1.2c0.1-1.4,0.3-2.8,0.4-4.3c0-0.2-0.1-0.2-0.2-0.2c-1.4,0-2.9,0-4.3,0C32.5,14.1,29.6,14.1,26.7,14.1z
		 M26.7,12.4c3.3,0,6.5,0,9.8,0c2,0,3.9,0,5.9,0c0.3,0,0.4-0.1,0.4-0.4c0-0.9,0-1.8,0-2.6c0-0.3-0.1-0.4-0.4-0.4
		c-4.8,0-9.7,0-14.5,0c-5.6,0-11.3,0-16.9,0c-0.3,0-0.4,0.1-0.4,0.4c0,0.9,0,1.8,0,2.7c0,0.3,0.1,0.4,0.3,0.4c2.2,0,4.5,0,6.7,0
		C20.7,12.4,23.7,12.4,26.7,12.4z M26.7,7.4c1.9,0,3.9,0,5.8,0c1.8,0,3.7,0,5.5,0c0.2,0,0.3,0,0.2-0.3c-0.2-0.9-0.5-1.8-0.7-2.7
		c-0.1-0.2-0.2-0.3-0.4-0.3c-4.3,0-8.6,0-12.9,0c-2.7,0-5.4,0-8,0c-0.2,0-0.3,0.1-0.4,0.3c-0.2,0.9-0.4,1.8-0.6,2.6
		c-0.1,0.4-0.1,0.4,0.3,0.4C19.2,7.4,22.9,7.4,26.7,7.4z"/>
</g>
</svg>
