<?xml version="1.0" encoding="utf-8"?>
<!-- Generator: Adobe Illustrator 26.0.3, SVG Export Plug-In . SVG Version: 6.00 Build 0)  -->
<svg version="1.1" id="Layer_1" xmlns="http://www.w3.org/2000/svg" xmlns:xlink="http://www.w3.org/1999/xlink" x="0px" y="0px"
	 viewBox="0 0 103.5 103.5" style="enable-background:new 0 0 103.5 103.5;" xml:space="preserve">
<style type="text/css">
	.st0{fill:#010101;}
</style>
<g>
	<g>
		<g>
			<path class="st0" d="M51.8,103.5c-13.8,0-26.8-5.4-36.6-15.2S0,65.6,0,51.8s5.4-26.8,15.2-36.6S37.9,0,51.8,0s26.8,5.4,36.6,15.2
				s15.2,22.8,15.2,36.6s-5.4,26.8-15.2,36.6S65.6,103.5,51.8,103.5z M51.8,2.5C24.6,2.5,2.5,24.6,2.5,51.8S24.6,101,51.8,101
				S101,78.9,101,51.8S78.9,2.5,51.8,2.5z"/>
		</g>
	</g>
	<g>
		<g>
			<path class="st0" d="M48.4,90.1c-0.2,0-0.4,0-0.5-0.1l-15.1-6.9c-0.5-0.2-0.7-0.7-0.7-1.2V26.4c0-0.4,0.2-0.8,0.6-1.1l7-4.4v-4.1
				c0-0.7,0.5-1.2,1.1-1.3l21.9-2.1c0.4,0,0.7,0.1,1,0.3c0.3,0.2,0.4,0.6,0.4,0.9v4.3l7.3,8.3c0.2,0.2,0.3,0.5,0.3,0.8v57.2
				c0,0.6-0.5,1.2-1.1,1.2L48.6,90C48.5,90.1,48.5,90.1,48.4,90.1z M34.5,81.1l14.1,6.4L69,84.3V28.7l-7.3-8.3
				c-0.2-0.2-0.3-0.5-0.3-0.8v-3.4l-19.4,1.8v3.6c0,0.4-0.2,0.8-0.6,1.1l-7,4.4V81.1z"/>
		</g>
	</g>
	<g>
		<g>
			<path class="st0" d="M48.4,90.1c-0.7,0-1.3-0.6-1.3-1.3V30.5c0-0.6,0.5-1.2,1.1-1.3l21.9-2.3c0.7-0.1,1.3,0.4,1.4,1.1
				c0.1,0.7-0.4,1.3-1.1,1.4l-20.8,2.2v57.2C49.7,89.5,49.1,90.1,48.4,90.1z"/>
		</g>
	</g>
	<g>
		<g>
			<path class="st0" d="M48.4,31.8c-0.1,0-0.2,0-0.3,0l-15.1-4.1c-0.7-0.2-1.1-0.9-0.9-1.5c0.2-0.7,0.9-1.1,1.5-0.9l15.1,4.1
				c0.7,0.2,1.1,0.9,0.9,1.5C49.5,31.4,49,31.8,48.4,31.8z"/>
		</g>
	</g>
	<g>
		<g>
			<path class="st0" d="M48.4,31.8c-0.4,0-0.7-0.2-1-0.4l-7.6-8.9c-0.3-0.4-0.4-0.9-0.2-1.3c0.2-0.4,0.6-0.7,1.1-0.8l21.9-2.1
				c0.7-0.1,1.3,0.4,1.4,1.1c0.1,0.7-0.4,1.3-1.1,1.4l-19.5,1.8l6,7.1c0.5,0.5,0.4,1.3-0.1,1.8C49,31.7,48.7,31.8,48.4,31.8z"/>
		</g>
	</g>
	<g>
		<g>
			<path class="st0" d="M87.5,88.7c-0.3,0-0.6-0.1-0.9-0.4L15.2,17c-0.5-0.5-0.5-1.3,0-1.8c0.5-0.5,1.3-0.5,1.8,0l71.4,71.4
				c0.5,0.5,0.5,1.3,0,1.8C88.1,88.6,87.8,88.7,87.5,88.7z"/>
		</g>
	</g>
</g>
</svg>
