<?xml version="1.0" encoding="utf-8"?>
<!-- Generator: Adobe Illustrator 26.0.3, SVG Export Plug-In . SVG Version: 6.00 Build 0)  -->
<svg version="1.1" id="Layer_1" xmlns="http://www.w3.org/2000/svg" xmlns:xlink="http://www.w3.org/1999/xlink" x="0px" y="0px"
	 viewBox="0 0 50 50" style="enable-background:new 0 0 50 50;" xml:space="preserve">
<style type="text/css">
	.st0{fill:#FEC145;}
</style>
<g>
	<circle class="st0" cx="22" cy="30.5" r="17.5"/>
	<g>
		<path d="M25.1,43.1c-9.4,0-17-7.7-17-17.1C8.1,16.6,15.7,9,25.2,9c9.4,0,17.1,7.7,17.1,17.1C42.2,35.5,34.6,43.1,25.1,43.1z
			 M25.1,10.5c-8.6,0-15.6,6.9-15.6,15.6c0,8.6,7,15.6,15.7,15.6c8.5,0,15.5-7,15.5-15.5C40.8,17.5,33.8,10.5,25.1,10.5z"/>
		<path d="M25.6,36.2c-3.5-0.1-6.5-1.2-8.9-3.7c-0.4-0.4-0.8-0.7-0.3-1.3c0.5-0.5,0.9-0.2,1.4,0.2c1.8,1.7,3.9,2.7,6.3,3.1
			c0.6,0.1,1,0,1.3-0.6c0.8-1.3,1.3-2.7,1.9-4.1c0.4-1,0.8-2.1,1.5-2.9c1.2-1.5,3-2,4.5-1.3c1.7,0.8,2.4,2.5,1.9,4.5
			c-0.5,2-1.7,3.4-3.4,4.4C29.8,35.7,27.7,36.2,25.6,36.2z M29.9,33.7c2-0.8,3.4-2.1,3.8-4.2c0.2-1-0.1-1.8-1-2.3
			c-0.9-0.6-1.7-0.3-2.4,0.3c-0.5,0.4-0.9,0.9-1.1,1.5c-0.8,1.8-1.6,3.7-2.4,5.5c0,0,0.1,0.1,0.1,0.1c0.3,0,0.4-0.3,0.6-0.5
			c1.2-1.3,2.1-2.8,2.6-4.5c0.2-0.5,0.4-1,1.1-0.7c0.6,0.2,0.5,0.7,0.3,1.3C31.2,31.4,30.5,32.5,29.9,33.7z"/>
		<path d="M17.1,20.5c0-1.7,2.4-3.1,4.2-2.4c1,0.4,1.7,1.1,2,2.2c0.1,0.4,0.1,0.8-0.4,1c-0.5,0.2-0.8,0-1-0.5
			c-0.3-0.8-0.8-1.4-1.7-1.4c-0.9,0-1.4,0.6-1.7,1.4c-0.1,0.4-0.5,0.6-0.9,0.4C17.2,21.2,17,20.9,17.1,20.5z"/>
		<path d="M33.8,20.4c0,0.5-0.1,0.8-0.5,0.9c-0.4,0.1-0.7,0-0.8-0.4c-0.1-0.1-0.1-0.3-0.2-0.5c-0.3-0.7-0.8-1-1.6-1
			c-0.7,0-1.3,0.4-1.6,1c-0.2,0.5-0.4,1.1-1.1,0.8c-0.7-0.3-0.5-0.9-0.2-1.5c0.5-1.2,1.7-1.9,3.1-1.8c1.3,0.1,2.4,0.8,2.8,2
			C33.7,20.1,33.8,20.3,33.8,20.4z"/>
	</g>
</g>
</svg>
