<?xml version="1.0" encoding="utf-8"?>
<!-- Generator: Adobe Illustrator 25.4.1, SVG Export Plug-In . SVG Version: 6.00 Build 0)  -->
<svg version="1.1" id="Layer_1" xmlns="http://www.w3.org/2000/svg" xmlns:xlink="http://www.w3.org/1999/xlink" x="0px" y="0px"
	 viewBox="0 0 115.4 115.6" style="enable-background:new 0 0 115.4 115.6;" xml:space="preserve">
<style type="text/css">
	.st0{fill:#C8202F;}
	.st1{fill:#FFFFFF;}
</style>
<g>
	<path class="st0" d="M114,55.3c-4.4-3.8-4.6-8-1.8-12.8c1-1.8,0.7-3.3-1.3-4.2c-5.3-2.3-7.5-6.2-6.3-12c0.4-2-0.3-3.3-2.6-3.6
		c-1.6-0.3-3.1-0.9-4.7-1.3c-1.7-0.4-2.7-1.3-3.1-3c-0.4-1.9-1.1-3.8-1.6-5.8c-0.3-1.2-1-1.9-2.2-1.7c-6.5,1.2-11-1.1-13.6-7.1
		c-0.5-1.1-1.4-1.4-2.6-0.9c-0.9,0.4-1.9,0.5-2.7,1c-3.8,2.3-7,1.5-10.1-1.6c-3.3-3.2-3.8-3.2-7.1,0C50.9,5.5,47.9,5.8,43.8,4
		c-4.7-2.2-4-1.9-6.6,2.2c-2,3.1-3.8,6.2-7.8,4.8c-1.6,0-2.7,0.1-3.7,0c-1.8-0.2-2.9,0.5-3,2.3c-0.5,5.9-3.8,9.1-9.7,9.6
		c-1.7,0.2-2.5,1.2-2.2,2.8c1.2,6.1-1,10.4-6.7,12.8c-1.7,0.8-2,2.1-1.1,3.6c3,5,2.6,9.5-1.9,13.4c-1.6,1.4-1.5,3.2,0,4.5
		c4.6,4,4.7,8.5,1.8,13.5c-0.9,1.6-0.5,2.9,1.2,3.6c5.5,2.5,7.8,6.6,6.6,12.6c-0.3,1.8,0.5,2.9,2.3,3.1c6,0.5,9.1,3.8,9.6,9.6
		c0.2,1.7,1.2,2.5,2.8,2.2c6.1-1.2,10.4,1,12.8,6.7c0.7,1.5,1.9,2.1,3.4,1.2c5.2-3,9.8-2.7,13.9,2c1.3,1.5,2.9,1.4,4.1,0
		c4.1-4.8,8.8-5,13.9-1.9c1.5,0.9,2.7,0.4,3.3-1.1c2.4-5.5,6.4-8,12.5-6.8c1.8,0.4,3-0.4,3.2-2.4c0.6-5.6,3.4-9,9.2-9.3
		c2.1-0.1,2.7-1.5,2.7-3.6c0-9.3-1.6-6.5,6.3-11.9c1.8-1.2,2.3-2.5,1.3-4.3c-2.8-4.8-2.6-9,1.8-12.8C115.9,58.8,115.8,56.8,114,55.3
		z"/>
</g>
<g>
	<path class="st1" d="M38.4,80.9c-1.4-0.1-2.7-0.9-3.4-2.5c-0.7-1.6-0.5-3.1,0.6-4.5c0.2-0.2,0.3-0.4,0.5-0.6
		c12.4-12.4,24.8-24.8,37.2-37.2c1.7-1.7,4-2,5.8-0.6c2,1.5,2.3,4.3,0.7,6.2c-0.2,0.3-0.4,0.5-0.7,0.7C66.8,54.7,54.5,67,42.2,79.3
		C41.2,80.3,40.1,80.9,38.4,80.9z"/>
	<path class="st1" d="M69.8,80.9c-6,0-10.9-4.9-10.9-10.9c0-6,4.9-11,10.9-11c6,0,10.9,4.9,10.9,11C80.7,76,75.9,80.9,69.8,80.9z
		 M69.8,74.8c2.7,0,4.9-2.2,4.9-4.9c0-2.7-2.2-4.8-4.9-4.8c-2.7,0-4.9,2.2-4.9,4.9C65,72.7,67.1,74.8,69.8,74.8z"/>
	<path class="st1" d="M45.5,34.7c6,0,10.9,4.9,10.9,10.9c0,6-4.9,11-11,11c-6,0-10.9-4.9-10.9-10.9C34.6,39.5,39.4,34.7,45.5,34.7z
		 M45.5,40.7c-2.7,0-4.9,2.2-4.9,4.9c0,2.7,2.2,4.9,4.9,4.8c2.7,0,4.8-2.2,4.8-4.9C50.4,42.8,48.2,40.7,45.5,40.7z"/>
</g>
</svg>
