<?xml version="1.0" encoding="utf-8"?>
<!-- Generator: Adobe Illustrator 26.0.1, SVG Export Plug-In . SVG Version: 6.00 Build 0)  -->
<svg version="1.1" id="Layer_1" xmlns="http://www.w3.org/2000/svg" xmlns:xlink="http://www.w3.org/1999/xlink" x="0px" y="0px"
	 viewBox="0 0 62 26.6" style="enable-background:new 0 0 62 26.6;" xml:space="preserve">
<style type="text/css">
	.st0{fill:#3D3D3D;}
</style>
<path class="st0" d="M7.6,7.3v3.5h7.3V18H7.5v8.6H0V0h16l0.5,7.3H7.6z M61.3,0h-8L50,5.7L46.6,0h-8.3l7.4,12.8l-7.9,13.7h8.1
	l3.8-6.7l3.9,6.7H62l-8-13.8L61.3,0z M16.3,13.3C16.3,6.2,22,0.4,29,0.4s12.7,5.8,12.7,12.9s-5.7,13-12.7,13S16.3,20.5,16.3,13.3z
	 M31.3,18.7V8c0-1.2-1-2.3-2.3-2.3c-1.2,0.1-2.2,1.1-2.1,2.3v10.6c0,1.2,0.9,2.2,2.1,2.2C30.3,20.8,31.3,19.9,31.3,18.7z"/>
</svg>
