<?xml version="1.0" encoding="utf-8"?>
<!-- Generator: Adobe Illustrator 26.0.1, SVG Export Plug-In . SVG Version: 6.00 Build 0)  -->
<svg version="1.1" id="Layer_1" xmlns="http://www.w3.org/2000/svg" xmlns:xlink="http://www.w3.org/1999/xlink" x="0px" y="0px"
	 viewBox="0 0 75.2 13.7" style="enable-background:new 0 0 75.2 13.7;" xml:space="preserve">
<style type="text/css">
	.st0{fill:#3D3D3D;}
</style>
<g>
	<g>
		<path class="st0" d="M10.4,4.9l0-0.2H5.1v2h3.3C8.3,7,8,7.5,7.7,7.8c-0.6,0.6-1.4,1-2.3,0.9l0,0c-1.7,0-3.2-1.5-3.3-3.3l0,0
			c0-0.9,0.3-1.7,0.9-2.4C3.6,2.4,4.5,2,5.4,2l0,0c0.8,0,1.7,0.3,2.3,0.9l0.2,0.2l1.4-1.4L9.1,1.5C8.1,0.5,6.8,0,5.4,0
			C3.9,0,2.6,0.6,1.6,1.6C0.6,2.6,0,3.9,0,5.4c0,1.4,0.6,2.8,1.6,3.8c1,1,2.4,1.6,3.8,1.6c0.1,0,0.2,0,0.4,0c1.3,0,2.5-0.5,3.4-1.5
			l0,0c0.9-0.9,1.3-2.2,1.3-3.5C10.4,5.5,10.4,5.2,10.4,4.9z"/>
		<path class="st0" d="M16.7,4.6c-0.7-0.7-1.5-1-2.5-1c-0.9,0-1.8,0.4-2.5,1c-0.7,0.7-1,1.5-1,2.4c0,1,0.3,1.9,1,2.5
			c0.7,0.7,1.5,1,2.5,1c0,0,0.1,0,0.1,0c0.9,0,1.8-0.3,2.4-1c0.7-0.7,1-1.5,1-2.5c0,0,0,0,0-0.1l0,0C17.7,6.1,17.4,5.3,16.7,4.6z
			 M13.2,5.9c0.3-0.3,0.7-0.4,1.1-0.4l0,0c0.4,0,0.7,0.2,1,0.5c0.3,0.3,0.4,0.7,0.4,1.1l0,0v0.3c0,0.4-0.2,0.7-0.5,1
			c-0.3,0.3-0.7,0.4-1.1,0.4l0,0c-0.4,0-0.7-0.2-1-0.5c-0.3-0.3-0.4-0.7-0.4-1.1l0,0V6.9C12.7,6.5,12.9,6.1,13.2,5.9z"/>
		<path class="st0" d="M24,4.6c-0.7-0.7-1.5-1-2.5-1c-0.9,0-1.8,0.4-2.5,1c-0.7,0.7-1,1.5-1,2.4c0,1,0.3,1.9,1,2.5
			c0.7,0.7,1.5,1,2.5,1c0,0,0.1,0,0.1,0c0.9,0,1.8-0.3,2.4-1c0.7-0.7,1-1.5,1-2.5c0,0,0,0,0-0.1l0,0C25,6.1,24.7,5.3,24,4.6z
			 M20.5,5.9c0.3-0.3,0.7-0.4,1.1-0.4l0,0c0.4,0,0.7,0.2,1,0.5c0.3,0.3,0.4,0.7,0.4,1.1l0,0.1l0,0.1c0,0,0,0.1,0,0.1l0,0l0,0.1
			c0,0.4-0.2,0.7-0.5,1c-0.3,0.3-0.7,0.4-1.1,0.4l0,0c-0.4,0-0.7-0.2-1-0.5C20.1,8,20,7.6,20,7.2l0,0V6.9C20,6.5,20.2,6.1,20.5,5.9z
			"/>
		<path class="st0" d="M30.4,4c-0.5-0.3-1-0.4-1.5-0.4c-2,0-3.6,1.6-3.6,3.6c0,2,1.6,3.6,3.6,3.6c0.5,0,1.1-0.2,1.5-0.5
			c0,0.5-0.1,0.9-0.4,1.1c-0.2,0.3-0.6,0.4-1.1,0.4c-0.6,0-1.1-0.4-1.4-1l-0.1-0.3l-1.8,0.8l0.1,0.3c0.3,0.6,0.7,1.1,1.3,1.5
			c0.6,0.4,1.2,0.6,1.9,0.6c1,0,1.8-0.3,2.4-0.9c0.7-0.6,1-1.6,1-2.8V3.8l-2-0.1V4z M30.5,7.5c-0.1,0.7-0.7,1.3-1.4,1.3h0
			c-0.4,0-0.8-0.2-1.1-0.5c-0.3-0.3-0.4-0.7-0.4-1.1l0,0l0,0c0-0.4,0.1-0.8,0.4-1.1c0.3-0.3,0.7-0.5,1.1-0.5h0
			c0.4,0,0.8,0.2,1.1,0.6c0.3,0.3,0.4,0.7,0.3,1.1L30.5,7.5L30.5,7.5z"/>
		<rect x="32.8" y="0.3" class="st0" width="2" height="10.2"/>
		<path class="st0" d="M40,8.1c-0.3,0.5-0.8,0.8-1.4,0.8l0,0c-0.4,0-0.9-0.2-1.1-0.5l4.3-1.8l-0.3-0.6c-0.2-0.6-0.6-1.2-1.2-1.6
			c-0.6-0.4-1.2-0.6-1.9-0.7l0,0c-0.9,0-1.8,0.4-2.4,1c-0.6,0.7-1,1.6-1,2.6v0.2l0,0c0.1,1.9,1.6,3.4,3.5,3.4c0.6,0,1.2-0.1,1.7-0.4
			c0.5-0.3,1-0.7,1.3-1.2l0.2-0.2l-1.6-1.1L40,8.1z M39.3,5.8l-2.1,0.9c0.1-0.3,0.2-0.5,0.4-0.7c0.3-0.3,0.6-0.4,1-0.4
			C38.9,5.5,39.1,5.6,39.3,5.8z"/>
	</g>
	<g>
		<polygon class="st0" points="49.2,6.1 49.2,7 44.9,0.1 42.9,0.1 42.9,10.5 44.7,10.5 44.7,4.1 44.7,3.2 49.2,10.5 51,10.5 51,0.1 
			49.2,0.1 		"/>
		<path class="st0" d="M55.3,2.9c-1,0-2,0.4-2.6,1.2c-0.6,0.8-1,1.7-1,2.7c-0.1,1,0.3,2,1,2.8l0,0c0.8,0.8,1.7,1.2,2.7,1.1
			c0.1,0,0.2,0,0.3,0c0.6,0,1.2-0.2,1.8-0.5c0.5-0.3,0.9-0.8,1.2-1.4l0.1-0.3l-1.7-0.7L57,8c-0.2,0.6-0.9,1-1.5,0.9l0,0
			c-0.4,0-0.8-0.2-1.2-0.5c-0.3-0.3-0.5-0.7-0.5-1.1h5.2V6.8c0.1-1.1-0.3-2.1-1-2.8C57.2,3.2,56.3,2.9,55.3,2.9z M56.9,5.8h-3.1
			c0.1-0.3,0.3-0.5,0.5-0.7c0.4-0.2,0.7-0.4,1-0.4c0.5,0,0.9,0.1,1.2,0.5C56.7,5.4,56.8,5.6,56.9,5.8z"/>
		<polygon class="st0" points="67.5,3.2 66.2,7.6 64.8,3.2 63.1,3.2 61.6,7.6 60.3,3.2 58.4,3.2 60.7,10.5 62.4,10.5 63.9,6.1 
			65.3,10.5 67.1,10.5 69.5,3.2 		"/>
		<path class="st0" d="M74.7,7L74.7,7c-0.5-0.5-1-0.7-1.6-0.9l-1.3-0.3l0,0c-0.2,0-0.7-0.2-0.7-0.5c0-0.2,0.1-0.3,0.2-0.4l0,0
			c0.2-0.1,0.5-0.2,0.8-0.2l0,0c0.5,0,1.1,0.2,1.2,0.7l0.1,0.3L75.1,5L75,4.7c-0.2-0.6-0.6-1.1-1.2-1.4c-1.2-0.6-2.7-0.5-3.7,0.2
			c-0.6,0.4-0.9,1-0.9,1.7c0,0.6,0.3,1.2,0.7,1.5c0.3,0.3,0.8,0.5,1.3,0.6l1.4,0.4c0.7,0.2,0.7,0.5,0.7,0.6c0,0.2-0.1,0.4-0.2,0.4
			l0,0C72.8,8.9,72.6,9,72.3,9l0,0c-0.7,0-1.3-0.4-1.5-1l-0.1-0.3l-1.7,0.7L69,8.6c0.3,0.6,0.7,1.1,1.2,1.5l0,0
			c0.6,0.4,1.3,0.6,2,0.6c0.1,0,0.1,0,0.2,0c0.6,0,1.3-0.2,2-0.6l0,0l0,0c0.5-0.4,0.8-1.1,0.8-1.7C75.2,7.9,75.1,7.4,74.7,7z"/>
	</g>
</g>
</svg>
