<?xml version="1.0" encoding="utf-8"?>
<!-- Generator: Adobe Illustrator 26.0.3, SVG Export Plug-In . SVG Version: 6.00 Build 0)  -->
<svg version="1.1" id="Layer_1" xmlns="http://www.w3.org/2000/svg" xmlns:xlink="http://www.w3.org/1999/xlink" x="0px" y="0px"
	 viewBox="0 0 103.5 103.5" style="enable-background:new 0 0 103.5 103.5;" xml:space="preserve">
<style type="text/css">
	.st0{fill:#010101;}
</style>
<g>
	<g>
		<g>
			<path class="st0" d="M51.8,103.5c-13.8,0-26.8-5.4-36.6-15.2S0,65.6,0,51.8s5.4-26.8,15.2-36.6S37.9,0,51.8,0s26.8,5.4,36.6,15.2
				s15.2,22.8,15.2,36.6s-5.4,26.8-15.2,36.6S65.6,103.5,51.8,103.5z M51.8,2.5C24.6,2.5,2.5,24.6,2.5,51.8S24.6,101,51.8,101
				S101,78.9,101,51.8S78.9,2.5,51.8,2.5z"/>
		</g>
	</g>
	<g>
		<g>
			<path class="st0" d="M61.3,36.1c-0.5,0-1-0.3-1.2-0.9c-0.1-0.3-1.9-6.3,1.3-12c3.3-5.7,9.4-7.1,9.7-7.1c0.6-0.1,1.3,0.2,1.5,0.9
				c0.1,0.3,1.9,6.3-1.3,12C68,34.6,61.9,36,61.6,36C61.5,36.1,61.4,36.1,61.3,36.1z M70.5,18.9c-1.7,0.7-4.9,2.3-6.8,5.6
				c-1.9,3.3-1.7,6.9-1.4,8.7c1.7-0.7,4.9-2.3,6.8-5.6C71,24.3,70.8,20.8,70.5,18.9z"/>
		</g>
	</g>
	<g>
		<g>
			<path class="st0" d="M55.3,45.8c-0.3,0-0.6-0.1-0.9-0.4c-0.2-0.2-4.8-4.7-5.1-11.4C49,27.4,53.4,23.1,53.6,23
				c0.5-0.5,1.3-0.5,1.7,0c0.2,0.2,4.8,4.7,5.1,11.4c0.3,6.7-4.1,10.9-4.3,11.1C55.9,45.7,55.6,45.8,55.3,45.8z M54.5,25.8
				c-1.1,1.5-2.8,4.4-2.7,8.2c0.2,4,2.2,7.1,3.4,8.6c1.1-1.5,2.8-4.4,2.7-8.2C57.8,30.4,55.7,27.3,54.5,25.8z"/>
		</g>
	</g>
	<g>
		<g>
			<path class="st0" d="M48.2,58c-0.3,0-0.6-0.1-0.9-0.4c-0.2-0.2-4.8-4.7-5.1-11.4c-0.3-6.7,4.1-10.9,4.3-11.1
				c0.5-0.5,1.3-0.5,1.7,0c0.2,0.2,4.8,4.7,5.1,11.4c0.3,6.7-4.1,10.9-4.3,11.1C48.8,57.9,48.5,58,48.2,58z M47.4,38
				c-1.1,1.5-2.8,4.4-2.7,8.2c0.2,4,2.2,7.1,3.4,8.6c1.1-1.5,2.8-4.4,2.7-8.2C50.7,42.7,48.6,39.6,47.4,38z"/>
		</g>
	</g>
	<g>
		<g>
			<path class="st0" d="M60.2,46.7c-2.6,0-4.5-0.5-4.6-0.6c-0.6-0.2-1-0.9-0.9-1.5c0.1-0.3,1.6-6.2,7.5-9.3
				c5.9-3.1,12.1-1.3,12.4-1.3c0.6,0.2,1,0.9,0.9,1.5c-0.1,0.3-1.6,6.2-7.5,9.3C65.3,46.3,62.5,46.7,60.2,46.7z M55.9,44.9
				L55.9,44.9L55.9,44.9z M57.6,44c1.9,0.3,5.7,0.5,9.2-1.3c3.4-1.8,5.1-4.8,5.8-6.4c-1.9-0.3-5.7-0.5-9.2,1.3
				C60,39.3,58.3,42.3,57.6,44z"/>
		</g>
	</g>
	<g>
		<g>
			<path class="st0" d="M53.1,58.9c-2.6,0-4.5-0.5-4.6-0.6c-0.6-0.2-1-0.9-0.9-1.5c0.1-0.2,1.6-6.2,7.5-9.3
				c5.9-3.1,12.1-1.3,12.4-1.3c0.6,0.2,1,0.9,0.9,1.5c-0.1,0.3-1.6,6.2-7.5,9.3C58.2,58.5,55.4,58.9,53.1,58.9z M48.9,57.1
				L48.9,57.1L48.9,57.1z M50.5,56.2c1.9,0.3,5.7,0.5,9.2-1.3c3.4-1.8,5.1-4.8,5.8-6.4c-1.9-0.3-5.7-0.5-9.2,1.3
				C52.9,51.6,51.3,54.5,50.5,56.2z"/>
		</g>
	</g>
	<g>
		<g>
			<path class="st0" d="M41.1,70.3c-0.3,0-0.6-0.1-0.9-0.3c-0.2-0.2-4.9-4.7-5.1-11.4c-0.3-6.7,4.1-10.9,4.3-11.1
				c0.5-0.5,1.3-0.5,1.7,0c0.2,0.2,4.8,4.7,5.1,11.4c0.3,6.7-4.1,10.9-4.3,11.1C41.8,70.1,41.4,70.3,41.1,70.3z M40.4,50.3
				c-1.1,1.5-2.8,4.4-2.7,8.2c0.1,3.9,2.2,7.1,3.4,8.6c1.1-1.5,2.8-4.4,2.7-8.2C43.6,54.9,41.6,51.8,40.4,50.3z"/>
		</g>
	</g>
	<g>
		<g>
			<path class="st0" d="M46.1,71.2c-2.6,0-4.5-0.5-4.6-0.6c-0.6-0.2-1-0.9-0.9-1.5c0.1-0.3,1.6-6.2,7.5-9.3
				c5.9-3.1,12.1-1.3,12.4-1.3c0.6,0.2,1,0.9,0.9,1.5c-0.1,0.3-1.6,6.2-7.5,9.3C51.1,70.8,48.3,71.2,46.1,71.2z M41.8,69.4
				L41.8,69.4L41.8,69.4z M43.5,68.5c1.9,0.3,5.7,0.5,9.2-1.3c3.4-1.8,5.1-4.8,5.8-6.4c-1.9-0.3-5.7-0.5-9.2,1.3
				C45.8,63.8,44.2,66.8,43.5,68.5z"/>
		</g>
	</g>
	<g>
		<g>
			<path class="st0" d="M34.1,82.5c-0.3,0-0.6-0.1-0.9-0.4c-0.2-0.2-4.8-4.7-5.1-11.4c-0.3-6.7,4.1-10.9,4.3-11.1
				c0.5-0.5,1.3-0.5,1.7,0c0.2,0.2,4.8,4.7,5.1,11.4c0.3,6.7-4.1,10.9-4.3,11.1C34.7,82.4,34.4,82.5,34.1,82.5z M33.3,62.5
				c-1.1,1.5-2.8,4.4-2.7,8.2c0.2,4,2.2,7.1,3.4,8.6c1.1-1.5,2.8-4.4,2.7-8.2C36.6,67.2,34.5,64.1,33.3,62.5z"/>
		</g>
	</g>
	<g>
		<g>
			<path class="st0" d="M39,83.4c-2.6,0-4.5-0.5-4.6-0.6c-0.6-0.2-1-0.9-0.9-1.5c0.1-0.3,1.6-6.2,7.5-9.3c5.9-3.1,12.1-1.3,12.4-1.3
				c0.6,0.2,1,0.9,0.9,1.5c-0.1,0.3-1.6,6.2-7.5,9.3C44,83,41.2,83.4,39,83.4z M34.7,81.6L34.7,81.6L34.7,81.6z M36.4,80.7
				c1.9,0.3,5.7,0.5,9.2-1.3c3.4-1.8,5.1-4.8,5.8-6.4c-1.9-0.3-5.7-0.5-9.2,1.3C38.8,76.1,37.1,79,36.4,80.7z"/>
		</g>
	</g>
	<g>
		<g>
			<path class="st0" d="M31,88.6c-0.2,0-0.4-0.1-0.6-0.2c-0.6-0.3-0.8-1.1-0.5-1.7l30.3-52.5c0.3-0.6,1.1-0.8,1.7-0.5
				c0.6,0.3,0.8,1.1,0.5,1.7L32.1,87.9C31.9,88.3,31.5,88.6,31,88.6z"/>
		</g>
	</g>
	<g>
		<g>
			<path class="st0" d="M87.5,88.7c-0.3,0-0.6-0.1-0.9-0.4L15.2,17c-0.5-0.5-0.5-1.3,0-1.8c0.5-0.5,1.3-0.5,1.8,0l71.4,71.4
				c0.5,0.5,0.5,1.3,0,1.8C88.1,88.6,87.8,88.7,87.5,88.7z"/>
		</g>
	</g>
</g>
</svg>
