<?xml version="1.0" encoding="utf-8"?>
<!-- Generator: Adobe Illustrator 25.4.1, SVG Export Plug-In . SVG Version: 6.00 Build 0)  -->
<svg version="1.1" id="Layer_1" xmlns="http://www.w3.org/2000/svg" xmlns:xlink="http://www.w3.org/1999/xlink" x="0px" y="0px"
	 viewBox="0 0 16 16" style="enable-background:new 0 0 16 16;" xml:space="preserve">
<style type="text/css">
	.st0{fill-rule:evenodd;clip-rule:evenodd;fill:#29AF5C;}
	.st1{fill-rule:evenodd;clip-rule:evenodd;fill:#FFFFFF;}
</style>
<g id="check-testimonials_00000042697684178420384340000001476562721563113913_">
	<g id="check-testimonials">
		<path id="Oval-Copy-6" class="st0" d="M8,16c4.4,0,8-3.6,8-8c0-4.4-3.6-8-8-8C3.6,0,0,3.6,0,8C0,12.4,3.6,16,8,16z"/>
		<g id="_x30_02-correct-symbol" transform="translate(3.3333333 5.3333335)">
			<path id="Path" class="st1" d="M8.2,0.8L7.5,0.1C7.4,0,7.2,0,7.1,0C7,0,6.8,0,6.7,0.1L3.2,3.5L1.6,2C1.5,1.9,1.4,1.8,1.3,1.8
				C1.1,1.8,1,1.9,0.9,2L0.2,2.7C0.1,2.7,0,2.9,0,3c0,0.1,0.1,0.2,0.2,0.3l2,1.8l0.7,0.7C2.9,5.9,3.1,6,3.2,6c0.1,0,0.3,0,0.4-0.1
				l0.7-0.7l3.9-3.6c0.1-0.1,0.2-0.2,0.2-0.3C8.4,1,8.3,0.9,8.2,0.8z"/>
		</g>
	</g>
</g>
</svg>
