<?xml version="1.0" encoding="utf-8"?>
<!-- Generator: Adobe Illustrator 26.0.1, SVG Export Plug-In . SVG Version: 6.00 Build 0)  -->
<svg version="1.1" id="Layer_1" xmlns="http://www.w3.org/2000/svg" xmlns:xlink="http://www.w3.org/1999/xlink" x="0px" y="0px"
	 viewBox="0 0 50 50" style="enable-background:new 0 0 50 50;" xml:space="preserve">
<g>
	<path d="M43.8,21.3H7.5c-1.1,0-2.1-0.9-2.1-2.1v0c0-1.1,0.9-2.1,2.1-2.1h36.3c1.1,0,2.1,0.9,2.1,2.1v0C45.9,20.4,45,21.3,43.8,21.3
		z"/>
	<path d="M43.8,32.8H7.5c-1.1,0-2.1-0.9-2.1-2.1v0c0-1.1,0.9-2.1,2.1-2.1h36.3c1.1,0,2.1,0.9,2.1,2.1v0C45.9,31.9,45,32.8,43.8,32.8
		z"/>
</g>
</svg>
