<?xml version="1.0" encoding="utf-8"?>
<!-- Generator: Adobe Illustrator 16.0.0, SVG Export Plug-In . SVG Version: 6.00 Build 0)  -->
<!DOCTYPE svg PUBLIC "-//W3C//DTD SVG 1.1//EN" "http://www.w3.org/Graphics/SVG/1.1/DTD/svg11.dtd">
<svg version="1.1" id="Layer_1_2_" xmlns="http://www.w3.org/2000/svg" xmlns:xlink="http://www.w3.org/1999/xlink" x="0px" y="0px"
	 width="107px" height="107px" viewBox="0 0 107 107" enable-background="new 0 0 107 107" xml:space="preserve">
<g id="Ellipse">
	<g>
		<circle fill-rule="evenodd" clip-rule="evenodd" fill="#FEFFEB" cx="53.5" cy="53.5" r="53.5"/>
	</g>
</g>
<g id="Composite_Path">
	<g>
		<path fill-rule="evenodd" clip-rule="evenodd" fill="#181818" d="M67.621,38.318c-1.584,0-6.812,1.921-6.812,2.881
			c0,0.32,0.317,0.96,0.476,1.44c-0.951,0.32-2.693,0.96-3.01,0.96c-0.476,0-5.387-2.88-5.703-2.88c-0.951,0-3.327,6.081-4.119,6.4
			c-0.95,0.32-1.901,0.32-2.851,0.32c-0.792-1.601-1.268-4.001-2.06-5.281c-1.426,0.16-6.812,1.44-6.812,2.561
			c0,0.48,0.317,1.12,0.475,1.601c-0.475,0.16-1.267-0.16-1.901,0.641v11.042c0,2.721,2.693,9.282,6.178,9.602
			c0.317,0,0.317,0.32,0.792,0.32h20.91c0.475,0,1.426-0.48,2.06-0.8c3.485-1.921,4.276-5.762,4.911-8.643V44.24
			C70.156,43.76,68.572,40.239,67.621,38.318z M38.632,45.521c1.109-0.48,2.376-0.801,3.485-1.28h0.634
			c0.159,0.8,0.475,1.76,0.792,3.2C41.642,46.961,38.79,47.761,38.632,45.521z M55.424,51.121l-5.228-2.88
			c0.792-1.761,1.901-3.682,2.852-5.441c1.743,0.96,3.485,1.92,5.228,2.881L55.424,51.121z M63.027,42.479
			c0-0.16-0.158-0.16-0.158-0.479c0-0.48,2.534-1.28,3.802-1.761c0.316,0.96,0.792,2.08,1.108,3.041
			C66.195,42.8,64.611,42.319,63.027,42.479z"/>
	</g>
</g>
<g id="Composite_Path_1_">
	<g>
		<path fill-rule="evenodd" clip-rule="evenodd" fill="#181818" d="M81.244,72.086H69.363c1.268-1.601,2.219-3.521,3.645-4.642
			c0.633-0.8,1.9-1.28,3.01-1.76c6.969-3.681,12.672-9.762,12.672-15.684c0-4.801-3.01-9.602-9.029-9.602
			c-0.316,0-3.168,0.64-3.643,0.64c-0.317,0-0.159,0-0.317-0.16c0.792-2.08-1.426-6.561-3.96-6.081c-2.377,0-2.693,0-2.852-0.16
			c2.218-1.92,2.534-4.001,2.534-5.601c0-4.642-3.485-6.722-7.445-6.722c-5.386,0-11.564,6.562-16.633,6.562
			c-0.634,0-1.426,0.16-2.218,0.32h-3.01c-2.534,0-7.92,2.08-8.237,5.44c-0.633,0.32-1.426,0.32-1.742,0.641
			c-1.109,0.479-1.901,2.08-2.376,3.36v19.685c0,3.681,2.852,10.242,6.336,13.603l-11.564,0.16c-1.426,0.319-2.218,1.44-2.218,2.721
			c0,3.36,2.693,7.521,7.287,8.161h46.256c2.693,0,6.653-3.681,6.97-6.241c0.158-0.64,0.317-1.44,0.317-1.761
			C83.146,73.686,82.828,72.726,81.244,72.086z M75.858,48.721c0.95-0.8,2.852-1.44,3.802-1.44c1.901,0,2.06,1.601,2.06,2.561
			c0,2.881-2.692,5.441-5.861,7.842V48.721z M75.7,60.083c0.476-0.96,2.06-1.44,3.01-2.24c3.327-2.561,4.911-5.441,4.911-8.002
			c0-2.721-1.426-4.48-3.961-4.48c-1.108,0-3.01,0.64-3.802,1.12v-3.36c0.476-0.48,3.169-0.961,3.802-0.961
			c4.911,0,7.287,4.161,7.287,7.682c0,6.082-6.02,11.043-12.515,14.884C74.908,63.284,74.908,61.363,75.7,60.083z M66.354,71.926
			H38.949c-3.96-2.24-7.445-10.082-7.445-13.603V38.799c0.475-1.12,0.95-2.08,2.376-2.24h37.543c0.317,0,2.534,0.96,2.534,1.92
			v20.484c-0.316,1.921-0.791,3.681-1.584,5.441c-0.475,1.12-1.108,2.24-1.9,3.36C70.314,68.085,67.146,71.926,66.354,71.926z"/>
	</g>
</g>
</svg>
