<?xml version="1.0" encoding="utf-8"?>
<!-- Generator: Adobe Illustrator 25.4.1, SVG Export Plug-In . SVG Version: 6.00 Build 0)  -->
<svg version="1.1" id="Layer_1" xmlns="http://www.w3.org/2000/svg" xmlns:xlink="http://www.w3.org/1999/xlink" x="0px" y="0px"
	 viewBox="0 0 150 150" style="enable-background:new 0 0 150 150;" xml:space="preserve">
<style type="text/css">
	.st0{fill:none;stroke:#010101;stroke-width:2;stroke-miterlimit:10;}
</style>
<g>
	<path d="M75.2,24.8c2.7,0,5.5,0,8.2,0c0.9,0,2-0.1,2,1.2c0,1.1-1,1-1.8,1c-0.2,0-0.5,0-0.7,0c-7.1,0.2-7,0.2-6.7,7.2
		c0.1,1.5,0.3,2.2,2.1,2.3c9.5,0.5,17.9,4,25.2,10.1c1.8,1.5,2.8,1.5,4.4-0.3c1.8-2.1,3.8-3.9,5.7-5.8c0.7-0.7,1.5-1.3,2.3-0.3
		c0.7,0.8,0.1,1.5-0.5,2.1c-1.7,1.7-3.3,3.5-5.1,5c-2.4,1.9-2.6,3.3-0.5,5.9c13.4,16.7,13.2,40.1-0.7,56.2
		c-12.5,14.4-28.4,19.1-46.8,14c-16.7-4.6-29.2-19.6-31.3-36.8c-1.6-12.9,1.8-24.3,10-34.3c1.5-1.8,1.6-2.8-0.2-4.3
		c-2.1-1.8-3.9-3.8-5.8-5.8c-0.6-0.6-1.4-1.2-0.7-2c0.8-0.9,1.6-0.5,2.3,0.3c2.1,2.1,4.2,4.2,6.3,6.3c1.1,1.1,1.8,1.6,3.3,0.3
		c7.4-6.5,16.1-10.1,26-10.6c1-0.1,1.9-0.2,1.9-1.4c0-2.2,0-4.3,0-6.5c0-1.2-0.7-1.5-1.8-1.5c-1.6,0-3.2,0.1-4.8,0
		c-1-0.1-2.7,0.7-2.6-1.1c0.1-1.7,1.8-1,2.8-1C70,24.7,72.6,24.8,75.2,24.8z M74.7,122.6c22,0.8,42.3-17.8,42.3-42.1
		c0-23-19.1-42-42.4-41.9c-24.5,0.1-42.2,21-41.7,42.5C33.4,104.1,51.6,122.6,74.7,122.6z"/>
	<path d="M74.7,117.4c-20.4-0.1-36.4-16.3-36.4-36.8c0-20.5,16.4-36.8,37-36.7c20.3,0.1,36.6,16.7,36.5,37.2
		C111.7,101.2,95,117.5,74.7,117.4z M93.8,62.3c-0.2-0.2-0.3-0.3-0.5-0.5c-7.2,4.7-14.5,9.3-21.7,14c-2.2,1.4-2.7,3.6-2.2,6
		c0.5,2.3,2.1,3.9,4.3,4.4c2.5,0.6,4.7-0.1,6.2-2.4C84.6,76.6,89.2,69.4,93.8,62.3z"/>
</g>
<circle class="st0" cx="75" cy="75" r="72.6"/>
</svg>
