<?xml version="1.0" encoding="utf-8"?>
<!-- Generator: Adobe Illustrator 25.4.1, SVG Export Plug-In . SVG Version: 6.00 Build 0)  -->
<svg version="1.1" id="Layer_1" xmlns="http://www.w3.org/2000/svg" xmlns:xlink="http://www.w3.org/1999/xlink" x="0px" y="0px"
	 viewBox="0 0 150 150" style="enable-background:new 0 0 150 150;" xml:space="preserve">
<style type="text/css">
	.st0{fill:none;stroke:#000000;stroke-width:2;stroke-miterlimit:10;}
</style>
<circle class="st0" cx="75" cy="75" r="72.6"/>
<g>
	<path d="M59.5,67.3c1.2,0.1,2.6-0.1,3.7,0.3c3.3,1.4,5.9,0.2,8.7-1.6c11.2-7,22.5-13.9,33.7-20.9c5.7-3.5,12.7-1.9,15.7,3.7
		c3.1,5.8,1,12.3-5.1,15.3c-12.7,6.3-25.4,12.7-38.2,19c-1.3,0.7-2.4,1.4-2.6,3c-0.1,0.6-0.2,1.2-0.5,1.6c-3.3,4.5-3.5,10-5.3,15
		c-0.6,1.7-0.6,3.6-1.4,5.3c-2.8,6.6-10,10.3-17,8.6c-7.2-1.8-11.9-8.1-11.2-15.5c0.1-0.9,0.1-1.5-0.7-2.2
		c-4.6-3.8-5.1-8.9-3.4-14.1C39.1,74.8,49.2,66.7,59.5,67.3z M59.4,69c-9.6,0-19.6,7.7-21.9,17c-1,3.9-0.9,7.8,2.3,10.6
		c2,1.7,2.3,3.4,2.2,5.7c-0.2,6.7,4.9,12.1,12,12.9c5.7,0.7,12.2-4.1,13.3-10.1c0.7-3.7,3.2-7,2.1-11.1c-0.1-0.4,0.5-1,0.9-1.5
		c2-2.5,3.3-5.4,3.9-8.5c0.2-1,0.6-1.4,1.4-1.8c7.4-3.6,14.7-7.3,22.1-11c6-3,12.1-5.9,18-9c5.8-3,6.9-10.1,2.4-14.7
		c-3-3.1-7.4-3.6-11.4-1.1c-12.5,7.7-24.9,15.3-37.3,23.1c-1.2,0.8-2.3,1-3.7,0.4C63.8,69.3,61.6,68.9,59.4,69z"/>
	<path d="M59.6,72.3c2.3-0.2,4.7,0.2,6.9,1.6c1.4,0.8,2.2-0.1,3.1-0.6c12.4-7.7,24.9-15.4,37.3-23.1c1.2-0.7,2.3-1.6,3.8-1.8
		c3.2-0.4,5.8,1.1,6.7,3.9c1,3-0.1,5.8-3.1,7.3c-6.2,3.2-12.5,6.2-18.7,9.3c-7.3,3.6-14.5,7.3-21.9,10.8c-1.7,0.8-2.5,1.9-2.7,3.7
		c-0.1,2.1-1.2,4-2.2,5.8c-0.5,0.8-0.9,1.2-1.8,0.2c-1.7-1.9-3.8-2.9-6.3-3c-1.3,0-1.6-1.1-2.1-1.8c-2.2-3.1-5.1-3.2-7.3-0.1
		c-2.3,3.2-4.4,6.4-6.5,9.7c-1,1.6-1.7,1.3-2.8,0.1c-2-2.2-1.9-4.8-1.3-7.3C42.5,78.8,50.8,72.3,59.6,72.3z"/>
	<path d="M45.8,102.1c-0.1-1.8,0.4-3.4,1.4-4.9c2.1-3.2,4.3-6.3,6.4-9.5c1.1-1.8,1.6-1.2,2.5,0.1c1.1,1.4,1.4,2.4-0.1,3.9
		c-2.5,2.7-2.2,7.4,0.3,10c1.6,1.7,3.6,2.7,6,1.6c1.3-0.6,1.6-0.2,1.2,1.2c-1,4.2-5.3,7.3-9.5,6.9C49.2,110.9,45.8,107.1,45.8,102.1
		z"/>
	<path d="M65.8,96.4c0.1,3-2.6,6.1-5.4,6.1c-2.7,0-5-2.7-5-6c0-3.2,2.3-6,5-6.1C63.2,90.2,65.7,93,65.8,96.4z M60.6,99.7
		c1.7-2.4,0-4.4-0.7-6.6C60,95.3,60.7,97.5,60.6,99.7z"/>
</g>
</svg>
