<?xml version="1.0" encoding="utf-8"?>
<!-- Generator: Adobe Illustrator 25.4.1, SVG Export Plug-In . SVG Version: 6.00 Build 0)  -->
<svg version="1.1" id="Layer_1" xmlns="http://www.w3.org/2000/svg" xmlns:xlink="http://www.w3.org/1999/xlink" x="0px" y="0px"
	 viewBox="0 0 150 150" style="enable-background:new 0 0 150 150;" xml:space="preserve">
<style type="text/css">
	.st0{fill:none;stroke:#000000;stroke-width:2;stroke-miterlimit:10;}
</style>
<g>
	<path d="M73.4,115.1c10.8,0,21.6,0,32.4,0c2.4,0,4.6,0.3,5.3,2.8c0.7,2.7-1.6,3.8-3.5,4.8c-2,1.1-4.3,1.5-6.6,1.5
		c-18.4,0-36.8,0-55.2,0c-2.6,0-5-0.7-7.2-1.9c-1.8-1-3.6-2.1-2.9-4.5c0.6-2.2,2.5-2.8,4.6-2.8c3.1,0,6.2,0,9.3,0
		C57.6,115.1,65.5,115.1,73.4,115.1z"/>
	<path d="M73.4,61.9c9.3,0,18.6,0,27.9,0c2.8,0,4.8,0.7,5,3.8c0.2,2.4,1.9,1.8,3.3,1.8c9.4,0.1,15.5,5.2,17,14.2
		c0.6,3.4-0.5,6.6-2.2,9.5c-4.8,8.1-12.1,12.3-21.3,13.5c-1.3,0.2-2.3,0.3-3.3,1.4c-3.2,3.5-7.4,4.8-12.1,4.8
		c-8.7,0-17.5-0.3-26.2,0.1c-13.9,0.5-17.9-6.6-20.1-15.9c-2.4-9.8-1.1-19.9-1.1-29.9c0-2.7,2.2-3.4,4.7-3.4
		C54.6,61.9,64,61.9,73.4,61.9z M73.6,64.1c-9.1,0-18.2,0.1-27.2,0c-2.7,0-3.7,0.9-3.6,3.6c0.1,6.4-0.1,12.9,0.1,19.3
		c0.1,5,1.3,9.8,3.6,14.2c2.3,4.4,5.8,7,11,7c10.7,0,21.4,0,32.1,0c3.4,0,6.3-1.2,8.5-3.8c1-1.3,2.2-1.8,3.7-2
		c8.7-0.8,15.7-4.7,20.4-12.2c2.6-4.2,3-8.7,0.5-13.1c-2.5-4.5-6.4-7.1-11.8-7c-1.4,0-2.8,0-4.1,0c-1.8,0.1-2.9-0.4-2.7-2.5
		c0.4-3-1.2-3.7-3.9-3.6C91.3,64.2,82.5,64.1,73.6,64.1z"/>
	<path d="M66.9,41.7c-0.2-1.6,0.2-3.4,0.5-5.2c1-5.7,4.1-8.5,9.5-8.4s8.5,3,9.4,8.6c0.8,4.7,0.7,9.4-0.7,13.9
		c-1.3,4.2-3.8,5.8-8.5,5.9c-5.2,0-7.5-1.4-9-5.7C67.1,48,66.9,45,66.9,41.7z M77.4,34.7c-0.3,0-0.7,0-1,0c0,5,0,10.1,0,15.1
		c0.4,0,0.8,0,1.2,0C77.9,44.8,78.1,39.8,77.4,34.7z"/>
	<path d="M50.3,34.4c-0.9,1.4-0.7,2.5-0.4,3.8c6.6-1.2,8.8,0.1,9.8,5.7c1.2,6.4-1.3,11.5-6.1,12.6c-6.5,1.5-10.5-0.9-11.8-7.1
		c-1-4.8-0.9-9.6,0.1-14.3c1-4.4,4.2-6.7,8.8-6.8c4.2,0,7.3,2,8.3,5.4c0.5,1.8,0.2,2.7-1.8,2.5C54.9,35.8,52.3,36.7,50.3,34.4z
		 M50,51.2c1.8-3.5,1.8-4.9-0.1-7.2C49.5,46.3,49.6,48.3,50,51.2z"/>
	<path d="M97.2,49.5c1.2,0,2,0,2.8,0c4.7,0,4.8,0.3,3.8,4.8c-0.4,1.5-1,1.8-2.3,1.8c-4.1-0.1-8.3-0.1-12.4,0c-1.7,0-2.2-0.7-2.1-2.3
		c0-1.5,0.3-2.9,1-4.3c2.2-4.5,4.3-9.1,6.5-13.6c-1-1-2.1-0.7-3-0.5c-3,0.4-4.1-0.8-3.8-3.8c0.2-2,0.6-2.9,2.8-2.8
		c3.7,0.1,7.3,0.1,11,0c1.7,0,2.5,0.4,2.4,2.3c0,2.3-0.3,4.5-1.4,6.6C100.6,41.4,99,45.3,97.2,49.5z"/>
	<path d="M72.6,105.5c-4.8-0.3-10.6,0.5-16.5-0.4c-3.1-0.5-5.3-2.1-6.7-4.8c-3.5-6.5-4-13.6-3.4-20.8c0.4-4.7,5.9-8.7,11.5-9.3
		c7.1-0.7,13.7,1,19.9,4.3c1.9,1,3.1,1.1,4.7-0.5c7.2-6.9,15.5-2,19,4.1c2,3.5,0.4,8.1,0.2,12.2c-0.1,1.1-0.4,2.2-0.7,3.4
		c-2.2,9.2-5.4,11.7-14.9,11.7C81.7,105.5,77.7,105.5,72.6,105.5z M49.1,78.8c9.8,4.6,23.4,5,28.6-1.4c-4.4-2.6-9.1-4.3-14.1-5
		C56.5,71.5,51.7,73.7,49.1,78.8z"/>
	<path d="M109.8,73.4c4.3-0.4,8.1,1.3,10.3,5.7c2.1,4.3,0.6,8.3-2.3,11.8c-3.6,4.5-8.3,7-14,7.9c-2.1,0.3-2.2-0.4-1.7-1.9
		c2.1-6,2-12.1,2-18.3C104.1,72.9,103.1,73.5,109.8,73.4z M105.1,95.9c4.9-1,8.3-3.4,11-6.9c2-2.6,3.6-5.4,1.7-8.8
		c-1.9-3.3-4.8-4.6-8.6-4.4c-1.8,0.1-2.7,0.4-2.6,2.5C106.6,84.1,106.7,89.9,105.1,95.9z"/>
</g>
<circle class="st0" cx="75" cy="75" r="72.6"/>
</svg>
