<svg version="1.1"
  xmlns="http://www.w3.org/2000/svg"
  xmlns:xlink="http://www.w3.org/1999/xlink">
  <defs>
    <symbol id="icon-search" viewBox="0 0 10 10">
      <path d="M9.88,9.28,7.32,6.72l.07-.09a4.07,4.07,0,0,0,.85-2.51A4.13,4.13,0,0,0,4.12,0h0A4.13,4.13,0,0,0,0,4.12,4.13,4.13,0,0,0,4.12,8.24a4,4,0,0,0,2.51-.85l.09-.07L9.28,9.88a.42.42,0,0,0,.6-.6ZM4.08,7.37A3.29,3.29,0,1,1,7.37,4.08,3.3,3.3,0,0,1,4.08,7.37Z"/>
    </symbol>
    <symbol id="icon-x" viewBox="0 0 10 10">
      <polygon points="10 0.67 9.33 0 5 4.33 0.67 0 0 0.67 4.33 5 0 9.33 0.67 10 5 5.67 9.33 10 10 9.33 5.67 5 10 0.67"/>
    </symbol>
    <symbol viewBox="0 0 9 17" id="icon-facebook">
      <path d="M9,5.5H5.93V3.74a.78.78,0,0,1,.86-.82H9V0H6C2.66,0,1.91,2.17,1.91,3.56V5.5H0v3H1.91V17h4V8.51H8.65Z"/>
    </symbol>
    <symbol viewBox="0 0 18 18" id="icon-instagram">
      <circle cx="13.71" cy="4.29" r="1"/>
      <path d="M9,4.29A4.71,4.71,0,1,0,13.71,9,4.72,4.72,0,0,0,9,4.29ZM9,12a3,3,0,1,1,3-3A3,3,0,0,1,9,12ZM16.55,1.49A5.19,5.19,0,0,0,12.74,0H5.26A5,5,0,0,0,0,5.26V12.7a5.24,5.24,0,0,0,1.52,3.88A5.28,5.28,0,0,0,5.3,18h7.4a5.34,5.34,0,0,0,3.81-1.42A5.18,5.18,0,0,0,18,12.74V5.26A5.21,5.21,0,0,0,16.55,1.49ZM16.4,12.74a3.57,3.57,0,0,1-1,2.65,3.77,3.77,0,0,1-2.65.94H5.3a3.77,3.77,0,0,1-2.65-.94,3.67,3.67,0,0,1-1-2.69V5.26a3.64,3.64,0,0,1,1-2.65A3.72,3.72,0,0,1,5.3,1.67h7.47a3.63,3.63,0,0,1,2.65,1,3.72,3.72,0,0,1,1,2.61v7.48Z"/>
    </symbol>
    <symbol viewBox="0 0 22 20" id="icon-shopping-basket">
      <path d="M21.8,7.43h-7L13.31,2a.81.81,0,0,0-1.55.44l1.36,5H8.88l1.36-5.06A.8.8,0,0,0,8.69,2L7.22,7.43H.2V9.1L3.09,20H18.91L21.8,9.35Zm-4.12,11H4.32L1.8,9H20.2Z"/>
    </symbol>
    <symbol viewBox="0 0 18 20" id="icon-search-header">
      <path d="M7.46,2.31a7.31,7.31,0,0,0,0,14.62,7.24,7.24,0,0,0,4.45-1.52l.1-.08.1.1,4.34,4.34a.82.82,0,1,0,1.16-1.17l-4.43-4.43.08-.11a7.2,7.2,0,0,0,1.51-4.44A7.32,7.32,0,0,0,7.46,2.31Zm0,13a5.65,5.65,0,1,1,5.65-5.65A5.66,5.66,0,0,1,7.5,15.31Z"/>
    </symbol>
    <symbol viewBox="0 0 18 15" id="icon-twitter">
      <path d="M18,1.83c-.09.68-1.07,1.37-1.66,1.88.58,8.71-9.2,14.13-16.34,9.72a8.16,8.16,0,0,0,5.41-1.67A3.83,3.83,0,0,1,2,9.15c.5-.05,1.22.11,1.56-.11C2,8.44.7,7.5.62,5.39c.57.06.86.39,1.56.31A4.27,4.27,0,0,1,1,.68a11.11,11.11,0,0,0,7.8,4C7.94.81,13-1.57,15.29,1.2a13,13,0,0,0,2.4-.83,5,5,0,0,1-1.56,2A5.46,5.46,0,0,0,18,1.83Z"/>
    </symbol>
    <symbol viewBox="0 0 18 20" id="icon-user">
      <path d="M15.37,12.68a9,9,0,0,0-4-2.35A5.61,5.61,0,0,0,14,5.5,5.27,5.27,0,0,0,9,0,5.27,5.27,0,0,0,4,5.5a5.6,5.6,0,0,0,2.62,4.83,9,9,0,0,0-4,2.35A9.19,9.19,0,0,0,0,19.14a.85.85,0,1,0,1.7,0A7.38,7.38,0,0,1,9,11.71a7.37,7.37,0,0,1,7.29,7.43.85.85,0,0,0,.85.86.87.87,0,0,0,.86-.86A9.21,9.21,0,0,0,15.37,12.68ZM5.67,5.5A3.57,3.57,0,0,1,9,1.74,3.57,3.57,0,0,1,12.33,5.5,3.57,3.57,0,0,1,9,9.26,3.57,3.57,0,0,1,5.67,5.5Z"/>
    </symbol>
    <symbol viewBox="0 0 21 19" id="icon-menu">
      <rect y="14" width="21" height="2"/>
      <rect y="6" width="21" height="2"/>
    </symbol>
    <symbol viewBox="0 0 15 21" id="icon-location">
      <path d="M7.5,21a.68.68,0,0,1-.5-.22c-.29-.3-7-7.56-7-13.7A7.31,7.31,0,0,1,7.5,0,7.31,7.31,0,0,1,15,7.08c0,6-6.71,13.39-7,13.7A.72.72,0,0,1,7.5,21Zm0-19.66A6,6,0,0,0,1.36,7.08c0,4.7,4.58,10.42,6.14,12.22C9,17.48,13.64,11.67,13.64,7.08A6,6,0,0,0,7.5,1.34Z"/>
      <path d="M7.5,11.17a3.8,3.8,0,1,1,3.86-3.8A3.83,3.83,0,0,1,7.5,11.17Zm0-6.26A2.46,2.46,0,1,0,10,7.37,2.49,2.49,0,0,0,7.5,4.91Z"/>
    </symbol>
    <symbol viewBox="0 0 32 23" id="icon-tick">
      <path d="M12.49,23a1.94,1.94,0,0,1-1.2-.41L0,13.84l2.39-3.12,9.88,7.65L29.12,0,32,2.67,13.93,22.37A2,2,0,0,1,12.49,23Z"/>
    </symbol>
    <symbol viewBox="0 0 16 15" id="icon-star">
      <polygon points="8 12.44 3.06 15 4 9.57 0 5.73 5.53 4.94 8 0 10.47 4.94 16 5.73 12 9.57 12.94 15 8 12.44" />
    </symbol>
    <symbol viewBox="0 0 19 15" id="icon-arrow-right">
      <path d="M1,8.43H15.76l-5.1,5a.92.92,0,0,0,0,1.32,1,1,0,0,0,1.34,0l6.72-6.57h0A.75.75,0,0,0,18.84,8a.3.3,0,0,0,0-.08l.05-.08,0-.1a.24.24,0,0,0,0-.08,1.1,1.1,0,0,0,0-.18h0a1.1,1.1,0,0,0,0-.18s0-.06,0-.08l0-.1-.05-.09a.43.43,0,0,1,0-.07.75.75,0,0,0-.12-.14L12,.27a1,1,0,0,0-1.34,0,.92.92,0,0,0,0,1.32l5.1,5H1A.93.93,0,1,0,1,8.43Z"/>
    </symbol>
    <symbol viewBox="0 0 22 22" id="icon-plus">
      <polygon points="22 10.26 11.65 10.26 11.65 0 10.21 0 10.21 10.26 0 10.26 0 11.74 10.21 11.74 10.21 22 11.65 22 11.65 11.74 22 11.74 22 10.26"/>
    </symbol>
    <symbol viewBox="0 0 63 63" id="icon-play-with-circle">
      <path d="M25.05,44A2.11,2.11,0,0,1,24,43.71,2,2,0,0,1,23,42V22a2,2,0,0,1,1-1.71,2.07,2.07,0,0,1,2.07,0L44,30.27a2,2,0,0,1,0,3.48l-17.91,10h0A2.11,2.11,0,0,1,25.05,44Zm0-22L25,42l.57.86L25.09,42,43,32Z"/>
      <path d="M31.5,63A31.5,31.5,0,1,1,63,31.5,31.53,31.53,0,0,1,31.5,63Zm0-61A29.5,29.5,0,1,0,61,31.5,29.53,29.53,0,0,0,31.5,2Z"/>
    </symbol>
    <symbol viewBox="0 0 19 14" id="icon-forward">
      <path d="M16.5355191,5.35009115 C16.5355191,5.22033454 16.4786783,5.09640968 16.3841158,5.00310156 L11.2689563,0.143789337 C11.0669129,-0.0481726919 10.7398197,-0.0476867121 10.538293,0.143789337 C10.3362497,0.335265386 10.3362497,0.646292471 10.538293,0.83776852 L14.7719027,4.85925153 L0.516734973,4.85925153 C0.231497268,4.85925153 0,5.07891441 0,5.35009115 C0,5.62126789 0.231497268,5.84093077 0.516734973,5.84093077 L14.7713859,5.84093077 L10.538293,9.86241378 C10.3362497,10.0538898 10.3367664,10.3649169 10.538293,10.556393 C10.7403364,10.747869 11.0674296,10.747869 11.2689563,10.556393 L16.3841158,5.69708074 C16.4807452,5.60523056 16.5339689,5.4788758 16.5355191,5.35009115 Z"/>
    </symbol>
    <symbol viewBox="0 0 13 10" id="icon-chevron-up">
      <path d="M2.894 8.353L1.452 6.967l5.116-5.32L8.01 3.033z"/>
      <path d="M10.414 8.353l1.442-1.386-5.116-5.32-1.442 1.386z"/>
    </symbol>
    <symbol viewBox="0 0 25 20" id="icon-sound-on">
        <path d="M.732 15.32h3.831l8.22 4.498c.923.505 2.051-.159 2.051-1.206V1.388c0-1.047-1.128-1.71-2.05-1.206l-8.22 4.499H.731c-.404 0-.732.326-.732.728v9.182c0 .402.328.728.732.728zM13.37 1.523v16.952l-7.886-4.315V5.839l7.886-4.315zM1.465 6.137h2.554v7.726H1.465V6.137zM20.75 2.286c-.286.285-.286.746 0 1.03 1.796 1.785 2.785 4.159 2.785 6.684 0 2.525-.989 4.898-2.785 6.683-.458.456-.135 1.244.518 1.244.206 0 .393-.085.526-.222C23.86 15.646 25 12.91 25 10c0-2.914-1.141-5.654-3.214-7.714-.286-.284-.75-.284-1.036 0z" transform="translate(-30 -30) translate(30 30)"/>
        <path d="M18.679 14.625c-.286.284-.286.745 0 1.03.286.284.75.284 1.036 0 1.519-1.512 2.355-3.52 2.355-5.655 0-2.135-.836-4.143-2.355-5.654-.286-.285-.75-.285-1.036 0-.286.284-.286.745 0 1.03C19.92 6.61 20.605 8.252 20.605 10c0 1.747-.684 3.389-1.926 4.625z" transform="translate(-30 -30) translate(30 30)"/>
        <path d="M16.607 13.594c.286.285.75.285 1.036 0 .966-.959 1.498-2.236 1.498-3.594 0-1.358-.532-2.635-1.498-3.595-.286-.284-.75-.284-1.036 0-.286.285-.286.746 0 1.03.69.685 1.069 1.596 1.069 2.565 0 .97-.38 1.88-1.069 2.565-.286.284-.286.745 0 1.03z" transform="translate(-30 -30) translate(30 30)"/>
    </symbol>
    <symbol viewBox="0 0 25 20" id="icon-sound-off">
        <path d="M16.496 14.12c.286.285.75.285 1.035 0l3.11-3.09 3.109 3.09c.286.285.75.285 1.036 0 .286-.284.286-.745 0-1.029L21.676 10l3.11-3.091c.286-.284.286-.745 0-1.03-.286-.284-.75-.284-1.036 0L20.64 8.97l-3.109-3.09c-.286-.285-.75-.285-1.035 0-.286.284-.286.745 0 1.029L19.605 10l-3.11 3.091c-.285.284-.285.745 0 1.03zM12.783.182l-8.22 4.499H.733c-.405 0-.733.326-.733.728v9.182c0 .402.328.728.732.728h3.831l8.22 4.499c.923.505 2.051-.159 2.051-1.206V1.388c0-1.047-1.128-1.71-2.05-1.206zM1.465 6.137h2.554v7.726H1.465V6.137zm11.905 12.34L5.484 14.16V5.839l7.886-4.315v16.952z" transform="translate(-32 -240) translate(30 30) translate(2 210)"/>         
    </symbol>
    <symbol viewBox="0 0 26 26" id="icon-video-play" >
       <g fill="none" fill-rule="evenodd" stroke-linecap="round" stroke-linejoin="round">
          <g stroke="#C8102E" stroke-width="2">
              <g>
                  <g transform="translate(-51 -134) translate(34 24) translate(18 111)">
                      <path d="M9.668 16.47l7.046-3.93c.272-.151.272-.527 0-.679L9.67 7.923c-.275-.153-.62.036-.62.34v7.868c0 .303.345.492.62.34z"/>
                      <circle cx="12" cy="12" r="12"/>
                  </g>
              </g>
          </g>
      </g>
    </symbol>
    <symbol viewBox="0 0 26 26" id="icon-video-pause">
        <g fill="none" fill-rule="evenodd">
        <g>
            <g>
                <g transform="translate(-51 -282) translate(34 24) translate(18 259)">
                    <g fill="#C8102E" transform="translate(9 7)">
                        <rect width="2" height="10" rx="1"/>
                        <rect width="2" height="10" x="4" rx="1"/>
                    </g>
                    <circle cx="12" cy="12" r="12" stroke="#C8102E" stroke-linecap="round" stroke-linejoin="round" stroke-width="2"/>
                </g>
            </g>
        </g>
    </g>
    </symbol>
    <symbol viewBox="0 0 26 26" id="icon-prev-btn">
      <g fill="none" fill-rule="evenodd">
          <g>
              <g>
                  <g transform="translate(-51 -208) translate(34 24) translate(18 185)">
                      <path fill="#C8102E" fill-rule="nonzero" d="M9.527 5L8 6.651 12.947 12 8 17.349 9.527 19 16 12z" transform="matrix(-1 0 0 1 24 0)"/>
                      <circle cx="12" cy="12" r="12" stroke="#C8102E" stroke-linecap="round" stroke-linejoin="round" stroke-width="2"/>
                  </g>
              </g>
          </g>
      </g>
    </symbol>

    <symbol id="icon-close-circle" fill="none" viewBox="0 0 19 19" >
      <line x1="5.98772" y1="13.0374" x2="12.8173" y2="6.20784" stroke="#8E8E8E" stroke-width="1.2"/>
      <line x1="12.8174" y1="12.9453" x2="5.98786" y2="6.11569" stroke="#8E8E8E" stroke-width="1.2"/>
      <circle cx="9.5" cy="9.55176" r="8.5" stroke="#8E8E8E" stroke-width="1.2"/>
    </symbol>

    <symbol id="icon-swap" viewBox="0 0 22 22" fill="none" xmlns="http://www.w3.org/2000/svg">
      <g clip-path="url(#clip0)">
        <path d="M14.2093 12.8341L19.251 16.5008L14.2093 20.1674M19.2494 16.5008L2.75098 16.5008" stroke="#7E7E7E" stroke-width="2" stroke-linecap="round" stroke-linejoin="round"/>
        <path d="M7.79104 9.16744L2.74938 5.50077L7.79104 1.83411M2.75098 5.50077L19.251 5.50077" stroke="#7E7E7E" stroke-width="2" stroke-linecap="round" stroke-linejoin="round"/>
      </g>
      <defs>
        <clipPath id="clip0">
          <rect width="22" height="22" fill="white" transform="translate(22) rotate(90)"/>
        </clipPath>
      </defs>
    </symbol>

    <symbol id="icon-close" viewBox="0 0 31 31" fill="none" >
      <line x1="7.43962" y1="22.6664" x2="22.6667" y2="7.43935" stroke="#8E8E8E" stroke-width="2" />
      <line x1="22.6661" y1="23.0147" x2="7.43898" y2="7.78764" stroke="#8E8E8E" stroke-width="2" />
    </symbol>
    <symbol  viewBox="0 0 16 12" version="1.1" id="icon-recycle">
        <g id="Email-Lander" stroke="none" stroke-width="1" fill="none" fill-rule="evenodd" stroke-linecap="round" stroke-linejoin="round">
            <g id="Email-Lander---Shorter-Version-with-Reviews" transform="translate(-614.000000, -4514.000000)" stroke="#000000" stroke-width="1.5">
                <g id="Offer-Cards" transform="translate(82.000000, 3664.000000)">
                    <g id="Option-2" transform="translate(444.000000, 226.000000)">
                        <g id="Option-2-Text" transform="translate(0.000000, 302.000000)">
                            <g id="Group-6" transform="translate(89.000000, 321.000000)">
                                <g id="icon" transform="translate(0.000000, 2.000000)">
                                    <path d="M5,0 C2.23857625,0 0,2.23857625 0,5 C0,7.76142375 2.23857625,10 5,10 C7.76142375,10 10,7.76142375 10,5" id="Path"></path>
                                    <polyline id="Path-2" transform="translate(9.939095, 4.617617) rotate(-45.000000) translate(-9.939095, -4.617617) " points="7.79364937 3.17827765 12.0845414 2.47117086 11.3774346 6.76406408"></polyline>
                                </g>
                            </g>
                        </g>
                    </g>
                </g>
            </g>
        </g>
    </symbol>

    <symbol viewBox="0 0 24 24" version="1.1" id="icon-play-new">
      <g stroke="none" stroke-width="1" fill="none" fill-rule="evenodd">
          <g id="Protein-Lander_New-product-section" transform="translate(-286.000000, -1512.000000)" stroke="#FFFFFF">
              <g id="SHROOM-WISDOM-2" transform="translate(230.000000, 1091.000000)">
                  <g id="MORNING" transform="translate(0.000000, 26.000000)">
                      <g id="video-suggestion" transform="translate(0.000000, 357.000000)">
                          <g id="Group-8" transform="translate(57.000000, 39.000000)">
                              <circle id="Oval" stroke-width="2" cx="11" cy="11" r="11"></circle>
                              <path d="M11.8288043,6.99006778 L16.7562662,15.75 L6.90134248,15.75 L11.8288043,6.99006778 Z" id="Triangle" stroke-width="0.5" fill="#FFFFFF" stroke-linejoin="round" transform="translate(11.828804, 11.500000) rotate(-270.000000) translate(-11.828804, -11.500000) "></path>
                          </g>
                      </g>
                  </g>
              </g>
          </g>
      </g>
  </symbol>

  <symbol  viewBox="0 0 18 14" id="icon-forward-bold">
    <g  stroke="none" stroke-width="1"  fill-rule="evenodd">
        <g id="General-Brand-landing-page_Desktop" transform="translate(-442.000000, -583.000000)" fill-rule="nonzero">
            <g id="Think" transform="translate(131.000000, 548.000000)">
                <g id="text" transform="translate(30.000000, 27.000000)">
                    <path d="M281.875,15.867328 L295.51275,15.867328 L290.81925,20.5196027 C290.477562,20.858289 290.477562,21.4075158 290.819031,21.7459853 C291.160719,22.0846716 291.715031,22.0846716 292.056719,21.7459853 L298.243625,15.6132049 C298.284312,15.5728747 298.320625,15.5284249 298.352562,15.4811562 C298.367219,15.4592566 298.3775,15.4356222 298.390188,15.4128552 C298.404625,15.3859685 298.42125,15.3603827 298.432844,15.3319782 C298.445312,15.3027063 298.452313,15.2723503 298.461063,15.2419943 C298.468281,15.2179263 298.477688,15.1949425 298.482719,15.170224 C298.494094,15.1138486 298.5,15.0570395 298.5,15.0000136 C298.499563,14.9419035 298.493875,14.885528 298.482719,14.8302368 C298.477469,14.8042173 298.467625,14.7801493 298.459969,14.7545636 C298.451437,14.7257254 298.444875,14.6964535 298.433063,14.6684826 C298.420375,14.6383434 298.403312,14.611023 298.387563,14.5826185 C298.37575,14.5613693 298.366344,14.5396864 298.352781,14.5193045 C298.320844,14.4713854 298.284094,14.4267187 298.243187,14.3861718 L292.0565,8.25404183 C291.714812,7.91535554 291.160719,7.91535554 290.819031,8.253825 C290.477344,8.59251129 290.477344,9.14173816 290.819031,9.48064128 L295.512531,14.1326991 L281.875,14.1326991 C281.391781,14.1326991 281,14.5210392 281,15.0000136 C281,15.478988 281.391781,15.867328 281.875,15.867328 Z" id="Path"></path>
                </g>
            </g>
        </g>
    </g>
  </symbol>

  <symbol  viewBox="0 0 25 25" id="icon-password-reveal-eye">
      <path d="M20.8870896,11.8220084 C19.3676516,8.89272884 16.0754964,7 12.5,7 C8.92450361,7 5.63234844,8.89272884 4.11291041,11.8220084 L4,12.0400178 L4.11314712,12.2580272 C5.63234844,15.1873068 8.92450361,17.0800356 12.5,17.0800356 C16.0754964,17.0800356 19.3676516,15.1873068 20.8870896,12.2580272 L21,12.0400178 L20.8870896,11.8220084 Z M12.5,16.1331978 C9.36454649,16.1331978 6.47811134,14.5344621 5.07134702,12.0400178 C6.47811134,9.54557353 9.36454649,7.94683784 12.5,7.94683784 C15.6354535,7.94683784 18.5218887,9.54557353 19.928653,12.0400178 C18.5218887,14.5344621 15.6354535,16.1331978 12.5,16.1331978 Z M12.5,9.45657078 C11.0754825,9.45657078 9.91655295,10.6155003 9.91655295,12.0400178 C9.91655295,13.4645354 11.0754825,14.6234649 12.5,14.6234649 C13.9245175,14.6234649 15.083447,13.4645354 15.083447,12.0400178 C15.083447,10.6155003 13.9245175,9.45657078 12.5,9.45657078 Z M12.5,13.676627 C11.5974268,13.676627 10.8633908,12.9423543 10.8633908,12.0400178 C10.8633908,11.1376814 11.5976635,10.4034086 12.5,10.4034086 C13.4023365,10.4034086 14.1366092,11.1376814 14.1366092,12.0400178 C14.1366092,12.9423543 13.4025732,13.676627 12.5,13.676627 Z" id="path-1"></path>
  </symbol>


  </defs>
</svg>
