<?xml version="1.0" encoding="utf-8"?>
<!-- Generator: Adobe Illustrator 25.3.1, SVG Export Plug-In . SVG Version: 6.00 Build 0)  -->
<svg version="1.1" id="Layer_1" xmlns="http://www.w3.org/2000/svg" xmlns:xlink="http://www.w3.org/1999/xlink" x="0px" y="0px"
	 viewBox="0 0 50 50" style="enable-background:new 0 0 50 50;" xml:space="preserve">
<style type="text/css">
	.st0{fill:#FFFFFF;}
</style>
<g>
	<g>
		<circle class="st0" cx="25" cy="25" r="25"/>
	</g>
	<g>
		<g>
			<path d="M36.7,22.5H14.2c-0.5,0-1-0.2-1.4-0.6c-0.3-0.3-0.5-0.8-0.4-1.2l0.4-3.6c0.1-0.5,0.3-1,0.7-1.3c0.3-0.2,0.7-0.3,1.1-0.3
				c7.3,1.1,14.6,1.1,22.3,0c0.4-0.1,0.9,0.1,1.3,0.4c0.4,0.3,0.5,0.8,0.5,1.3l-0.4,3.6C38.1,21.8,37.5,22.5,36.7,22.5z M14.4,16.8
				C14.4,16.8,14.3,16.8,14.4,16.8c-0.1,0.1-0.2,0.2-0.2,0.4l-0.4,3.6c0,0.1,0.3,0.3,0.5,0.3h22.5c0,0,0,0,0,0c0,0,0.1-0.2,0.2-0.5
				l0.4-3.6c0-0.1,0-0.1-0.1-0.2c0,0-0.1-0.1-0.1-0.1C29.3,17.9,21.8,17.9,14.4,16.8C14.4,16.8,14.4,16.8,14.4,16.8
				C14.4,16.8,14.4,16.8,14.4,16.8z"/>
		</g>
		<g>
			<path d="M16.4,16.7c-0.2,0-0.4-0.1-0.5-0.3c-0.2-0.3-0.2-0.7,0.1-0.9c4-3.1,6-4.5,8-4.9c2-0.3,3.7,0.6,6.5,2.1
				c1.3,0.7,3,1.6,5,2.6c0.3,0.2,0.5,0.6,0.3,0.9c-0.2,0.3-0.6,0.5-0.9,0.3c-2.1-1-3.8-1.9-5.1-2.6c-2.7-1.5-4.1-2.2-5.7-1.9
				c-1.6,0.3-3.7,1.7-7.4,4.6C16.7,16.6,16.5,16.7,16.4,16.7z"/>
		</g>
		<g>
			<path d="M15.4,35.8c-0.3,0-0.5-0.2-0.6-0.5c-1-3.1-1.2-7.9-0.4-13.4c0.1-0.4,0.4-0.6,0.8-0.6c0.4,0.1,0.6,0.4,0.6,0.8
				C15,27.4,15.1,32.1,16,35c0.1,0.3-0.1,0.7-0.4,0.9C15.6,35.8,15.5,35.8,15.4,35.8z"/>
		</g>
		<g>
			<path d="M35.8,35.9c0,0-0.1,0-0.1,0c-0.4-0.1-0.6-0.4-0.6-0.8c0.8-5.4,0.7-10.3-0.3-13.2c-0.1-0.3,0.1-0.7,0.4-0.9
				c0.3-0.1,0.7,0.1,0.9,0.4c1.1,3.1,1.2,8.2,0.4,13.8C36.4,35.7,36.1,35.9,35.8,35.9z"/>
		</g>
		<g>
			<path d="M25.7,39.5c-4.2,0-8.5-0.5-12.8-1.5c-0.4-0.1-1.3-0.4-1.5-1.1c-0.1-0.3-0.1-0.6,0-0.9l1.9-3.3c0.2-0.3,0.6-0.4,0.9-0.2
				c0.3,0.2,0.4,0.6,0.2,0.9l-1.8,3.1c0.1,0.1,0.3,0.2,0.5,0.2c8.3,2,16.6,2,24.7,0c0.1,0,0.2-0.1,0.3-0.1l-2-3.1
				c-0.2-0.3-0.1-0.7,0.2-0.9c0.3-0.2,0.7-0.1,0.9,0.2l2.1,3.3c0.2,0.3,0.2,0.7,0.1,1c-0.2,0.6-0.8,0.9-1.3,1
				C34.1,38.9,29.9,39.5,25.7,39.5z M38.3,36.7L38.3,36.7L38.3,36.7z"/>
		</g>
		<g>
			<path d="M23.1,34.8c-0.4,0-0.8-0.2-1.2-0.7c-1.1-1.3-1.2-3.2-0.1-5.1c0.9-1.7,2.8-3.4,4.8-3.1c1,0.2,1.8,0.3,1.9,0.9
				c0.1,0.6-0.3,0.9-0.8,1.2c-0.1,0.1-0.3,0.2-0.4,0.3c-1.4,1-1.7,2.1-2,3.3c-0.2,0.7-0.4,1.4-0.8,2.2c-0.3,0.5-0.7,0.9-1.1,0.9
				C23.2,34.8,23.1,34.8,23.1,34.8z M26.1,27.3c-1.1,0-2.4,1-3.2,2.5c-0.3,0.5-1.1,2.4,0,3.6c0.1,0.1,0.2,0.2,0.2,0.2
				c0,0,0.1-0.1,0.1-0.2c0,0,0,0,0,0c0.3-0.6,0.5-1.3,0.7-1.9c0.4-1.3,0.8-2.7,2.5-4c0,0,0,0,0,0c0,0-0.1,0-0.1,0
				C26.3,27.3,26.2,27.3,26.1,27.3z"/>
		</g>
		<g>
			<path d="M24.4,35.2C24.3,35.2,24.3,35.2,24.4,35.2c-0.8,0-1.5-0.1-1.7-0.7c-0.2-0.5,0.2-0.9,0.4-1.1c0.1-0.1,0.2-0.1,0.2-0.2
				c0.2-0.3,0.6-0.4,0.9-0.2c0.3,0.2,0.3,0.5,0.2,0.8c1.1,0,2.3-1,3.2-2.4c0.7-1.2,1-2.5,0.5-3.2C28,28.1,27.9,28,27.9,28
				c0,0-0.1,0-0.2,0.1c-0.3,0.2-0.7,0.1-0.9-0.2c-0.2-0.3-0.1-0.7,0.2-0.9c0.5-0.4,1-0.4,1.3-0.3c0.4,0.1,0.8,0.4,1.1,0.9
				c0.7,1.2,0.5,2.9-0.6,4.6C27.6,34,25.9,35.2,24.4,35.2z"/>
		</g>
	</g>
</g>
</svg>
