<?xml version="1.0" encoding="utf-8"?>
<!-- Generator: Adobe Illustrator 25.3.1, SVG Export Plug-In . SVG Version: 6.00 Build 0)  -->
<svg version="1.1" id="Layer_1" xmlns="http://www.w3.org/2000/svg" xmlns:xlink="http://www.w3.org/1999/xlink" x="0px" y="0px"
	 viewBox="0 0 50 50" style="enable-background:new 0 0 50 50;" xml:space="preserve">
<style type="text/css">
	.st0{fill:#FFFFFF;}
</style>
<g>
	<circle class="st0" cx="25" cy="25" r="25"/>
	<g>
		<path d="M31.3,21.2l-1.6-1.9c-0.5-0.6-0.8-1.4-0.8-2.2v-3.5h0.2c0.3,0,0.5-0.2,0.5-0.5v-2.6c0-0.7-0.6-1.3-1.3-1.3h-6.6
			c-0.7,0-1.3,0.6-1.3,1.3v2.6c0,0.3,0.2,0.5,0.5,0.5h0.2v3.5c0,0.8-0.3,1.6-0.8,2.2l-1.6,1.9c-0.9,1-1.3,2.3-1.3,3.6v13.9
			c0,1.2,1,2.2,2.2,2.2h11c1.2,0,2.2-1,2.2-2.2V24.8C32.7,23.5,32.2,22.2,31.3,21.2z M21.4,10.4c0-0.1,0.1-0.3,0.3-0.3h6.6
			c0.1,0,0.3,0.1,0.3,0.3v2.1h-0.2h-6.8h-0.2V10.4z M31.6,38.7c0,0.6-0.5,1.1-1.1,1.1h-11c-0.6,0-1.1-0.5-1.1-1.1V24.8
			c0-1.1,0.4-2.1,1.1-2.9l1.6-1.9c0.7-0.8,1.1-1.8,1.1-2.9v-3.5h5.8v3.5c0,1.1,0.4,2.1,1.1,2.9l1.6,1.9c0.7,0.8,1.1,1.9,1.1,2.9
			V38.7z"/>
		<path d="M26.7,29.2C26.7,29.2,26.7,29.2,26.7,29.2c0.1,0,0.1,0,0.1,0c0,0,0,0,0,0c0,0,0,0,0,0c0,0,0,0,0.1,0c0,0,0,0,0.1,0
			c0,0,0.1,0,0.1,0c0,0,0,0,0.1,0c0,0,0,0,0.1-0.1c0,0,0,0,0,0c0,0,0.1-0.1,0.1-0.1l0.4-1.2c0.1-0.3-0.1-0.6-0.3-0.6
			c-0.3-0.1-0.6,0.1-0.6,0.3l0,0l-1.1-2c-0.1-0.2-0.3-0.3-0.4-0.3c-0.2,0-0.4,0.1-0.4,0.3l-1.9,3.3c-0.1,0.2-0.1,0.6,0.2,0.7
			c0.1,0,0.2,0.1,0.3,0.1c0.2,0,0.3-0.1,0.4-0.3l1.4-2.5l0.6,1.2l0,0c-0.3-0.1-0.6,0.1-0.6,0.3c-0.1,0.3,0.1,0.6,0.3,0.6L26.7,29.2
			C26.6,29.2,26.7,29.2,26.7,29.2z"/>
		<path d="M24.1,33.2l-2.9,0L22,32l0,0.1c0.1,0.2,0.3,0.4,0.5,0.4c0,0,0.1,0,0.1,0c0.3-0.1,0.4-0.3,0.4-0.6l-0.3-1.3c0,0,0,0,0,0
			c0,0,0,0,0,0c0,0,0-0.1-0.1-0.1c0,0,0,0,0,0c0,0,0,0,0,0c0,0-0.1-0.1-0.1-0.1c0,0,0,0,0,0c-0.1-0.1-0.2-0.1-0.2-0.1c0,0,0,0,0,0
			c0,0-0.1,0-0.1,0l-1.3,0.3c-0.3,0.1-0.4,0.3-0.4,0.6c0.1,0.3,0.3,0.4,0.6,0.4l0,0l-1.2,1.9c-0.1,0.2-0.1,0.4,0,0.5
			c0.1,0.2,0.3,0.3,0.4,0.3l3.8,0c0.3,0,0.5-0.2,0.5-0.5C24.6,33.4,24.4,33.2,24.1,33.2z"/>
		<path d="M28.2,30.3c-0.1-0.2-0.5-0.3-0.7-0.2c-0.2,0.1-0.3,0.5-0.2,0.7l1.4,2.5l-1.3,0l0,0c0.2-0.2,0.2-0.5,0-0.7
			c-0.2-0.2-0.5-0.2-0.7,0l-0.9,0.9c0,0,0,0,0,0c0,0,0,0,0,0c0,0,0,0.1-0.1,0.1c0,0,0,0,0,0c0,0,0,0,0,0c0,0,0,0.1,0,0.1
			c0,0,0,0,0,0c0,0,0,0.1,0,0.1c0,0,0,0,0,0c0,0,0,0.1,0,0.1c0,0,0,0,0,0c0,0,0,0.1,0.1,0.1l0.9,0.9c0.1,0.1,0.2,0.2,0.4,0.2
			c0.1,0,0.3,0,0.4-0.1c0.2-0.2,0.2-0.5,0-0.7l0,0l2.3,0.1c0.2,0,0.4-0.1,0.5-0.2c0.1-0.2,0.1-0.4,0-0.5L28.2,30.3z"/>
	</g>
</g>
</svg>
