<?xml version="1.0" encoding="utf-8"?>
<!-- Generator: Adobe Illustrator 25.3.1, SVG Export Plug-In . SVG Version: 6.00 Build 0)  -->
<svg version="1.1" id="Layer_1" xmlns="http://www.w3.org/2000/svg" xmlns:xlink="http://www.w3.org/1999/xlink" x="0px" y="0px"
	 viewBox="0 0 50 50" style="enable-background:new 0 0 50 50;" xml:space="preserve">
<style type="text/css">
	.st0{fill:#FFFFFF;}
</style>
<g>
	<g>
		<circle class="st0" cx="25" cy="25" r="25"/>
	</g>
	<g>
		<g>
			<path d="M32,39.8H16.7c-0.9,0-1.7-0.7-1.7-1.7V20.3c0-0.9,0.7-1.7,1.7-1.7H32c0.9,0,1.7,0.7,1.7,1.7v17.8
				C33.7,39,32.9,39.8,32,39.8z M16.7,20c-0.2,0-0.3,0.1-0.3,0.3v17.8c0,0.2,0.2,0.3,0.3,0.3H32c0.2,0,0.3-0.2,0.3-0.3V20.3
				c0-0.2-0.1-0.3-0.3-0.3H16.7z"/>
		</g>
		<g>
			<path d="M35.1,36.5h-1.9c-0.4,0-0.7-0.3-0.7-0.7s0.3-0.7,0.7-0.7h1.9c0.3,0,0.6-0.1,0.9-0.2c0.3-0.1,0.6-0.3,0.8-0.5
				c0.2-0.2,0.4-0.5,0.5-0.8c0.1-0.3,0.2-0.6,0.2-0.9v-6.9c0-0.3-0.1-0.6-0.2-0.9c-0.1-0.3-0.3-0.5-0.5-0.7c0,0,0,0,0,0c0,0,0,0,0,0
				c-0.2-0.2-0.5-0.4-0.8-0.5c-0.3-0.1-0.6-0.2-0.9-0.2h-1.9c-0.4,0-0.7-0.3-0.7-0.7s0.3-0.7,0.7-0.7h1.9c0.5,0,1,0.1,1.5,0.3
				c0.5,0.2,0.9,0.5,1.2,0.8c0,0,0.1,0.1,0.1,0.1c0.3,0.3,0.5,0.7,0.7,1.1c0.2,0.5,0.3,1,0.3,1.5v6.9c0,0.5-0.1,1-0.3,1.5
				c-0.2,0.5-0.5,0.9-0.8,1.2c-0.4,0.4-0.8,0.6-1.2,0.8C36.1,36.4,35.6,36.5,35.1,36.5z"/>
		</g>
		<g>
			<path d="M20.6,17.5c-0.2,0-0.3-0.1-0.4-0.2c-1.4-1.3-1.3-3.3-0.4-4.6c0.5-0.7,0.7-1.8-0.2-2.7c-0.3-0.3-0.3-0.7,0-0.9
				c0.3-0.3,0.7-0.3,0.9,0c1.4,1.4,1.2,3.3,0.3,4.4c-0.5,0.6-0.7,1.9,0.2,2.8c0.3,0.2,0.3,0.7,0.1,0.9C21,17.4,20.8,17.5,20.6,17.5z
				 M29.1,17.5c-0.2,0-0.3-0.1-0.4-0.2c-1.4-1.3-1.3-3.3-0.4-4.6c0.5-0.7,0.7-1.8-0.2-2.7c-0.3-0.3-0.3-0.7,0-0.9
				c0.3-0.3,0.7-0.3,0.9,0c1.4,1.4,1.2,3.3,0.3,4.4c-0.5,0.6-0.7,1.9,0.2,2.8c0.3,0.2,0.3,0.7,0.1,0.9
				C29.5,17.4,29.3,17.5,29.1,17.5z M24.8,17c-0.1,0-0.3,0-0.4-0.1c-0.8-0.6-1.3-1.5-1.4-2.5c-0.1-1,0.2-2,0.9-2.8
				c0.7-0.8,1-2.1-0.3-3.2c-0.3-0.2-0.3-0.7-0.1-0.9c0.2-0.3,0.7-0.3,0.9-0.1c1.1,1,1.3,2,1.3,2.7c0,0.9-0.3,1.7-0.9,2.4
				c-0.4,0.5-0.6,1.1-0.6,1.8c0.1,0.6,0.4,1.1,0.9,1.5c0.3,0.2,0.4,0.6,0.1,0.9C25.2,16.9,25,17,24.8,17z"/>
		</g>
		<g>
			<g>
				<path d="M20.8,26.4c0.6,0,1.2,0.2,1.7,0.5c0.5,0.3,0.9,0.7,1.3,1.1c0.1,0.1,0.3,0.3,0.4,0.4c0,0,0.1,0,0.1,0
					c0.4-0.4,0.7-0.7,1.1-1c0.5-0.4,1-0.8,1.7-0.9c1-0.2,1.8-0.1,2.6,0.6c0.4,0.4,0.7,0.9,0.8,1.4c0.2,0.7,0.1,1.4-0.2,2.1
					c-0.4,0.8-1.1,1.3-2,1.5c-1,0.2-1.8-0.1-2.6-0.7c-0.5-0.4-0.9-0.8-1.3-1.2c-0.1-0.1-0.1-0.1-0.2,0c-0.4,0.4-0.9,0.9-1.4,1.3
					c-0.7,0.5-1.4,0.8-2.2,0.7c-0.8,0-1.5-0.3-2-0.9c-0.3-0.4-0.5-0.8-0.6-1.3c-0.1-0.5-0.1-1,0.1-1.5c0.4-1,1.1-1.6,2.1-1.9
					c0.1,0,0.2,0,0.3-0.1C20.6,26.4,20.7,26.4,20.8,26.4z M20.8,30.9c0.1,0,0.1,0,0.2,0c0.4,0,0.8-0.2,1.1-0.4
					c0.5-0.3,0.9-0.8,1.4-1.2c0,0,0-0.1,0-0.1c-0.2-0.2-0.4-0.4-0.6-0.6c-0.4-0.3-0.7-0.7-1.2-0.9c-0.5-0.2-1-0.3-1.5-0.1
					c-0.7,0.3-1.1,1-1,1.8C19.2,30.3,19.9,30.9,20.8,30.9z M25.1,29.2c0.3,0.3,0.6,0.6,0.9,0.9c0.3,0.2,0.6,0.5,0.9,0.6
					c0.6,0.3,1.2,0.3,1.8-0.1c0.6-0.4,0.9-1,0.8-1.8c-0.1-0.8-0.8-1.3-1.5-1.4c-0.5,0-1,0.2-1.4,0.5C25.9,28.3,25.5,28.8,25.1,29.2z
					"/>
			</g>
		</g>
	</g>
</g>
</svg>
