<?xml version="1.0" encoding="utf-8"?>
<!-- Generator: Adobe Illustrator 25.3.1, SVG Export Plug-In . SVG Version: 6.00 Build 0)  -->
<svg version="1.1" id="Layer_1" xmlns="http://www.w3.org/2000/svg" xmlns:xlink="http://www.w3.org/1999/xlink" x="0px" y="0px"
	 viewBox="0 0 50 50" style="enable-background:new 0 0 50 50;" xml:space="preserve">
<style type="text/css">
	.st0{fill:#FFFFFF;}
</style>
<g>
	<g>
		<circle class="st0" cx="25" cy="25" r="25"/>
	</g>
	<g>
		<g>
			<path d="M36,26.6c-0.2,0-0.3-0.1-0.5-0.2c-1.3-1.3-1.2-3.2-0.3-4.2c0.4-0.5,0.6-1.4-0.2-2.3c-0.2-0.3-0.2-0.7,0.1-0.9
				s0.7-0.2,0.9,0.1c1.3,1.4,1,3.1,0.2,4.1c-0.4,0.5-0.6,1.6,0.2,2.4c0.3,0.3,0.3,0.7,0,0.9C36.4,26.5,36.2,26.6,36,26.6z
				 M28.5,25.6c-0.2,0-0.3-0.1-0.5-0.2c-1.3-1.3-1.2-3.2-0.3-4.2c0.4-0.5,0.6-1.4-0.2-2.3c-0.2-0.3-0.2-0.7,0.1-0.9
				c0.3-0.2,0.7-0.2,0.9,0.1c1.3,1.4,1,3.1,0.2,4.1c-0.4,0.5-0.6,1.6,0.2,2.4c0.3,0.3,0.3,0.7,0,0.9C28.8,25.6,28.6,25.6,28.5,25.6z
				 M32.2,25.6c-0.2,0-0.3-0.1-0.4-0.2c-0.8-0.7-1.2-1.6-1.3-2.6c0-0.9,0.3-1.7,0.8-2.3c0.6-0.6,0.8-1.7-0.3-2.8
				c-0.3-0.3-0.3-0.7,0-0.9c0.3-0.3,0.7-0.3,0.9,0c1.7,1.7,1.3,3.6,0.3,4.7c-0.3,0.3-0.5,0.8-0.5,1.3c0,0.4,0.2,1,0.8,1.6
				c0.3,0.2,0.3,0.7,0.1,0.9C32.5,25.5,32.3,25.6,32.2,25.6z M15.4,20.5c-0.2,0-0.3-0.1-0.4-0.2c-1.3-1.2-1.2-3-0.4-4.2
				c0.4-0.6,0.6-1.5-0.2-2.3c-0.3-0.3-0.3-0.7,0-0.9s0.7-0.3,0.9,0c1.3,1.3,1.1,3,0.3,4c-0.4,0.5-0.6,1.7,0.2,2.4
				c0.3,0.2,0.3,0.7,0.1,0.9C15.8,20.5,15.6,20.5,15.4,20.5z M23,20.5c-0.2,0-0.3-0.1-0.4-0.2c-1.3-1.2-1.2-3-0.4-4.2
				c0.4-0.6,0.6-1.5-0.2-2.3c-0.3-0.3-0.3-0.7,0-0.9c0.3-0.3,0.7-0.3,0.9,0c1.3,1.3,1.1,3,0.3,4c-0.4,0.5-0.6,1.7,0.2,2.4
				c0.3,0.2,0.3,0.7,0.1,0.9C23.4,20.5,23.2,20.5,23,20.5z M19.2,20.1c-0.1,0-0.3,0-0.4-0.1c-0.8-0.6-1.2-1.4-1.3-2.3
				c-0.1-0.9,0.2-1.8,0.8-2.5c0.6-0.7,0.9-1.8-0.2-2.8c-0.3-0.2-0.3-0.7-0.1-0.9c0.2-0.3,0.7-0.3,0.9-0.1c1.7,1.5,1.4,3.5,0.4,4.7
				c-0.4,0.4-0.5,1-0.5,1.5c0.1,0.5,0.3,1,0.8,1.3c0.3,0.2,0.4,0.6,0.1,0.9C19.6,20,19.4,20.1,19.2,20.1z"/>
		</g>
		<g>
			<path d="M31.5,38.7c-1.6,0-3.3-0.3-4.6-1c-1.6-0.8-2.8-1.8-3.3-3.2l0,0c-0.2-0.6-0.4-1-0.5-1.4c-1.8,2.8-4.4,4.6-6.8,4.6
				c0,0-0.1,0-0.1,0c-1.2,0-1.9-0.2-2.3-0.6c-0.5-0.1-1-0.4-1.4-0.9c-1.8-2-1.9-5.1-0.2-8.1c0.8-1.5,2-2.9,3.3-3.8
				c1.5-1,3-1.5,4.4-1.3c1.9,0.3,2.7,0.5,2.8,1.2c0,0,0,0.1,0,0.1c0.6,0.2,1,0.6,1.4,1.3c0.4,0.8,0.6,1.7,0.6,2.8
				c1.3-1.1,3.3-1.6,5.7-1.6c3.5,0.1,6.6,1.5,7.8,3.7c0.6,1,0.8,1.8,0.6,2.3c0.2,0.5,0.1,1-0.1,1.7c-0.8,2.6-3.4,4.1-7,4.2
				C31.7,38.7,31.6,38.7,31.5,38.7z M24.8,34.1c0.8,2,3.7,3.4,6.9,3.3c2.9-0.1,5.1-1.3,5.7-3.3c0.1-0.4,0.1-0.7,0.1-0.8
				c-0.1,0-0.3-0.1-0.4-0.1c-0.2,0-0.4-0.1-0.5-0.1c-1.2,0-2.3,0.3-3.5,0.6c-2.2,0.6-4.5,1.1-7.7-0.2c-0.3-0.1-0.6-0.3-0.8-0.4
				c-0.1,0-0.2-0.1-0.2-0.1C24.4,33.2,24.6,33.5,24.8,34.1L24.8,34.1z M15.5,36.3c0.2,0,0.4,0,0.6,0c2,0.1,4.4-1.6,6-4.2
				c1.4-2.2,1.7-4.5,0.9-5.9c-0.2-0.3-0.4-0.7-0.7-0.7c-0.2,0-0.4,0-0.7,0.2c0,0,0,0,0,0c0,0,0,0,0,0c-0.2,0.2-0.5,0.3-0.7,0.5
				c-2.4,1.8-3,3.8-3.6,5.9c-0.3,1.2-0.7,2.4-1.4,3.6c0,0,0,0,0,0C15.7,36,15.6,36.2,15.5,36.3z M19.2,24.2c-2,0-4.4,1.8-5.8,4.4
				c-1.4,2.6-1.4,5,0,6.6c0.3,0.3,0.5,0.5,0.7,0.5c0.1-0.1,0.2-0.2,0.3-0.3c0.1-0.1,0.3-0.3,0.3-0.4c0.6-1.1,0.9-2.2,1.2-3.3
				c0.6-2.2,1.3-4.5,4.1-6.6c0.3-0.2,0.5-0.4,0.8-0.5c0.1,0,0.1-0.1,0.2-0.1c-0.3-0.1-0.7-0.1-1.3-0.2l0,0
				C19.5,24.3,19.3,24.2,19.2,24.2z M25.1,31.8C25.1,31.8,25.1,31.8,25.1,31.8c0.3,0.1,0.5,0.2,0.8,0.4c2.8,1.2,4.8,0.7,6.9,0.2
				c1.2-0.3,2.4-0.6,3.8-0.6c0,0,0,0,0,0c0.2,0,0.4,0,0.6,0c-0.1-0.2-0.2-0.3-0.3-0.6c-0.9-1.8-3.6-3-6.6-3
				c-2.6-0.1-4.8,0.8-5.6,2.2c-0.2,0.3-0.4,0.7-0.3,1C24.6,31.4,24.8,31.6,25.1,31.8C25.1,31.8,25.1,31.8,25.1,31.8z"/>
		</g>
	</g>
</g>
</svg>
