<?xml version="1.0" encoding="utf-8"?>
<!-- Generator: Adobe Illustrator 25.3.1, SVG Export Plug-In . SVG Version: 6.00 Build 0)  -->
<svg version="1.1" id="Layer_1" xmlns="http://www.w3.org/2000/svg" xmlns:xlink="http://www.w3.org/1999/xlink" x="0px" y="0px"
	 viewBox="0 0 50 50" style="enable-background:new 0 0 50 50;" xml:space="preserve">
<style type="text/css">
	.st0{fill:#FFFFFF;}
	.st1{fill:#1D1D1B;}
</style>
<g>
	<circle class="st0" cx="25" cy="25" r="25"/>
	<g>
		<path class="st1" d="M27.8,26.8c-0.2,0-0.5,0.1-0.5,0.4c0,0.3,0.1,0.5,0.4,0.5c1.9,0.2,3.9,1.5,5.2,3.5c2.2,3.1,2.2,7,0,8.5
			c-2.2,1.6-5.8,0.3-8-2.9c-0.1-0.2-0.2-0.3-0.3-0.5c-0.1-0.2-0.4-0.3-0.6-0.2c-0.2,0.1-0.3,0.4-0.2,0.6c0.1,0.2,0.2,0.4,0.4,0.6
			c1.7,2.5,4.3,3.9,6.6,3.9c1,0,1.9-0.3,2.7-0.8c2.6-1.8,2.7-6.2,0.2-9.8C32.1,28.5,29.9,27.1,27.8,26.8z"/>
		<path class="st1" d="M31.8,39.4c0.1,0,0.1,0,0.2,0c0.2,0,0.3-0.1,0.4-0.3c0.1-0.2,0-0.5-0.2-0.6c-0.2-0.1-0.4-0.2-0.6-0.3
			c-0.2-0.1-0.5-0.1-0.6,0.1c-0.1,0.2-0.1,0.5,0.1,0.6C31.3,39.2,31.6,39.3,31.8,39.4z"/>
		<path class="st1" d="M29.8,37.9C29.9,38,30,38,30.2,38c0.1,0,0.2,0,0.3-0.1c0.2-0.2,0.2-0.4,0.1-0.6c-0.7-0.9-0.9-2-1.1-3.2
			c-0.3-1.3-0.5-2.6-1.4-3.7c-0.2-0.2-0.4-0.2-0.6-0.1c-0.2,0.2-0.2,0.4-0.1,0.6c0.7,1,0.9,2.1,1.2,3.4C28.8,35.5,29,36.8,29.8,37.9
			z"/>
		<path class="st1" d="M24.1,34.9c3-3.2,3.5-7.5,1.2-9.7c-0.9-0.8-2-1.3-3.4-1.3c-2.1,0-4.5,1.1-6.2,3c-1.4,1.5-2.3,3.3-2.6,5.1
			c-0.2,1.9,0.3,3.5,1.4,4.6c0.9,0.8,2,1.3,3.4,1.3C20,37.9,22.3,36.8,24.1,34.9z M17.8,37c-1.1,0-2.1-0.3-2.8-1
			c-0.9-0.9-1.3-2.2-1.1-3.8c0.2-1.6,1-3.3,2.3-4.6c1.6-1.7,3.7-2.7,5.6-2.7c1.1,0,2.1,0.3,2.8,1c2,1.9,1.4,5.6-1.2,8.4
			C21.8,36,19.7,37,17.8,37z"/>
		<path class="st1" d="M24.1,26.4c-0.2-0.1-0.5,0.1-0.6,0.3c-0.6,2.4-2.3,3.1-4,3.8c-1.9,0.8-3.8,1.6-4.4,4.3
			c-0.1,0.2,0.1,0.5,0.4,0.5c0,0,0.1,0,0.1,0c0.2,0,0.4-0.1,0.4-0.4c0.5-2.2,2-2.9,3.8-3.6c1.8-0.8,3.9-1.6,4.6-4.5
			C24.5,26.7,24.4,26.5,24.1,26.4z"/>
		<path class="st1" d="M24,18.9c-0.1-0.1-0.3-0.1-0.4-0.1c-0.1,0-2.2,0.6-3.2,2.8c-0.1,0.2,0,0.5,0.2,0.6c0.2,0.1,0.5,0,0.6-0.2
			c0.5-1.1,1.4-1.7,2-2c0,0.8,0.2,1.8,0.8,2.8c0.1,0.1,0.2,0.2,0.4,0.2c0.1,0,0.2,0,0.2-0.1c0.2-0.1,0.3-0.4,0.2-0.6
			c-0.6-1.1-0.7-2.2-0.6-2.9C24.2,19.2,24.2,19,24,18.9z"/>
		<path class="st1" d="M34.3,19.4c-0.1-0.1-0.3-0.1-0.4-0.1c-0.1,0-0.3,0.1-0.3,0.3c-0.4,1.2-1.8,1.7-2.7,1.8
			c4-6.7-3.3-12.6-3.3-12.6c-0.1-0.1-0.3-0.1-0.4-0.1c-0.1,0-0.3,0.2-0.3,0.3c-1.3,4.2-4.4,6.4-5.6,7.1c-0.8-2.9-3.2-3.3-3.3-3.3
			c-0.1,0-0.3,0-0.4,0.1c-0.1,0.1-0.1,0.3-0.1,0.4c0.4,1.8,0.1,3.3-2.4,6.5L14.8,20c-0.7,0.9-2.2,2.9-2.1,5.6c0,0.3,0.2,0.4,0.5,0.4
			c0.3,0,0.4-0.2,0.4-0.5c-0.1-2.3,1.2-4.1,1.9-4.9l0.1-0.1c2.4-3.1,2.9-4.8,2.7-6.5c0.7,0.3,1.7,1.1,2,3c0,0.1,0.1,0.3,0.2,0.3
			c0.1,0.1,0.3,0.1,0.4,0c0.2-0.1,4.5-2,6.4-7.3c0.6,0.6,1.8,1.8,2.6,3.3c1.6,3,1.5,5.8-0.5,8.4c-0.1,0.1-0.1,0.3,0,0.5
			c0.1,0.2,0.2,0.3,0.4,0.3c0.1,0,3,0,4.2-1.9c0.9,1,2.8,4.1,1.9,9.9c0,0.3,0.1,0.5,0.4,0.5c0,0,0,0,0.1,0c0.2,0,0.4-0.2,0.5-0.4
			C38.3,22.6,34.5,19.6,34.3,19.4z"/>
	</g>
</g>
</svg>
