<?xml version="1.0" encoding="utf-8"?>
<!-- Generator: Adobe Illustrator 25.3.1, SVG Export Plug-In . SVG Version: 6.00 Build 0)  -->
<svg version="1.1" id="Layer_1" xmlns="http://www.w3.org/2000/svg" xmlns:xlink="http://www.w3.org/1999/xlink" x="0px" y="0px"
	 viewBox="0 0 50 50" style="enable-background:new 0 0 50 50;" xml:space="preserve">
<style type="text/css">
	.st0{fill:#FFFFFF;}
</style>
<g>
	<g>
		<circle class="st0" cx="25" cy="25" r="25"/>
	</g>
	<g>
		<g>
			<path d="M28.6,33.2c-0.2,0-0.5-0.1-0.6-0.3c-0.2-0.3-0.1-0.7,0.3-0.9c2-1.1,4.3-4.7,4.8-7.7c0.1-0.4,0.4-0.6,0.8-0.5
				c0.4,0.1,0.6,0.4,0.5,0.8c-0.5,3-2.8,7.1-5.5,8.6C28.8,33.2,28.7,33.2,28.6,33.2z"/>
		</g>
		<g>
			<path d="M33.4,31.6c-0.2,0-0.5-0.1-0.6-0.3c-0.2-0.3-0.1-0.7,0.2-0.9c1.3-0.7,2.5-1.2,3.6-1.6c1.7-0.6,2.7-1,2.9-1.8
				c0.1-0.7,0-1.3-0.4-1.7c-0.7-0.5-2-0.6-3-0.2c-0.3,0.2-0.7,0-0.9-0.3c-0.2-0.3,0-0.7,0.3-0.9c1.2-0.6,3.1-0.6,4.3,0.3
				c0.8,0.7,1.2,1.7,0.9,3c-0.3,1.6-1.9,2.1-3.7,2.8c-1.1,0.4-2.3,0.8-3.4,1.5C33.6,31.6,33.5,31.6,33.4,31.6z"/>
		</g>
		<g>
			<path d="M21.4,19.2c-0.2,0-0.3-0.1-0.4-0.2c-1.3-1.2-1.2-3.1-0.4-4.2c0.4-0.6,0.6-1.6-0.2-2.4c-0.3-0.3-0.3-0.7,0-0.9
				c0.3-0.3,0.7-0.3,0.9,0c1.3,1.3,1.1,3,0.3,4.1c-0.4,0.5-0.6,1.7,0.2,2.4c0.3,0.2,0.3,0.7,0.1,0.9C21.8,19.1,21.6,19.2,21.4,19.2z
				"/>
		</g>
		<g>
			<path d="M25.2,18.7c-0.1,0-0.3,0-0.4-0.1c-0.8-0.6-1.2-1.4-1.3-2.3c-0.1-0.9,0.2-1.9,0.8-2.6c0.6-0.7,0.9-1.9-0.2-2.9
				c-0.3-0.2-0.3-0.7-0.1-0.9c0.2-0.3,0.7-0.3,0.9-0.1c1.7,1.5,1.4,3.5,0.4,4.7c-0.4,0.4-0.6,1-0.5,1.6c0.1,0.5,0.3,1,0.8,1.4
				c0.3,0.2,0.4,0.6,0.1,0.9C25.6,18.6,25.4,18.7,25.2,18.7z"/>
		</g>
		<g>
			<path d="M29.1,19.2c-0.2,0-0.3-0.1-0.4-0.2c-1.3-1.2-1.2-3.1-0.4-4.2c0.4-0.6,0.6-1.6-0.2-2.4c-0.3-0.3-0.3-0.7,0-0.9
				c0.3-0.3,0.7-0.3,0.9,0c1.3,1.3,1.1,3,0.3,4.1c-0.4,0.5-0.6,1.7,0.2,2.4c0.3,0.2,0.3,0.7,0.1,0.9C29.5,19.1,29.3,19.2,29.1,19.2z
				"/>
		</g>
		<g>
			<path d="M20.5,35.4c-0.1,0-0.2,0-0.3-0.1c-4.5-2.5-7.2-9.7-6.9-13.3c0-0.3,0.3-0.6,0.7-0.6h22c0.3,0,0.6,0.3,0.7,0.6
				c0.2,2-0.5,4.8-1.8,7.4c-1.4,2.8-3.2,4.9-5,5.9c-0.3,0.2-0.7,0.1-0.9-0.3c-0.2-0.3-0.1-0.7,0.3-0.9c3.3-1.8,6.2-7.8,6.2-11.4
				H14.6c0,3.4,2.5,9.4,6.2,11.4c0.3,0.2,0.4,0.6,0.3,0.9C21,35.2,20.8,35.4,20.5,35.4z"/>
		</g>
		<g>
			<path d="M32.1,39.2H17.9c-1.8,0-3.6-1-4.5-1.6C13,37.3,11,36,10.8,34.9c0-0.2,0-0.4,0.1-0.5c0.1-0.2,0.3-0.2,0.5-0.2h27
				c0.2,0,0.4,0.1,0.5,0.2c0.1,0.1,0.2,0.3,0.2,0.5c-0.2,1-2,2.3-2.6,2.6C35.8,38.1,33.9,39.2,32.1,39.2z M12.8,35.5
				c0.3,0.3,0.8,0.7,1.4,1c1.3,0.8,2.7,1.3,3.7,1.3h14.3c1.6,0,3.9-1.4,5-2.3H12.8z"/>
		</g>
	</g>
</g>
</svg>
