<?xml version="1.0" encoding="utf-8"?>
<!-- Generator: Adobe Illustrator 16.0.0, SVG Export Plug-In . SVG Version: 6.00 Build 0)  -->
<!DOCTYPE svg PUBLIC "-//W3C//DTD SVG 1.1//EN" "http://www.w3.org/Graphics/SVG/1.1/DTD/svg11.dtd">
<svg version="1.1" id="Layer_1_2_" xmlns="http://www.w3.org/2000/svg" xmlns:xlink="http://www.w3.org/1999/xlink" x="0px" y="0px"
	 width="107px" height="107px" viewBox="0 0 107 107" enable-background="new 0 0 107 107" xml:space="preserve">
<g id="Ellipse">
	<g>
		<circle fill-rule="evenodd" clip-rule="evenodd" fill="#FEFFEB" cx="53.5" cy="53.5" r="53.5"/>
	</g>
</g>
<g id="Composite_Path">
	<g>
		<path fill-rule="evenodd" clip-rule="evenodd" fill="#181818" d="M70.135,33.387H40.708c-1.308-0.164-2.943,1.803-2.943,2.786
			l-0.164,3.769c-0.981,0.655-1.635,0-2.616,0c-5.558,0-9.482,3.77-10.953,10.815v2.95c0,3.933,4.087,10.324,8.828,12.782
			c1.308,0.655,2.452,1.639,3.76,2.13c1.145,0.492,2.616,0.819,3.76,0.983c0.491,0.655,0.817,1.475,1.308,2.131
			c0.817,1.311,2.289,2.622,3.597,3.769c-0.654,0.983-3.924,4.753-3.924,6.392c0,3.604,10.954,5.08,14.06,5.08
			c0.981,0,14.224-0.983,14.224-5.08c0-1.476-3.924-5.899-3.924-6.228c0-0.164,2.942-2.95,4.414-5.571
			c1.471-2.622,2.289-5.408,2.615-7.702c0.164-0.983,0.327-1.967,0.49-2.95V36.336C73.24,35.025,71.279,33.387,70.135,33.387z
			 M37.601,59.442c-2.942-1.639-5.395-5.244-5.395-7.538s1.798-3.277,3.597-3.277c0.491,0,1.308,0.164,1.798,0.164V59.442z
			 M68.01,59.114c-1.309,9.014-5.068,14.421-12.589,14.421c-5.395,0-9.646-2.621-11.771-9.996c-0.327-1.311-0.654-3.604-0.654-3.933
			V43.219c0.164-0.327,0.491-0.655,0.817-0.655c0.491,0,1.472,0.655,2.125,0.819c2.616,0.983,2.452,0.819,4.578,0.819
			c4.251,0,9.155-2.786,12.261-2.786c0.327,0,1.145,0,1.799,0.164c0.49,0,3.434,1.639,3.434,2.622V59.114z"/>
	</g>
</g>
<g id="Path">
	<g>
		<path fill-rule="evenodd" clip-rule="evenodd" fill="#181818" d="M67.682,28.143c-0.49,0-5.559,0.983-6.049,0.983
			c-0.326,0-1.471,0.164-1.471-1.147c0-0.327,0.163-0.983,0.654-0.983c1.798-0.491,3.923-0.491,5.559-0.982
			c0.653-0.983,0.653-1.64,0.653-2.622c0-0.328-0.491-5.08-1.962-5.08c-0.327,0-2.779,3.277-3.76,3.441
			c-1.635,0.491-3.27,0.163-4.904,0.163c-3.107,0-7.03,0.164-9.319,3.934c0.327,0,4.741-1.147,4.741,0.819
			c0,0.491-0.49,0.983-0.817,1.146c-2.125,0.328-4.25,0-6.376,0.819c-0.817,0.164-2.452,1.476-2.942,2.459h27.628v-0.983
			C69.316,29.617,68.173,28.143,67.682,28.143z"/>
	</g>
</g>
</svg>
