<?xml version="1.0" encoding="utf-8"?>
<!-- Generator: Adobe Illustrator 26.0.1, SVG Export Plug-In . SVG Version: 6.00 Build 0)  -->
<svg version="1.1" id="Layer_1" xmlns="http://www.w3.org/2000/svg" xmlns:xlink="http://www.w3.org/1999/xlink" x="0px" y="0px"
	 viewBox="0 0 215.4 38.6" style="enable-background:new 0 0 215.4 38.6;" xml:space="preserve">
<style type="text/css">
	.st0{fill:#3D3D3D;}
</style>
<g>
	<circle class="st0" cx="19.3" cy="19.3" r="19.3"/>
	<g>
		<path class="st0" d="M64.1,8.1h-5.9v12.9c0.2,1.2-0.2,2.2-0.8,3c-0.7,0.7-1.7,1-2.7,1c-1.2,0-2.2-0.3-2.7-1c-0.7-0.8-1-2-1-3V8.1
			h-5.9v12.9c-0.2,2.5,0.8,4.9,2.7,6.6c1.8,1.7,4.4,2.5,6.9,2.4c2.5,0.2,4.9-0.7,6.9-2.4c1.7-1.7,2.7-4,2.5-6.6V8.1z"/>
		<path class="st0" d="M74.4,12.7c0.7-0.2,1.3-0.3,2-0.3c1,0,2,0.2,3,0.7c1,0.5,1.8,1,2.7,1.7L85,11c-1.2-1-2.5-1.8-4-2.4
			c-1.5-0.5-3.2-0.8-4.7-0.8c-1.5,0-3,0.3-4.4,0.8c-1.2,0.5-2.4,1.3-3,2.4c-0.8,1-1.2,2.4-1.2,3.5c0,1.5,0.5,3,1.5,4
			c1.2,1.2,2.7,2,4.4,2.4l1.3,0.3c1,0.2,2,0.7,3,1.2c0.5,0.2,0.8,0.8,0.8,1.3s-0.2,1-0.7,1.3c-0.7,0.3-1.3,0.5-2,0.5
			c-1.2,0-2.4-0.2-3.5-0.7c-1-0.5-2-1.2-2.9-1.8l-2.9,3.5c1.2,1,2.7,2,4.2,2.5c1.5,0.5,3.2,0.8,4.9,0.8c1.5,0,3-0.2,5-0.8
			c1.2-0.5,2.2-1.3,3-2.4c0.7-1,1-2.2,1-3.5c0-1.5-0.5-2.9-1.5-3.9c-1.3-1.2-3-2.2-4.9-2.5l-1.7-0.5c-0.8-0.2-1.7-0.5-2.5-1
			C74,15,73.7,14.5,73.7,14C73.5,13.5,73.9,13,74.4,12.7z"/>
		<path class="st0" d="M107.8,29.8l-7.7-21.3h-6.7l-7.9,21.3h5.7l1.3-4h8.1l1.3,3.9v0.2H107.8z M94,21.2l2.7-7.6l2.4,7.6H94z"/>
	</g>
	<g>
		<polygon class="st0" points="108.7,13.1 115.1,13.1 115.1,29.8 121,29.8 121,13.1 127.2,13.1 127.2,8.4 108.7,8.4 		"/>
		<path class="st0" d="M147.7,11.3c-1-1-2.2-1.8-3.5-2.4c-2.9-1-6-1-8.9,0c-1.3,0.5-2.5,1.3-3.5,2.4c-1,1-1.8,2.2-2.4,3.5
			c-0.7,1.3-0.8,2.9-0.8,4.4c0,2,0.5,4,1.5,5.7c0.8,1.5,2.2,2.9,3.9,3.9c1.7,0.8,3.7,1.3,5.7,1.3c2,0.2,4-0.3,5.9-1.3
			c1.7-0.8,3-2.2,4-3.9c1-1.7,1.5-3.7,1.5-5.7c0-1.5-0.3-3-1-4.4C149.5,13.5,148.7,12.3,147.7,11.3z M144.1,22.2
			c-0.5,0.8-1,1.7-1.8,2.2c-0.8,0.5-1.7,0.8-2.7,0.8c-1,0.2-2-0.2-2.7-0.8c-0.8-0.5-1.5-1.3-1.8-2.2c-0.5-1-0.7-2-0.7-3.2
			c0-1,0.2-2.2,0.7-3.2c0.5-1,1-1.7,1.8-2.4c1.7-1,3.7-1,5.4,0c0.8,0.7,1.5,1.5,1.8,2.4c0.5,1,0.7,2,0.7,3.2
			C144.8,20,144.6,21.2,144.1,22.2z"/>
		<path class="st0" d="M168,9.6c-1.7-0.8-3.5-1.3-5.5-1.3h-8.4v21.5l8.4-0.3c1.8,0,3.9-0.3,5.5-1.3c1.7-0.8,3-2.2,3.9-3.7
			c1.8-3.5,1.8-7.6,0-11.1C170.9,11.8,169.5,10.4,168,9.6z M166.1,23.4c-1,1.2-2.4,1.7-3.7,1.7h-2.7V13h2.7c1.5,0,2.9,0.5,3.7,1.7
			c1,1.2,1.3,2.9,1.3,4.4C167.5,20.5,167.2,22,166.1,23.4z"/>
		<path class="st0" d="M181.9,8.3l-7.7,21.5h5.7l1.3-4h7.9l1.3,4v-0.2h6l-7.9-21.3H181.9z M182.6,21.4l2.5-7.6l2.5,7.6H182.6z"/>
		<polygon class="st0" points="208.8,8.3 204.9,16.8 200.9,8.3 194.4,8.3 201.9,22 201.9,29.8 207.8,29.8 207.8,22 215.4,8.3 		"/>
	</g>
</g>
</svg>
