<?xml version="1.0" encoding="utf-8"?>
<!-- Generator: Adobe Illustrator 26.0.1, SVG Export Plug-In . SVG Version: 6.00 Build 0)  -->
<svg version="1.1" id="Layer_1" xmlns="http://www.w3.org/2000/svg" xmlns:xlink="http://www.w3.org/1999/xlink" x="0px" y="0px"
	 viewBox="0 0 124.3 17.8" style="enable-background:new 0 0 124.3 17.8;" xml:space="preserve">
<style type="text/css">
	.st0{fill:#3D3D3D;}
</style>
<g>
	<g>
		<path class="st0" d="M30.1,7.4l-0.2,1.1h-0.1c-0.3-0.6-1-1.4-2.7-1.4c-2.7,0-5.4,2.1-6,5.3c-0.5,2.9,0.8,5.4,4,5.4
			c1.2,0,2.5-0.5,3.2-1.4h0.1l-0.2,1.1h3l1.8-10C33,7.4,30.1,7.4,30.1,7.4z M29.1,12.4c-0.2,1-1.1,2.6-3,2.6c-1.8,0-2.2-1.6-2-2.5
			c0.2-1.1,1.2-2.6,3-2.6C28.8,9.9,29.4,11.2,29.1,12.4z"/>
		<path class="st0" d="M34.7,7.4h2.8l-0.2,1.1h0.1c0.4-0.5,1.1-1.4,2.8-1.4l-0.6,3c-1.4,0-2.4,0.3-2.7,1.8l-1,5.5h-3L34.7,7.4z"/>
		<polygon class="st0" points="42.1,3.5 45.1,3.5 43.7,11.1 43.8,11.1 47.2,7.4 50.7,7.4 46.2,11.8 48.8,17.4 45.4,17.4 43.5,12.6 
			43.4,12.6 42.5,17.4 39.5,17.4 		"/>
		<path class="st0" d="M55.5,7.1c-3,0-5.7,2.6-6.2,5.4c-0.6,3,1.5,5.3,4.3,5.3c1,0,2.1-0.3,3-0.9c1-0.6,1.8-1.4,2.5-2.5h-3
			c-0.5,0.5-1.1,0.9-2,0.9c-1.2,0-2-0.7-2-1.9h7.5c0.1-0.2,0.1-0.4,0.2-0.8C60.3,9.5,58.6,7.1,55.5,7.1z M52.5,11.3
			c0.2-0.6,1.1-1.7,2.6-1.7c1.6,0,1.9,1.1,1.9,1.7H52.5z"/>
		<polygon class="st0" points="17.2,3.5 11.9,11.5 11.9,11.5 11.9,3.5 9.3,3.5 0,17.4 3.6,17.4 8.9,9.5 8.9,9.5 8.9,17.4 11.5,17.4 
			16.7,9.5 16.8,9.5 16.8,17.4 19.8,17.4 19.8,3.5 		"/>
		<path class="st0" d="M67.3,7.4h-1.9l0.6-3h-2.6l-0.2,1.1c-0.2,1.3-1.1,1.7-2.1,1.8h0l-0.5,2.3h1.5l-1.4,7.7h3L65,9.7H67L67.3,7.4z
			"/>
	</g>
	<g>
		<g>
			<path class="st0" d="M113.5,13.7c-1,2.3-3.3,4.1-6,4.1c-3,0-4.9-2.4-4.4-5.4c0.6-2.9,3.3-5.3,6.3-5.3c2.6,0,4.5,1.8,4.5,4.2h-3
				c-0.2-0.7-0.6-1.4-1.9-1.4c-1.4-0.1-2.6,1.1-2.8,2.5c-0.3,1.5,0.5,2.5,1.9,2.5c1.2,0,2-0.7,2.4-1.3L113.5,13.7L113.5,13.7z
				 M88.8,0L83,3.5h1.6l-5.3,7.9h-0.1V3.5h-2.6l-5.2,7.9h-0.1V3.5h-3v13.9h2.6l5.3-7.9h0.1v7.9H79l9.3-13.9h1.5L88.8,0z M94.5,17.4
				h-3l0.2-1.1h-0.1c-0.7,1-2,1.4-3.2,1.4c-3.2,0-4.5-2.5-4-5.4c0.6-3.3,3.3-5.3,6-5.3c1.6,0,2.4,0.8,2.7,1.4h0.1l0.2-1.1h3
				L94.5,17.4z M89.4,15c1.8,0,2.8-1.6,3-2.6c0.2-1.2-0.4-2.5-2.1-2.5c-1.7,0-2.7,1.4-3,2.6C87.3,13.4,87.6,15,89.4,15L89.4,15z
				 M103.8,7.4h-1.9l0.6-3h-2.6l-0.2,1.1c-0.2,1.3-1.1,1.7-2.1,1.8h0l-0.4,2.3h1.5l-1.4,7.7h3l1.4-7.7h1.9L103.8,7.4z M116.3,3.5h3
				l-0.9,5h0.1c0.6-0.9,1.5-1.4,2.8-1.4c1,0,2,0.4,2.5,1.1c0.6,1,0.6,1.8,0.2,3.6l-1,5.6h-3l1-5.4c0.1-0.5,0.4-2.1-1.2-2.1
				c-1.7,0-2,1.5-2.1,2l-1,5.5h-3L116.3,3.5z"/>
		</g>
	</g>
</g>
</svg>
