<?xml version="1.0" encoding="utf-8"?>
<!-- Generator: Adobe Illustrator 25.3.1, SVG Export Plug-In . SVG Version: 6.00 Build 0)  -->
<svg version="1.1" id="Layer_1" xmlns="http://www.w3.org/2000/svg" xmlns:xlink="http://www.w3.org/1999/xlink" x="0px" y="0px"
	 viewBox="0 0 106.4 23.1" style="enable-background:new 0 0 106.4 23.1;" xml:space="preserve">
<style type="text/css">
	.st0{fill:#009BFF;}
	.st1{fill:#404040;}
	.st2{fill:#282B6A;}
	.st3{fill:#FFFFFF;}
	.st4{fill:#5F53AE;}
	.st5{fill:#C81A46;}
	.st6{fill:#0E88D3;}
	.st7{fill:#F25C19;}
	.st8{fill:#33B540;}
	.st9{fill:#FAB20B;}
	.st10{fill:#231F20;}
</style>
<g>
	<path id="path96" class="st3" d="M18.9,2.5c0.5-0.9,1.4-1.7,2.3-2.1C22.8-0.3,25,0,26.3,1.1c1.3,1.1,1.9,2.7,1.6,4.5
		c0.3-0.1,0.6-0.3,1-0.4c2-0.6,4,0,5.3,1.7c0.9,1.2,1.2,3.1,0.6,4.5c-0.3,0.7-0.8,1.4-1.4,2l0.1,0.1c1.8,0.1,3.6,1.5,4.2,3.3
		c0.6,1.8,0.1,3.6-1.2,4.9c-1.1,1-2.4,1.4-3.9,1.4H5.3c-2.2,0.1-4-0.9-4.9-2.9c-0.7-1.7-0.4-3.9,1-5.2c0.9-0.9,1.9-1.3,3.1-1.5
		c-1.3-1.2-2-2.9-1.6-4.7c0.3-1.5,1.5-2.9,2.9-3.4C7.1,4.9,8.8,5,9.9,5.6l0,0c-0.3-2,0.5-3.8,2.2-4.9c1.5-1,3.8-1,5.2,0.1
		C18,1.2,18.5,1.9,18.9,2.5"/>
	<path id="path98" class="st4" d="M26.6,3.3C27.2,4.4,26.9,6,26.2,7l-4.7,10.6l0,0L19.8,6.9c-0.1-1,1-1.5,1.6-2
		c0-0.2-0.2-0.1-0.3-0.2l-1.6,0l0-0.1c0-1.3,0.7-2.6,2-3.2c1.3-0.7,3.1-0.5,4.2,0.4C26,2.3,26.4,2.7,26.6,3.3"/>
	<path id="path100" class="st5" d="M17.9,2.9c0.4,0.7,0.6,1.5,0.5,2.4l-1.9,12.4c0,0,0,0,0,0l-0.5-1L11.1,5.9c-0.5-1.4,0-2.8,1-3.8
		c1-1,2.7-1.3,4-0.8C16.8,1.6,17.5,2.2,17.9,2.9"/>
	<path id="path102" class="st6" d="M33.6,8.1c0.6,1.1,0.5,2.8-0.2,3.8c-0.5,0.7-1.2,1.1-1.8,1.6l-10,6.9h0l0.1-0.3L27,8
		c0.8-1.4,2.3-2.1,3.9-1.9C32,6.3,33.1,7,33.6,8.1"/>
	<path id="path104" class="st7" d="M10.9,8l5.5,12.3h-0.1L5.2,12.7c-1.1-1-1.6-2.4-1.2-3.8c0.3-1.1,1.2-2.1,2.3-2.5
		C8,5.7,9.9,6.4,10.9,8"/>
	<path id="path106" class="st8" d="M36.5,16.8c0.6,1.2,0.3,2.8-0.5,3.8c-0.8,1-1.8,1.5-3.1,1.4l-11.9,0l9.9-6.9
		c1-0.6,2.4-0.7,3.5-0.2C35.4,15.2,36.2,16,36.5,16.8"/>
	<path id="path108" class="st9" d="M1.4,16.8c-0.6,1.2-0.3,2.8,0.5,3.8c0.8,1,1.8,1.5,3.1,1.4l11.9,0l-10-6.9
		c-1-0.6-2.4-0.7-3.5-0.2C2.5,15.2,1.7,16,1.4,16.8"/>
	<path id="path110" class="st10" d="M78.7,15.8c0-1.4-1.2-2.3-3.9-2.3h-6.1v4.7H75C77.3,18.2,78.7,17.4,78.7,15.8L78.7,15.8z
		 M77.4,7.3c0-1.4-1.2-2.2-3.5-2.2h-5.2v4.5h4.9C75.9,9.6,77.4,8.9,77.4,7.3L77.4,7.3z M75,22.2H63.5V1h11.2c4.9,0,7.9,2.2,7.9,5.5
		v0.1c0,2.4-1.4,3.7-3.2,4.6c2.8,0.9,4.5,2.4,4.5,5.2v0.1C84,20.3,80.4,22.2,75,22.2"/>
	<path id="path112" class="st10" d="M96.5,22.6c-7.1,0-12.4-4.8-12.4-10.9v-0.1c0-6,5.2-11,12.6-11c4.5,0,7.3,1.3,9.5,3.3l-3.4,3.4
		C100.9,5.9,99.1,5,96.6,5c-4.1,0-7,3-7,6.6v0.1c0,3.6,2.9,6.7,7,6.7c2.8,0,4.4-1,6.3-2.5l3.4,3C103.9,21.2,101.1,22.6,96.5,22.6"/>
	<path id="path114" class="st10" d="M45.8,16.5V8.8l11.7,13.5H62V1h-5.2v13.1L45.5,1h-4.9v16.6v2.6v2h5.2v-2.5L45.8,16.5z"/>
</g>
</svg>
