<?xml version="1.0" encoding="utf-8"?>
<!-- Generator: Adobe Illustrator 26.0.1, SVG Export Plug-In . SVG Version: 6.00 Build 0)  -->
<svg version="1.1" id="Layer_1" xmlns="http://www.w3.org/2000/svg" xmlns:xlink="http://www.w3.org/1999/xlink" x="0px" y="0px"
	 viewBox="0 0 105.2 22" style="enable-background:new 0 0 105.2 22;" xml:space="preserve">
<style type="text/css">
	.st0{fill:#3D3D3D;}
</style>
<g>
	<path id="path98" class="st0" d="M25.5,2.7c0.6,1.1,0.3,2.7-0.4,3.7L20.4,17l0,0L18.7,6.3c-0.1-1,1-1.5,1.6-2
		c0-0.2-0.2-0.1-0.3-0.2h-1.6V4c0-1.3,0.7-2.6,2-3.2c1.3-0.7,3.1-0.5,4.2,0.4C24.9,1.7,25.3,2.1,25.5,2.7"/>
	<path id="path100" class="st0" d="M16.8,2.3c0.4,0.7,0.6,1.5,0.5,2.4l-1.9,12.4l0,0l-0.5-1L10,5.3c-0.5-1.4,0-2.8,1-3.8
		s2.7-1.3,4-0.8C15.7,1,16.4,1.6,16.8,2.3"/>
	<path id="path102" class="st0" d="M32.5,7.5c0.6,1.1,0.5,2.8-0.2,3.8c-0.5,0.7-1.2,1.1-1.8,1.6l-10,6.9l0,0l0.1-0.3l5.3-12.1
		c0.8-1.4,2.3-2.1,3.9-1.9C30.9,5.7,32,6.4,32.5,7.5"/>
	<path id="path104" class="st0" d="M9.8,7.4l5.5,12.3h-0.1L4.1,12.1c-1.1-1-1.6-2.4-1.2-3.8c0.3-1.1,1.2-2.1,2.3-2.5
		C6.9,5.1,8.8,5.8,9.8,7.4"/>
	<path id="path106" class="st0" d="M35.4,16.2c0.6,1.2,0.3,2.8-0.5,3.8s-1.8,1.5-3.1,1.4H19.9l9.9-6.9c1-0.6,2.4-0.7,3.5-0.2
		C34.3,14.6,35.1,15.4,35.4,16.2"/>
	<path id="path108" class="st0" d="M0.3,16.2C-0.3,17.4,0,19,0.8,20s1.8,1.5,3.1,1.4h11.9l-10-6.9c-1-0.6-2.4-0.7-3.5-0.2
		C1.4,14.6,0.6,15.4,0.3,16.2"/>
	<path id="path110" class="st0" d="M77.6,15.2c0-1.4-1.2-2.3-3.9-2.3h-6.1v4.7h6.3C76.2,17.6,77.6,16.8,77.6,15.2L77.6,15.2z
		 M76.3,6.7c0-1.4-1.2-2.2-3.5-2.2h-5.2V9h4.9C74.8,9,76.3,8.3,76.3,6.7L76.3,6.7z M73.9,21.6H62.4V0.4h11.2c4.9,0,7.9,2.2,7.9,5.5
		V6c0,2.4-1.4,3.7-3.2,4.6c2.8,0.9,4.5,2.4,4.5,5.2v0.1C82.9,19.7,79.3,21.6,73.9,21.6"/>
	<path id="path112" class="st0" d="M95.4,22C88.3,22,83,17.2,83,11.1V11c0-6,5.2-11,12.6-11c4.5,0,7.3,1.3,9.5,3.3l-3.4,3.4
		c-1.9-1.4-3.7-2.3-6.2-2.3c-4.1,0-7,3-7,6.6v0.1c0,3.6,2.9,6.7,7,6.7c2.8,0,4.4-1,6.3-2.5l3.4,3C102.8,20.6,100,22,95.4,22"/>
	<path id="path114" class="st0" d="M44.7,15.9V8.2l11.7,13.5h4.5V0.4h-5.2v13.1L44.4,0.4h-4.9V17v2.6v2h5.2v-2.5V15.9z"/>
</g>
</svg>
