<?xml version="1.0" encoding="utf-8"?>
<!-- Generator: Adobe Illustrator 26.0.1, SVG Export Plug-In . SVG Version: 6.00 Build 0)  -->
<svg version="1.1" id="Layer_1" xmlns="http://www.w3.org/2000/svg" xmlns:xlink="http://www.w3.org/1999/xlink" x="0px" y="0px"
	 viewBox="0 0 34.4 15.9" style="enable-background:new 0 0 34.4 15.9;" xml:space="preserve">
<style type="text/css">
	.st0{fill:#3D3D3D;}
</style>
<path class="st0" d="M34.4,15.9c0,0-0.3-0.6-0.7-1.1c-0.3-0.5-0.6-1.1-0.7-1.6c-0.1-0.5-0.7-0.9-0.6-1.6c0.1-0.7-0.1-3.2-0.7-3.9
	c-0.3-0.3-0.4-0.7-0.4-1c0-0.4,0-1.2-0.4-1.6c-0.4-0.4-0.6-1-0.6-2.3c-0.6,0-0.9,0-0.9,0s-0.6-1.2-1.3-1.3c-0.6-0.1-1-0.1-1.2-0.5
	c-0.2-0.3-0.5-0.1-0.9,0c-0.4,0.1-0.6,0-0.8-0.2c-0.2-0.1-0.8-0.1-1,0.3c-0.2,0.3-0.6,0.5-0.7,0.1c-0.2-0.4-0.7-0.4-1-0.6
	S21.8,0,21.8,0H0v10.7h2.3V3.1h3v1.3c0,0,3.3-3.4,6.5-0.1c-1.3,0.9-3.7,5.7,0.8,8.9c0,0.6,0,0.6,0,0.6v0.1H9.4V7.5
	c0,0-0.2-1.7-1.8-1.7c-1.4,0-2,1.5-2,2.1s0,2.8,0,2.8h2.3v5.2L34.4,15.9L34.4,15.9z M14.8,6.2c2.1-0.9,3.4,0.9,3.4,0.9h3.5
	c-0.4-2.4-2.7-3.7-2.7-3.7V3L22,3V4c0,0,0,0,0.2,0c0.2-0.3,1.7-1.4,3.6-1.2c3.1,0.4,3.5,3.8,3.5,3.8v7.4h-3.3c0,0,0-5.4,0-5.9
	s-0.1-2.2-1.8-2.2c-1.9,0.1-1.9,2-1.9,2v6.2h-3.3c0,0,0,0,0-0.4c2.4-1.2,2.7-3.4,2.7-3.4s-2.6,0-3.8,0c-1.5,1.5-3.5,0.6-4.1-0.4
	C13.1,8.5,13.6,6.8,14.8,6.2z"/>
</svg>
