<?xml version="1.0" encoding="utf-8"?>
<!-- Generator: Adobe Illustrator 26.0.3, SVG Export Plug-In . SVG Version: 6.00 Build 0)  -->
<svg version="1.1" id="Layer_1" xmlns="http://www.w3.org/2000/svg" xmlns:xlink="http://www.w3.org/1999/xlink" x="0px" y="0px"
	 viewBox="0 0 103.5 103.5" style="enable-background:new 0 0 103.5 103.5;" xml:space="preserve">
<style type="text/css">
	.st0{fill:#010101;}
</style>
<g>
	<g>
		<path class="st0" d="M51.8,103.5c-13.8,0-26.8-5.4-36.6-15.2S0,65.6,0,51.8s5.4-26.8,15.2-36.6S37.9,0,51.8,0s26.8,5.4,36.6,15.2
			s15.2,22.8,15.2,36.6s-5.4,26.8-15.2,36.6S65.6,103.5,51.8,103.5z M51.8,2.5C24.6,2.5,2.5,24.6,2.5,51.8S24.6,101,51.8,101
			S101,78.9,101,51.8S78.9,2.5,51.8,2.5z"/>
	</g>
</g>
<g>
	<g>
		<g>
			<path class="st0" d="M44.5,69.2c-1.2,0-2-0.1-2.1-0.1c-0.3,0-0.7-0.2-0.9-0.5c-0.1-0.1-2.3-3-3.6-7.4c-1.8-5.9-1.3-11.6,1.6-16.5
				c2.8-4.9,7.5-8.2,13.5-9.6c4.5-1,8.1-0.6,8.2-0.6c0.3,0,0.7,0.2,0.9,0.5c0.1,0.1,2.3,3,3.6,7.4c1.8,5.9,1.3,11.6-1.6,16.5
				c-2.8,4.9-7.5,8.2-13.5,9.6C48.2,69,46,69.2,44.5,69.2z M43.2,66.6c1.1,0.1,3.8,0.1,6.9-0.6c5.3-1.2,9.3-4.1,11.8-8.4
				c2.5-4.3,2.9-9.2,1.4-14.4c-0.9-3-2.3-5.4-2.9-6.3c-1.1-0.1-3.8-0.1-6.9,0.6c-5.3,1.2-9.3,4.1-11.8,8.4
				C36.3,55.1,41.8,64.4,43.2,66.6z"/>
		</g>
	</g>
	<g>
		<g>
			<path class="st0" d="M22,78.6c-0.2,0-0.4-0.1-0.6-0.2c-0.6-0.3-0.8-1.1-0.5-1.7c2.8-4.9,7.5-8.2,13.5-9.6c4.5-1,8.1-0.6,8.2-0.6
				c0.7,0.1,1.2,0.7,1.1,1.4c-0.1,0.7-0.7,1.2-1.4,1.1l0,0c0,0-3.4-0.4-7.5,0.6c-5.3,1.2-9.3,4.1-11.8,8.4
				C22.9,78.4,22.5,78.6,22,78.6z"/>
		</g>
	</g>
	<g>
		<g>
			<path class="st0" d="M44.5,91.6c-0.2,0-0.4-0.1-0.6-0.2c-0.6-0.3-0.8-1.1-0.5-1.7c6-10.4-1.8-21-1.9-21.1
				c-0.4-0.6-0.3-1.3,0.3-1.8c0.6-0.4,1.3-0.3,1.8,0.3c0.1,0.1,2.3,3,3.6,7.4c1.8,5.9,1.3,11.6-1.6,16.5
				C45.3,91.4,44.9,91.6,44.5,91.6z"/>
		</g>
	</g>
	<g>
		<g>
			<path class="st0" d="M61,37c-0.4,0-0.8-0.2-1-0.5c-0.1-0.1-2.3-3-3.6-7.4c-1.8-5.9-1.3-11.6,1.6-16.5c0.3-0.6,1.1-0.8,1.7-0.5
				c0.6,0.3,0.8,1.1,0.5,1.7c-2.5,4.3-2.9,9.2-1.4,14.4C60,32.2,62,35,62,35c0.4,0.6,0.3,1.3-0.3,1.8C61.5,36.9,61.3,37,61,37z"/>
		</g>
	</g>
	<g>
		<g>
			<path class="st0" d="M63,37.1c-1.2,0-2-0.1-2.1-0.1c-0.7-0.1-1.2-0.7-1.1-1.4c0.1-0.7,0.7-1.2,1.4-1.1l0,0c0,0,3.4,0.4,7.5-0.6
				c5.3-1.2,9.3-4.1,11.8-8.4c0.3-0.6,1.1-0.8,1.7-0.5c0.6,0.3,0.8,1.1,0.5,1.7c-2.8,4.9-7.5,8.2-13.5,9.6
				C66.7,37,64.5,37.1,63,37.1z"/>
		</g>
	</g>
	<g>
		<g>
			<path class="st0" d="M65.3,48c-0.2,0-0.4-0.1-0.6-0.2l-15.9-9.2c-0.6-0.3-0.8-1.1-0.5-1.7c0.3-0.6,1.1-0.8,1.7-0.5l15.9,9.2
				c0.6,0.3,0.8,1.1,0.5,1.7C66.1,47.8,65.7,48,65.3,48z"/>
		</g>
	</g>
	<g>
		<g>
			<path class="st0" d="M54.2,67.2c-0.2,0-0.4-0.1-0.6-0.2l-15.9-9.2c-0.6-0.3-0.8-1.1-0.5-1.7c0.3-0.6,1.1-0.8,1.7-0.5l15.9,9.2
				c0.6,0.3,0.8,1.1,0.5,1.7C55,67,54.6,67.2,54.2,67.2z"/>
		</g>
	</g>
	<g>
		<g>
			<path class="st0" d="M64.5,56.1c-0.2,0-0.4-0.1-0.6-0.2L42.1,43.4c-0.6-0.3-0.8-1.1-0.5-1.7c0.3-0.6,1.1-0.8,1.7-0.5l21.8,12.6
				c0.6,0.3,0.8,1.1,0.5,1.7C65.4,55.9,65,56.1,64.5,56.1z"/>
		</g>
	</g>
	<g>
		<g>
			<path class="st0" d="M60.8,62.5c-0.2,0-0.4-0.1-0.6-0.2L38.4,49.8c-0.6-0.3-0.8-1.1-0.5-1.7c0.3-0.6,1.1-0.8,1.7-0.5l21.8,12.6
				c0.6,0.3,0.8,1.1,0.5,1.7C61.7,62.3,61.3,62.5,60.8,62.5z"/>
		</g>
	</g>
	<g>
		<g>
			<path class="st0" d="M72.7,35.2c-0.2,0-0.4-0.1-0.6-0.2l-15.9-9.2c-0.6-0.3-0.8-1.1-0.5-1.7c0.3-0.6,1.1-0.8,1.7-0.5l15.9,9.2
				c0.6,0.3,0.8,1.1,0.5,1.7C73.5,35,73.1,35.2,72.7,35.2z"/>
		</g>
	</g>
	<g>
		<g>
			<path class="st0" d="M79.3,30.5c-0.2,0-0.4-0.1-0.6-0.2L56.9,17.7c-0.6-0.3-0.8-1.1-0.5-1.7c0.3-0.6,1.1-0.8,1.7-0.5L80,28.1
				c0.6,0.3,0.8,1.1,0.5,1.7C80.2,30.2,79.8,30.5,79.3,30.5z"/>
		</g>
	</g>
	<g>
		<g>
			<path class="st0" d="M46.8,80.1c-0.2,0-0.4-0.1-0.6-0.2l-15.9-9.2c-0.6-0.3-0.8-1.1-0.5-1.7c0.3-0.6,1.1-0.8,1.7-0.5l15.9,9.2
				c0.6,0.3,0.8,1.1,0.5,1.7C47.6,79.8,47.2,80.1,46.8,80.1z"/>
		</g>
	</g>
	<g>
		<g>
			<path class="st0" d="M46,88.2c-0.2,0-0.4-0.1-0.6-0.2L23.6,75.4c-0.6-0.3-0.8-1.1-0.5-1.7c0.3-0.6,1.1-0.8,1.7-0.5l21.8,12.6
				c0.6,0.3,0.8,1.1,0.5,1.7C46.9,88,46.4,88.2,46,88.2z"/>
		</g>
	</g>
</g>
<g>
	<g>
		<path class="st0" d="M87.5,88.7c-0.3,0-0.6-0.1-0.9-0.4L15.2,17c-0.5-0.5-0.5-1.3,0-1.8c0.5-0.5,1.3-0.5,1.8,0l71.4,71.4
			c0.5,0.5,0.5,1.3,0,1.8C88.1,88.6,87.8,88.7,87.5,88.7z"/>
	</g>
</g>
</svg>
