<?xml version="1.0" encoding="UTF-8"?>
<svg width="86px" height="22px" viewBox="0 0 86 22" version="1.1" xmlns="http://www.w3.org/2000/svg" xmlns:xlink="http://www.w3.org/1999/xlink">
    <title>paypal</title>
    <g id="-Symbols" stroke="none" stroke-width="1" fill="none" fill-rule="evenodd">
        <g id="express-checkout-cta" transform="translate(-204.000000, -15.000000)" fill-rule="nonzero">
            <g id="paypal" transform="translate(204.000000, 15.000000)">
                <path d="M66.4793651,5.73913043 L61.8380952,5.73913043 C61.5650794,5.73913043 61.2920635,6.01242236 61.1555556,6.28571429 L59.2444444,18.310559 C59.2444444,18.5838509 59.3809524,18.7204969 59.6539683,18.7204969 L62.1111111,18.7204969 C62.384127,18.7204969 62.5206349,18.5838509 62.5206349,18.310559 L63.0666667,14.8944099 C63.0666667,14.621118 63.3396825,14.3478261 63.7492063,14.3478261 L65.2507937,14.3478261 C68.3904762,14.3478261 70.1650794,12.8447205 70.5746032,9.83850932 C70.847619,8.60869565 70.5746032,7.51552795 70.0285714,6.83229814 C69.2095238,6.14906832 67.9809524,5.73913043 66.4793651,5.73913043 M67.0253968,10.2484472 C66.752381,11.8881988 65.5238095,11.8881988 64.2952381,11.8881988 L63.4761905,11.8881988 L64.0222222,8.74534161 C64.0222222,8.60869565 64.1587302,8.47204969 64.431746,8.47204969 L64.7047619,8.47204969 C65.5238095,8.47204969 66.3428571,8.47204969 66.752381,9.01863354 C67.0253968,9.1552795 67.0253968,9.56521739 67.0253968,10.2484472" id="Shape" fill="#139AD6"></path>
                <g id="Group" transform="translate(25.800000, 5.739130)" fill="#263B80">
                    <path d="M7.23492063,0 L2.59365079,0 C2.32063492,0 2.04761905,0.273291925 1.91111111,0.546583851 L0,12.5714286 C0,12.8447205 0.136507937,12.9813665 0.40952381,12.9813665 L2.59365079,12.9813665 C2.86666667,12.9813665 3.13968254,12.7080745 3.27619048,12.4347826 L3.82222222,9.1552795 C3.82222222,8.88198758 4.0952381,8.60869565 4.5047619,8.60869565 L6.00634921,8.60869565 C9.14603175,8.60869565 10.9206349,7.10559006 11.3301587,4.09937888 C11.6031746,2.86956522 11.3301587,1.77639752 10.784127,1.0931677 C9.96507937,0.409937888 8.87301587,0 7.23492063,0 M7.78095238,4.50931677 C7.50793651,6.14906832 6.27936508,6.14906832 5.05079365,6.14906832 L4.36825397,6.14906832 L4.91428571,3.00621118 C4.91428571,2.86956522 5.05079365,2.73291925 5.32380952,2.73291925 L5.5968254,2.73291925 C6.41587302,2.73291925 7.23492063,2.73291925 7.64444444,3.27950311 C7.78095238,3.41614907 7.91746032,3.82608696 7.78095238,4.50931677" id="Shape"></path>
                    <path d="M21.2952381,4.37267081 L19.1111111,4.37267081 C18.9746032,4.37267081 18.7015873,4.50931677 18.7015873,4.64596273 L18.5650794,5.32919255 L18.4285714,5.05590062 C17.8825397,4.37267081 16.9269841,4.09937888 15.8349206,4.09937888 C13.3777778,4.09937888 11.1936508,6.01242236 10.784127,8.60869565 C10.5111111,9.97515528 10.9206349,11.2049689 11.6031746,12.0248447 C12.2857143,12.8447205 13.2412698,13.1180124 14.4698413,13.1180124 C16.5174603,13.1180124 17.6095238,11.8881988 17.6095238,11.8881988 L17.4730159,12.5714286 C17.4730159,12.8447205 17.6095238,12.9813665 17.8825397,12.9813665 L19.9301587,12.9813665 C20.2031746,12.9813665 20.4761905,12.7080745 20.6126984,12.4347826 L21.8412698,4.7826087 C21.7047619,4.64596273 21.431746,4.37267081 21.2952381,4.37267081 M18.1555556,8.74534161 C17.8825397,9.97515528 16.9269841,10.931677 15.5619048,10.931677 C14.8793651,10.931677 14.3333333,10.6583851 14.0603175,10.3850932 C13.7873016,9.97515528 13.6507937,9.42857143 13.6507937,8.74534161 C13.7873016,7.51552795 14.8793651,6.55900621 16.1079365,6.55900621 C16.7904762,6.55900621 17.2,6.83229814 17.6095238,7.10559006 C18.0190476,7.51552795 18.1555556,8.19875776 18.1555556,8.74534161" id="Shape"></path>
                </g>
                <path d="M80.4031746,10.1118012 L78.2190476,10.1118012 C78.0825397,10.1118012 77.8095238,10.2484472 77.8095238,10.3850932 L77.6730159,11.068323 L77.5365079,10.7950311 C76.9904762,10.1118012 76.0349206,9.83850932 74.9428571,9.83850932 C72.4857143,9.83850932 70.3015873,11.7515528 69.8920635,14.3478261 C69.6190476,15.7142857 70.0285714,16.9440994 70.7111111,17.7639752 C71.3936508,18.5838509 72.3492063,18.8571429 73.5777778,18.8571429 C75.6253968,18.8571429 76.7174603,17.6273292 76.7174603,17.6273292 L76.5809524,18.310559 C76.5809524,18.5838509 76.7174603,18.7204969 76.9904762,18.7204969 L79.0380952,18.7204969 C79.3111111,18.7204969 79.584127,18.447205 79.7206349,18.173913 L80.9492063,10.5217391 C80.8126984,10.3850932 80.6761905,10.1118012 80.4031746,10.1118012 M77.2634921,14.484472 C76.9904762,15.7142857 76.0349206,16.6708075 74.6698413,16.6708075 C73.9873016,16.6708075 73.4412698,16.3975155 73.168254,16.1242236 C72.8952381,15.7142857 72.7587302,15.1677019 72.7587302,14.484472 C72.8952381,13.2546584 73.9873016,12.2981366 75.215873,12.2981366 C75.8984127,12.2981366 76.3079365,12.5714286 76.7174603,12.8447205 C77.2634921,13.2546584 77.4,13.9378882 77.2634921,14.484472" id="Shape" fill="#139AD6"></path>
                <path d="M58.9714286,10.1118012 L56.6507937,10.1118012 C56.3777778,10.1118012 56.2412698,10.2484472 56.1047619,10.3850932 L53.1015873,15.0310559 L51.7365079,10.6583851 C51.6,10.3850932 51.4634921,10.2484472 51.0539683,10.2484472 L48.8698413,10.2484472 C48.5968254,10.2484472 48.4603175,10.5217391 48.4603175,10.7950311 L50.9174603,18.0372671 L48.5968254,21.3167702 C48.4603175,21.5900621 48.5968254,22 48.8698413,22 L51.0539683,22 C51.3269841,22 51.4634921,21.863354 51.6,21.7267081 L59.1079365,10.931677 C59.5174603,10.5217391 59.2444444,10.1118012 58.9714286,10.1118012" id="Path" fill="#263B80"></path>
                <path d="M82.9968254,6.14906832 L81.0857143,18.447205 C81.0857143,18.7204969 81.2222222,18.8571429 81.4952381,18.8571429 L83.4063492,18.8571429 C83.6793651,18.8571429 83.952381,18.5838509 84.0888889,18.310559 L86,6.28571429 C86,6.01242236 85.8634921,5.8757764 85.5904762,5.8757764 L83.4063492,5.8757764 C83.2698413,5.73913043 83.1333333,5.8757764 82.9968254,6.14906832" id="Path" fill="#139AD6"></path>
                <path d="M15.6984127,1.63975155 C14.7428571,0.546583851 12.968254,4.85463981e-15 10.5111111,4.85463981e-15 L3.68571429,4.85463981e-15 C3.27619048,4.85463981e-15 2.86666667,0.409937888 2.73015873,0.819875776 L0,18.7204969 C0,19.1304348 0.273015873,19.4037267 0.546031746,19.4037267 L4.77777778,19.4037267 L5.86984127,12.7080745 L5.86984127,12.9813665 C6.00634921,12.5714286 6.41587302,12.1614907 6.82539683,12.1614907 L8.87301587,12.1614907 C12.831746,12.1614907 15.8349206,10.5217391 16.7904762,6.01242236 C16.7904762,5.8757764 16.7904762,5.73913043 16.7904762,5.60248447 C16.6539683,5.60248447 16.6539683,5.60248447 16.7904762,5.60248447 C16.9269841,3.82608696 16.6539683,2.73291925 15.6984127,1.63975155" id="Path" fill="#263B80"></path>
                <path d="M16.6539683,5.60248447 L16.6539683,5.60248447 C16.6539683,5.73913043 16.6539683,5.8757764 16.6539683,6.01242236 C15.6984127,10.6583851 12.6952381,12.1614907 8.73650794,12.1614907 L6.68888889,12.1614907 C6.27936508,12.1614907 5.86984127,12.5714286 5.73333333,12.9813665 L4.36825397,21.3167702 C4.36825397,21.5900621 4.5047619,21.863354 4.91428571,21.863354 L8.46349206,21.863354 C8.87301587,21.863354 9.28253968,21.5900621 9.28253968,21.1801242 L9.28253968,21.0434783 L9.96507937,16.8074534 L9.96507937,16.5341615 C9.96507937,16.1242236 10.3746032,15.8509317 10.784127,15.8509317 L11.3301587,15.8509317 C14.7428571,15.8509317 17.4730159,14.484472 18.1555556,10.3850932 C18.4285714,8.74534161 18.2920635,7.24223602 17.4730159,6.28571429 C17.3365079,6.01242236 17.0634921,5.73913043 16.6539683,5.60248447" id="Path" fill="#139AD6"></path>
                <path d="M15.6984127,5.19254658 C15.5619048,5.19254658 15.4253968,5.05590062 15.2888889,5.05590062 C15.152381,5.05590062 15.015873,5.05590062 14.8793651,4.91925466 C14.3333333,4.7826087 13.7873016,4.7826087 13.1047619,4.7826087 L7.78095238,4.7826087 C7.64444444,4.7826087 7.50793651,4.7826087 7.37142857,4.91925466 C7.0984127,5.05590062 6.96190476,5.32919255 6.96190476,5.60248447 L5.86984127,12.7080745 L5.86984127,12.9813665 C6.00634921,12.5714286 6.41587302,12.1614907 6.82539683,12.1614907 L8.87301587,12.1614907 C12.831746,12.1614907 15.8349206,10.5217391 16.7904762,6.01242236 C16.7904762,5.8757764 16.7904762,5.73913043 16.9269841,5.60248447 C16.6539683,5.46583851 16.5174603,5.32919255 16.2444444,5.32919255 C15.8349206,5.19254658 15.8349206,5.19254658 15.6984127,5.19254658" id="Path" fill="#232C65"></path>
            </g>
        </g>
    </g>
</svg>