<?xml version="1.0" encoding="utf-8"?>
<!-- Generator: Adobe Illustrator 26.0.3, SVG Export Plug-In . SVG Version: 6.00 Build 0)  -->
<svg version="1.1" id="Layer_1" xmlns="http://www.w3.org/2000/svg" xmlns:xlink="http://www.w3.org/1999/xlink" x="0px" y="0px"
	 viewBox="0 0 199.1 199.1" style="enable-background:new 0 0 199.1 199.1;" xml:space="preserve">
<style type="text/css">
	.st0{fill:#010101;}
</style>
<path class="st0" d="M133.9,25.9l5.6,3.1c3.7,2.1,5,6.2,3,9.7c-2,3.6-6.1,4.7-9.9,2.6l-5.6-3.1L133.9,25.9z M134.2,37.5
	c1.3,0.7,2.8,0.1,3.6-1.4s0.5-3.1-0.8-3.8l-0.7-0.4l-2.9,5.2L134.2,37.5z"/>
<path class="st0" d="M153.3,52l-1.6,4.6l-4.2-4.1l1.3-3.4l-0.4-0.4l-2.3,2.4l-3.7-3.6l9.8-10.1l5.5,5.3c2.3,2.2,2.3,5.5,0.1,7.7
	C156.5,51.6,154.9,52.2,153.3,52 M150.9,45.9l0.9,0.9c0.6,0.6,1.5,0.5,2.1-0.1c0.6-0.7,0.6-1.6,0.1-2.1l-0.9-0.9L150.9,45.9z"/>
<path class="st0" d="M160.1,55.8c3.4-2,8-1.2,10.6,3.1c2.5,4.4,0.9,8.7-2.5,10.7s-8,1.2-10.6-3.1C155.1,62.2,156.7,57.8,160.1,55.8
	 M165.5,65.1c1.3-0.8,2.1-2.2,1.2-3.8c-0.9-1.6-2.6-1.6-3.9-0.8c-1.3,0.8-2.1,2.2-1.2,3.8C162.5,65.8,164.2,65.8,165.5,65.1"/>
<path class="st0" d="M175.1,87.5c-3,0.8-5.8-0.9-6.6-3.9l-0.6-2.4l-3.2,0.8l-1.3-5l13.6-3.6l1.9,7.4
	C179.8,83.8,178.1,86.7,175.1,87.5 M173.8,82.4c0.9-0.2,1.4-1,1.1-1.8l-0.3-1.2l-3,0.8l0.3,1.2C172.1,82.2,172.9,82.6,173.8,82.4"/>
<rect x="171.6" y="97.7" transform="matrix(6.323620e-02 -0.998 0.998 6.323620e-02 58.6145 271.8474)" class="st0" width="5.1" height="14.1"/>
<polygon class="st0" points="175.1,116.7 176,113.5 180.2,114.5 177.2,126.1 173,125 173.9,121.7 164.4,119.3 165.7,114.3 "/>
<polygon class="st0" points="170.2,141.2 167.4,145.5 159.2,140.1 156.8,143.7 153.2,141.3 158.5,133.4 "/>
<rect x="150.7" y="144.6" transform="matrix(0.6952 -0.7188 0.7188 0.6952 -62.3119 156.356)" class="st0" width="5.1" height="14.1"/>
<polygon class="st0" points="138.5,163.5 130.9,160.2 135.7,157 141.8,160 138.5,155.1 142.8,152.2 150.6,164 146.4,166.8 
	143.1,161.9 143.5,168.7 138.7,171.9 "/>
<polygon class="st0" points="131.9,174.9 122.9,178.2 121.6,174.7 125.8,173.2 125.2,171.6 121.1,173.1 119.9,169.8 124.1,168.3 
	123.5,166.9 119.4,168.3 118.1,164.9 127.1,161.7 "/>
<rect x="100.6" y="167.2" transform="matrix(0.9991 -4.292755e-02 4.292755e-02 0.9991 -7.3852 4.5887)" class="st0" width="5.1" height="14.1"/>
<polygon class="st0" points="91.2,176.5 94.6,177 94,181.3 82.2,179.6 82.8,175.3 86.2,175.8 87.6,166.1 92.7,166.9 "/>
<path class="st0" d="M71.9,173.3c1-2.9,3-3.6,5.4-2.7c0.2,0.1,0.4,0.2,0.6,0.3l-0.5,1.4c-0.3-0.1-0.5-0.2-0.7-0.3
	c-0.7-0.3-1.4-0.2-1.8,0c-0.5,0.2-0.8,0.6-1,1c0.2-0.1,0.6-0.1,1,0c1.4,0.5,1.7,1.8,1.3,3c-0.4,1.2-1.7,1.9-3,1.4
	C71.8,176.8,71.3,175.3,71.9,173.3"/>
<path class="st0" d="M69.6,165.3l-4.4-2.6c0.5-0.8,0.3-1.5-0.4-1.9c-0.5-0.3-0.9-0.2-1.2,0.2c-0.2,0.4-0.1,0.8,0.4,1.3l2.1,2.5
	c1.5,1.7,1.7,3.5,0.7,5.1c-1.4,2.4-4.2,2.9-7.5,1c-3.2-1.9-4.5-4.6-3.1-7l4.4,2.6c-0.4,0.7-0.3,1.3,0.3,1.6c0.5,0.3,0.9,0.2,1.1-0.2
	c0.2-0.3,0.1-0.6-0.5-1.4l-1.9-2.3c-1.6-1.9-1.6-3.6-0.7-5.2c1.5-2.7,4.5-3.1,7.8-1.2C70,159.7,71.1,162.6,69.6,165.3"/>
<polygon class="st0" points="40.9,156.3 37.7,152.3 41.6,149.1 39.7,146.8 35.8,149.9 32.6,146 43.6,137.1 46.8,141.1 43,144.2 
	44.9,146.5 48.7,143.4 51.9,147.4 "/>
<path class="st0" d="M34.8,136.5c-3.7,1.6-8.1,0.2-10.1-4.4c-2-4.7,0.2-8.8,3.8-10.3c3.7-1.6,8.1-0.2,10.1,4.4
	S38.5,134.9,34.8,136.5 M30.7,126.6c-1.4,0.6-2.4,1.9-1.7,3.6c0.7,1.7,2.3,1.9,3.8,1.3c1.4-0.6,2.4-1.9,1.7-3.6
	C33.7,126.3,32.1,126,30.7,126.6"/>
<polygon class="st0" points="24.3,114.1 24.8,117.5 20.6,118.1 18.8,106.3 23,105.7 23.5,109 33.2,107.6 34,112.6 "/>
<polygon class="st0" points="32.8,102.1 17.8,94.9 19.5,91.5 34.4,98.7 "/>
<path class="st0" d="M26.4,87.5c-4.2-1.2-6.3-5.3-5.1-9.8c1.3-4.5,4.2-6.8,8.1-6L28,76.9c-1-0.1-1.9,0.7-2.3,2
	c-0.5,1.6,0.3,2.9,2.1,3.4c1.8,0.5,3.1-0.2,3.6-1.8c0.4-1.4,0-2.5-0.9-2.9l1.5-5.2c3.8,1.4,5.1,4.9,3.8,9.3
	C34.6,86.3,30.6,88.7,26.4,87.5"/>
<path class="st0" d="M33,67.2c-3.4-2.1-4.8-6.5-2.1-10.8s7.3-4.9,10.7-2.7c3.4,2.1,4.8,6.5,2.1,10.8C40.9,68.7,36.4,69.3,33,67.2
	 M38.7,58.1c-1.3-0.8-3-0.9-3.9,0.7c-1,1.5-0.2,3,1.1,3.8s3,0.9,3.9-0.7C40.7,60.4,40,59,38.7,58.1"/>
<polygon class="st0" points="40.7,44.3 44.4,40.7 51.2,47.8 54.3,44.8 57.3,47.9 50.4,54.5 "/>
<path class="st0" d="M53.9,32.8l5.5-3.2c3.7-2.1,7.9-1.1,9.9,2.4c2,3.6,0.8,7.6-2.9,9.8L61,45L53.9,32.8z M64,38.5
	c1.3-0.7,1.6-2.4,0.7-3.8c-0.8-1.5-2.4-2-3.7-1.3l-0.7,0.4l2.9,5.1L64,38.5z"/>
</svg>
