<?xml version="1.0" encoding="utf-8"?>
<!-- Generator: Adobe Illustrator 25.4.1, SVG Export Plug-In . SVG Version: 6.00 Build 0)  -->
<svg version="1.1" id="Layer_1" xmlns="http://www.w3.org/2000/svg" xmlns:xlink="http://www.w3.org/1999/xlink" x="0px" y="0px"
	 viewBox="0 0 116 23.9" style="enable-background:new 0 0 116 23.9;" xml:space="preserve">
<style type="text/css">
	.st0{fill:#676767;}
	.st1{fill:#C8202F;}
</style>
<g>
	<g>
		<g>
			<g>
				<path class="st0" d="M44.9,7.3C45,7.1,45.1,7,45.2,6.8c0.1-0.2,0.3-0.2,0.4-0.1c0.1,0.1,1,0.8,1.9,0.8c0.8,0,1.4-0.5,1.4-1.1
					c0-0.7-0.6-1.2-1.8-1.7s-2.2-1.2-2.2-2.6C45,1.3,45.7,0,47.6,0c1.2,0,2.1,0.6,2.2,0.7s0.2,0.2,0.1,0.4c-0.1,0.1-0.2,0.3-0.3,0.5
					c-0.1,0.2-0.3,0.2-0.4,0.1c-0.1,0-0.9-0.6-1.6-0.6c-1,0-1.4,0.6-1.4,1.1c0,0.7,0.5,1.1,1.5,1.5c1.4,0.6,2.6,1.2,2.6,2.7
					c0,1.2-1.1,2.3-2.7,2.3c-1.5,0-2.4-0.8-2.6-1C44.9,7.6,44.8,7.5,44.9,7.3z"/>
				<path class="st0" d="M53,5.5c0.5,0,0.9,0.1,0.9,0.1c0-0.8-0.1-1.1-0.7-1.1s-1.1,0.1-1.3,0.2c-0.1,0-0.2-0.1-0.3-0.2l-0.1-0.4
					c0-0.2,0-0.2,0.2-0.3c0.1,0,0.8-0.3,1.7-0.3c1.5,0,1.7,0.9,1.7,2.1v2.6c0,0.1-0.1,0.2-0.2,0.2h-0.3c-0.1,0-0.2,0-0.2-0.2
					l-0.1-0.3c-0.3,0.2-0.7,0.6-1.5,0.6c-0.9,0-1.5-0.6-1.5-1.6C51.1,6.2,51.8,5.5,53,5.5z M52.9,7.8c0.5,0,0.9-0.4,1.1-0.6V6.4
					c-0.1,0-0.4-0.2-0.8-0.2c-0.6,0-1,0.3-1,0.8S52.4,7.8,52.9,7.8z"/>
				<path class="st0" d="M55.9,4c-0.1-0.2,0-0.3,0.2-0.3h0.7c0.1,0,0.2,0.1,0.2,0.1l1.2,2.8l0,0l1.3-2.8c0.1-0.1,0.2-0.1,0.3-0.1
					h0.6c0.2,0,0.3,0.1,0.2,0.3l-2.1,4.5c0,0.1-0.1,0.1-0.2,0.1h-0.1c-0.1,0-0.2-0.1-0.2-0.1L55.9,4z"/>
				<path class="st0" d="M63.6,3.7c1.2,0,2.2,0.9,2.2,2.2c0,0.1,0,0.2,0,0.3c0,0.1-0.1,0.2-0.2,0.2h-3.3c0,0.6,0.6,1.3,1.4,1.3
					c0.4,0,0.8-0.2,1.1-0.3c0.1-0.1,0.2-0.1,0.3,0l0.3,0.5c0.1,0.1,0.1,0.2,0,0.3c-0.3,0.3-1,0.6-1.8,0.6c-1.5,0-2.4-1.2-2.4-2.5
					C61.2,4.8,62.2,3.7,63.6,3.7z M64.7,5.7c0-0.6-0.5-1.1-1.1-1.1s-1.2,0.5-1.2,1.1H64.7z"/>
				<path class="st0" d="M69.5,4.1c0-0.1,0.1-0.2,0.2-0.2h0.7c0.1,0,0.2,0.1,0.2,0.2v2.5c0,0.8,0.4,1.2,1,1.2c0.7,0,1.2-0.6,1.2-0.8
					V4.1c0-0.2,0.1-0.2,0.3-0.2h0.6c0.1,0,0.2,0.1,0.2,0.2v4.3c0,0.1-0.1,0.2-0.2,0.2h-0.3c-0.1,0-0.2-0.1-0.2-0.2L73,8.1
					c-0.1,0.1-0.6,0.7-1.6,0.6c-1.4,0-1.9-1-1.9-2.3V4.1z"/>
				<path class="st0" d="M76.6,12.1c0,0.1-0.1,0.2-0.3,0.2h-0.7c-0.1,0-0.2-0.1-0.2-0.2V4.2c0-0.1,0.1-0.2,0.2-0.2H76
					c0.1,0,0.2,0,0.2,0.2l0.1,0.3c0.1-0.1,0.6-0.6,1.5-0.6c1.3,0,2.3,1.2,2.3,2.5c0,1.4-1,2.5-2.4,2.5c-0.6,0-1.1-0.3-1.2-0.3
					L76.6,12.1z M77.7,7.8c0.8,0,1.4-0.7,1.4-1.5s-0.5-1.5-1.3-1.5c-0.7,0-1.1,0.5-1.1,0.7v1.9C76.6,7.4,77,7.8,77.7,7.8z"/>
				<path class="st0" d="M84.3,4.9h-0.5c-0.1,0-0.2-0.1-0.2-0.2V4.2c0-0.1,0.1-0.2,0.2-0.2h0.5V2.7c0-0.1,0.1-0.2,0.2-0.2h0.7
					c0.1,0,0.2,0.1,0.2,0.2V4h1.2c0.1,0,0.2,0.1,0.2,0.2v0.5c0,0.1-0.1,0.2-0.2,0.2h-1.2v2.4c0,0.4,0.2,0.5,0.4,0.5
					c0.3,0,0.6-0.1,0.7-0.2c0.2-0.1,0.2,0,0.3,0.1L87,8.2c0.1,0.1,0,0.2-0.1,0.3s-0.8,0.4-1.4,0.4c-0.9,0-1.2-0.6-1.2-1.4L84.3,4.9z
					"/>
				<path class="st0" d="M90.2,3.9c1.3,0,2.4,1.2,2.4,2.5c0,1.4-1.1,2.5-2.4,2.5s-2.4-1.2-2.4-2.5C87.8,5,88.9,3.8,90.2,3.9z
					 M90.2,7.9c0.8,0,1.4-0.7,1.4-1.5S91,4.9,90.3,4.9c-0.8,0-1.4,0.7-1.4,1.5C88.9,7.2,89.5,7.9,90.2,7.9z"/>
			</g>
		</g>
		<g>
			<path class="st1" d="M96.3,7.5l0.8-0.8c0.1-0.1,0.2-0.1,0.3,0c0,0,0.7,0.6,1.3,0.6c0.5,0,1-0.4,1-1c0-0.5-0.5-1-1.4-1h-0.7
				c-0.1,0-0.2-0.1-0.2-0.2v-1c0-0.1,0.1-0.2,0.2-0.2h0.7c0.8,0,1.3-0.4,1.3-0.9s-0.4-0.9-1-0.9c-0.5,0-0.9,0.3-1,0.5
				c-0.1,0.1-0.2,0.1-0.3,0l-0.7-0.7c-0.1-0.1-0.1-0.2,0-0.3c0,0,1-1,2.3-1c1.4,0,2.6,0.9,2.6,2.2c0,0.9-0.7,1.6-1.2,1.9l0,0
				c0.6,0.2,1.4,1,1.4,2c0,1.3-1.2,2.3-2.8,2.3c-1.5,0-2.3-0.8-2.5-1.1C96.2,7.7,96.2,7.6,96.3,7.5z"/>
			<path class="st1" d="M106.6,0.4c0.2-0.1,0.3,0,0.4,0.2l0.3,0.9c0,0.1,0,0.3-0.2,0.3c-0.6,0.2-2.2,0.7-2.4,2
				c0.3-0.1,0.8-0.2,1.1-0.2c1.1,0,2.4,0.8,2.4,2.6c0,1.5-1.3,2.7-2.8,2.7c-1.9,0-2.9-1.4-2.9-3.3C102.6,2.1,105.6,0.7,106.6,0.4z
				 M105.4,7.3c0.6,0,1.2-0.5,1.2-1.1S106.1,5,105.5,5s-1.2,0.5-1.2,1.2C104.3,6.8,104.8,7.3,105.4,7.3z"/>
			<path class="st1" d="M108.8,1.9c0-0.9,0.7-1.6,1.6-1.6S112,1,112,1.9s-0.7,1.6-1.6,1.6C109.5,3.6,108.8,2.8,108.8,1.9z
				 M113.8,0.6c0-0.1,0.1-0.1,0.2-0.1h0.9c0.2,0,0.3,0.2,0.2,0.3l-4.2,7.9c0,0-0.1,0.1-0.2,0.1h-0.9c-0.2,0-0.3-0.2-0.2-0.3
				L113.8,0.6z M110.8,2c0-0.2-0.2-0.4-0.4-0.4c-0.2,0-0.4,0.2-0.4,0.4s0.2,0.4,0.4,0.4C110.6,2.4,110.8,2.2,110.8,2z M114.4,5.8
				c0.9,0,1.6,0.7,1.6,1.6S115.3,9,114.4,9c-0.9,0-1.6-0.7-1.6-1.6C112.8,6.5,113.5,5.8,114.4,5.8z M114.4,7.8
				c0.2,0,0.4-0.2,0.4-0.4c0-0.2-0.2-0.4-0.4-0.4S114,7.2,114,7.4C114,7.6,114.2,7.8,114.4,7.8z"/>
		</g>
	</g>
	<path class="st1" d="M40.8,4.3c-10.8,0.8-26.2,4.5-39,16.9L2.6,14l-1.5-0.3L0,23.9l9-0.5l-0.1-1.5l-6.2,0.3
		C15.3,10,30.3,6.4,40.9,5.7l0.3,0V4.3L40.8,4.3z"/>
</g>
</svg>
