<?xml version="1.0" encoding="utf-8"?>
<!-- Generator: Adobe Illustrator 26.0.1, SVG Export Plug-In . SVG Version: 6.00 Build 0)  -->
<svg version="1.1" id="Layer_1" xmlns="http://www.w3.org/2000/svg" xmlns:xlink="http://www.w3.org/1999/xlink" x="0px" y="0px"
	 viewBox="0 0 22.1 14.7" style="enable-background:new 0 0 22.1 14.7;" xml:space="preserve">
<path d="M18.3,2.7L18.3,2.7l-2.5,0v-2h-1.2h-0.9H6.4H5.8H4v2.6H0.6V4H4v1.7H1.2v0.9H4v1.7H1.7v0.9H4v3.3h2.2
	c0.1,0.9,0.8,1.6,1.7,1.6s1.6-0.7,1.7-1.6h6.9c0.1,0.9,0.8,1.6,1.7,1.6s1.6-0.7,1.7-1.6h1.8V6.9C21.5,4.3,20.2,2.7,18.3,2.7z
	 M7.9,13.3c-0.5,0-0.9-0.5-0.9-1s0.4-1,0.9-1c0.5,0,0.9,0.5,0.9,1S8.4,13.3,7.9,13.3z M15,11.7H9.5c-0.2-0.8-0.8-1.3-1.6-1.3
	c-0.7,0-1.4,0.5-1.6,1.3H4.7V1.5h1h0.6h7.3h0.9H15L15,11.7z M18.1,13.3c-0.5,0-0.9-0.5-0.9-1s0.4-1,0.9-1c0.5,0,0.9,0.5,0.9,1
	S18.6,13.3,18.1,13.3z M19.7,11.7c-0.2-0.8-0.8-1.3-1.6-1.3c-0.8,0-1.4,0.5-1.6,1.3h-0.7V3.5h2.5c1.5,0,2.5,1.3,2.5,3.4l0,4.8H19.7z
	"/>
</svg>
