<?xml version="1.0" encoding="utf-8"?>
<!-- Generator: Adobe Illustrator 26.0.1, SVG Export Plug-In . SVG Version: 6.00 Build 0)  -->
<svg version="1.1" id="Layer_1" xmlns="http://www.w3.org/2000/svg" xmlns:xlink="http://www.w3.org/1999/xlink" x="0px" y="0px"
	 viewBox="0 0 421.7 48.1" style="enable-background:new 0 0 421.7 48.1;" xml:space="preserve">
<g>
	<path d="M362.6,16c1.3-0.3,2.4-0.5,3.5-0.7c0.2,0,0.4-0.2,0.2-0.4c-0.2-0.3-1.2-1.8-2-3c-0.7-1.1-0.4-1.1,0.5-0.4
		c0.9,0.7,1.7,1.4,2.6,2.1c0.2,0.2,0.4,0,0.4-0.2c0.1-1.3,0.3-2.7,0.5-4c0.6-3.2,1.2-2.8,1.4-0.5c0.1,1.6,0.4,3,0.6,4.6
		c0,0.2,0.2,0.5,0.4,0.4c0.7-0.7,1.5-1.4,2.2-2c2-1.6,2-1,0.9,0.4c-0.7,0.9-1.4,1.9-2.1,2.9c-0.1,0.2,0,0.5,0.2,0.5
		c1.1,0.3,2.2,0.6,3.3,0.8c1,0.2,1.3,0.7,0.1,1.1c-0.7,0.2-1.6,0.3-1.8,0.4c-0.5,0.1-1,0.2-1.5,0.3c-0.2,0-0.4,0.3-0.3,0.4
		c0.6,0.8,1.2,1.6,1.7,2.4c1.5,2.2,0.9,2.3-0.3,1c-0.7-0.7-1.5-1.4-2.2-2.1c-0.2-0.2-0.4,0.1-0.4,0.4c0,0.2-0.1,0.5-0.1,0.7
		c-0.1,0.4-0.4,2.6-0.8,4.4c-0.4,1.6-0.7,1.3-1-0.1c-0.3-1.5-0.6-3-0.8-4.5c0-0.2,0-0.4-0.1-0.6c0-0.2-0.2-0.4-0.4-0.3
		c-0.5,0.5-1.5,1.3-2.3,1.9c-1,0.8-1,0.4-0.4-0.5c0.6-0.9,1.1-1.8,1.8-2.7c0.2-0.2,0.2-0.6,0-0.7c-1-0.2-2-0.5-3.1-0.7
		C361.9,17,361.4,16.2,362.6,16z"/>
	<path d="M396.3,21.6c0.6-0.1,1.1-0.2,1.6-0.3c0.1,0,0.2-0.1,0.1-0.2c-0.1-0.1-0.6-0.8-0.9-1.4c-0.3-0.5-0.2-0.5,0.2-0.2
		c0.4,0.3,0.8,0.6,1.2,1c0.1,0.1,0.2,0,0.2-0.1c0.1-0.6,0.1-1.3,0.2-1.9c0.3-1.5,0.6-1.3,0.7-0.2c0.1,0.7,0.2,1.4,0.3,2.1
		c0,0.1,0.1,0.2,0.2,0.2c0.3-0.3,0.7-0.6,1-0.9c0.9-0.8,0.9-0.5,0.4,0.2c-0.3,0.4-0.6,0.9-1,1.3c-0.1,0.1,0,0.2,0.1,0.2
		c0.5,0.1,1,0.3,1.5,0.4c0.5,0.1,0.6,0.3,0,0.5c-0.3,0.1-0.7,0.1-0.8,0.2c-0.2,0-0.5,0.1-0.7,0.1c-0.1,0-0.2,0.1-0.1,0.2
		c0.3,0.4,0.5,0.7,0.8,1.1c0.7,1,0.4,1-0.2,0.5c-0.3-0.3-0.7-0.6-1-1c-0.1-0.1-0.2,0.1-0.2,0.2c0,0.1,0,0.2,0,0.3
		c0,0.2-0.2,1.2-0.4,2.1c-0.2,0.7-0.3,0.6-0.5,0c-0.1-0.7-0.3-1.4-0.4-2.1c0-0.1,0-0.2,0-0.3c0-0.1-0.1-0.2-0.2-0.1
		c-0.2,0.2-0.7,0.6-1.1,0.9c-0.5,0.4-0.5,0.2-0.2-0.3c0.3-0.4,0.5-0.8,0.8-1.3c0.1-0.1,0.1-0.3,0-0.3c-0.5-0.1-0.9-0.2-1.4-0.3
		C396,22,395.8,21.7,396.3,21.6z"/>
	<path d="M381.4,36.1c0.8-0.2,1.5-0.3,2.2-0.4c0.1,0,0.2-0.2,0.2-0.3c-0.1-0.2-0.8-1.1-1.3-1.9c-0.4-0.7-0.2-0.7,0.3-0.3
		c0.5,0.4,1.1,0.9,1.6,1.3c0.1,0.1,0.3,0,0.3-0.1c0.1-0.8,0.2-1.7,0.3-2.5c0.4-2,0.8-1.7,0.9-0.3c0.1,1,0.3,1.9,0.3,2.9
		c0,0.2,0.1,0.3,0.2,0.2c0.5-0.4,0.9-0.9,1.4-1.3c1.2-1,1.3-0.7,0.6,0.2c-0.5,0.6-0.9,1.2-1.3,1.8c-0.1,0.1,0,0.3,0.1,0.3
		c0.7,0.2,1.4,0.4,2.1,0.5c0.6,0.1,0.8,0.5,0.1,0.7c-0.4,0.1-1,0.2-1.1,0.2c-0.3,0-0.6,0.1-1,0.2c-0.1,0-0.3,0.2-0.2,0.3
		c0.4,0.5,0.7,1,1.1,1.5c0.9,1.4,0.6,1.4-0.2,0.6c-0.5-0.5-0.9-0.9-1.4-1.3c-0.1-0.1-0.2,0.1-0.3,0.3c0,0.1,0,0.3-0.1,0.4
		c0,0.2-0.3,1.7-0.5,2.8c-0.2,1-0.4,0.8-0.6-0.1c-0.2-0.9-0.4-1.9-0.5-2.8c0-0.1,0-0.2,0-0.4c0-0.2-0.2-0.3-0.3-0.2
		c-0.3,0.3-0.9,0.8-1.5,1.2c-0.6,0.5-0.6,0.3-0.2-0.3c0.4-0.6,0.7-1.1,1.1-1.7c0.1-0.1,0.2-0.4,0-0.4c-0.7-0.1-1.3-0.3-1.9-0.4
		C380.9,36.7,380.6,36.2,381.4,36.1z"/>
	<path d="M59.2,16c-1.3-0.3-2.4-0.5-3.5-0.7c-0.2,0-0.4-0.2-0.2-0.4c0.2-0.3,1.2-1.8,2-3c0.7-1.1,0.4-1.1-0.5-0.4
		c-0.9,0.7-1.7,1.4-2.6,2.1c-0.2,0.2-0.4,0-0.4-0.2c-0.1-1.3-0.3-2.7-0.5-4c-0.6-3.2-1.2-2.8-1.4-0.5c-0.1,1.6-0.4,3-0.6,4.6
		c0,0.2-0.2,0.5-0.4,0.4c-0.7-0.7-1.5-1.4-2.2-2c-2-1.6-2-1-0.9,0.4c0.7,0.9,1.4,1.9,2.1,2.9c0.1,0.2,0,0.5-0.2,0.5
		c-1.1,0.3-2.2,0.6-3.3,0.8c-1,0.2-1.3,0.7-0.1,1.1c0.7,0.2,1.6,0.3,1.8,0.4c0.5,0.1,1,0.2,1.5,0.3c0.2,0,0.4,0.3,0.3,0.4
		c-0.6,0.8-1.2,1.6-1.7,2.4c-1.5,2.2-0.9,2.3,0.3,1c0.7-0.7,1.5-1.4,2.2-2.1c0.2-0.2,0.4,0.1,0.4,0.4c0,0.2,0.1,0.5,0.1,0.7
		c0.1,0.4,0.4,2.6,0.8,4.4c0.4,1.6,0.7,1.3,1-0.1c0.3-1.5,0.6-3,0.8-4.5c0-0.2,0-0.4,0.1-0.6c0-0.2,0.2-0.4,0.4-0.3
		c0.5,0.5,1.5,1.3,2.3,1.9c1,0.8,1,0.4,0.4-0.5c-0.6-0.9-1.1-1.8-1.8-2.7c-0.2-0.2-0.2-0.6,0-0.7c1-0.2,2-0.5,3.1-0.7
		C59.9,17,60.4,16.2,59.2,16z"/>
	<path d="M25.4,21.6c-0.6-0.1-1.1-0.2-1.6-0.3c-0.1,0-0.2-0.1-0.1-0.2c0.1-0.1,0.6-0.8,0.9-1.4c0.3-0.5,0.2-0.5-0.2-0.2
		c-0.4,0.3-0.8,0.6-1.2,1c-0.1,0.1-0.2,0-0.2-0.1c-0.1-0.6-0.1-1.3-0.2-1.9c-0.3-1.5-0.6-1.3-0.7-0.2c-0.1,0.7-0.2,1.4-0.3,2.1
		c0,0.1-0.1,0.2-0.2,0.2c-0.3-0.3-0.7-0.6-1-0.9c-0.9-0.8-0.9-0.5-0.4,0.2c0.3,0.4,0.6,0.9,1,1.3c0.1,0.1,0,0.2-0.1,0.2
		c-0.5,0.1-1,0.3-1.5,0.4c-0.5,0.1-0.6,0.3,0,0.5c0.3,0.1,0.7,0.1,0.8,0.2c0.2,0,0.5,0.1,0.7,0.1c0.1,0,0.2,0.1,0.1,0.2
		c-0.3,0.4-0.5,0.7-0.8,1.1c-0.7,1-0.4,1,0.2,0.5c0.3-0.3,0.7-0.6,1-1c0.1-0.1,0.2,0.1,0.2,0.2c0,0.1,0,0.2,0,0.3
		c0,0.2,0.2,1.2,0.4,2.1c0.2,0.7,0.3,0.6,0.5,0c0.1-0.7,0.3-1.4,0.4-2.1c0-0.1,0-0.2,0-0.3c0-0.1,0.1-0.2,0.2-0.1
		c0.2,0.2,0.7,0.6,1.1,0.9c0.5,0.4,0.5,0.2,0.2-0.3c-0.3-0.4-0.5-0.8-0.8-1.3c-0.1-0.1-0.1-0.3,0-0.3c0.5-0.1,0.9-0.2,1.4-0.3
		C25.7,22,26,21.7,25.4,21.6z"/>
	<path d="M40.3,36.1c-0.8-0.2-1.5-0.3-2.2-0.4c-0.1,0-0.2-0.2-0.2-0.3c0.1-0.2,0.8-1.1,1.3-1.9c0.4-0.7,0.2-0.7-0.3-0.3
		c-0.5,0.4-1.1,0.9-1.6,1.3c-0.1,0.1-0.3,0-0.3-0.1c-0.1-0.8-0.2-1.7-0.3-2.5c-0.4-2-0.8-1.7-0.9-0.3c-0.1,1-0.3,1.9-0.3,2.9
		c0,0.2-0.1,0.3-0.2,0.2c-0.5-0.4-0.9-0.9-1.4-1.3c-1.2-1-1.3-0.7-0.6,0.2c0.5,0.6,0.9,1.2,1.3,1.8c0.1,0.1,0,0.3-0.1,0.3
		c-0.7,0.2-1.4,0.4-2.1,0.5c-0.6,0.1-0.8,0.5-0.1,0.7c0.4,0.1,1,0.2,1.1,0.2c0.3,0,0.6,0.1,1,0.2c0.1,0,0.3,0.2,0.2,0.3
		c-0.4,0.5-0.7,1-1.1,1.5c-0.9,1.4-0.6,1.4,0.2,0.6c0.5-0.5,0.9-0.9,1.4-1.3c0.1-0.1,0.2,0.1,0.3,0.3c0,0.1,0,0.3,0.1,0.4
		c0,0.2,0.3,1.7,0.5,2.8c0.2,1,0.4,0.8,0.6-0.1c0.2-0.9,0.4-1.9,0.5-2.8c0-0.1,0-0.2,0-0.4c0-0.2,0.2-0.3,0.3-0.2
		c0.3,0.3,0.9,0.8,1.5,1.2c0.6,0.5,0.6,0.3,0.2-0.3c-0.4-0.6-0.7-1.1-1.1-1.7c-0.1-0.1-0.2-0.4,0-0.4c0.7-0.1,1.3-0.3,1.9-0.4
		C40.8,36.7,41.1,36.2,40.3,36.1z"/>
</g>
</svg>
