<?xml version="1.0" encoding="utf-8"?>
<!-- Generator: Adobe Illustrator 26.0.3, SVG Export Plug-In . SVG Version: 6.00 Build 0)  -->
<svg version="1.1" id="Layer_1" xmlns="http://www.w3.org/2000/svg" xmlns:xlink="http://www.w3.org/1999/xlink" x="0px" y="0px"
	 viewBox="0 0 103.5 103.5" style="enable-background:new 0 0 103.5 103.5;" xml:space="preserve">
<style type="text/css">
	.st0{fill:#010101;}
</style>
<g>
	<g>
		<g>
			<path class="st0" d="M51.8,103.5c-13.8,0-26.8-5.4-36.6-15.2S0,65.6,0,51.8s5.4-26.8,15.2-36.6S37.9,0,51.8,0s26.8,5.4,36.6,15.2
				s15.2,22.8,15.2,36.6s-5.4,26.8-15.2,36.6S65.6,103.5,51.8,103.5z M51.8,2.5C24.6,2.5,2.5,24.6,2.5,51.8S24.6,101,51.8,101
				S101,78.9,101,51.8S78.9,2.5,51.8,2.5z"/>
		</g>
	</g>
	<g>
		<g>
			<g>
				<path class="st0" d="M36,60.7c-0.2,0-0.3,0-0.5-0.1l-15.8-6.3c-0.5-0.2-0.8-0.7-0.8-1.2s0.3-1,0.8-1.2l15.8-6.3
					c0.3-0.1,0.6-0.1,0.9,0l15.8,6.3c0.5,0.2,0.8,0.7,0.8,1.2c0,0.5-0.3,1-0.8,1.2l-15.8,6.3C36.3,60.6,36.1,60.7,36,60.7z
					 M23.5,53.1L36,58l12.4-5l-12.4-5L23.5,53.1z"/>
			</g>
		</g>
		<g>
			<g>
				<path class="st0" d="M36,79.6c-0.2,0-0.3,0-0.5-0.1l-15.8-6.3c-0.5-0.2-0.8-0.7-0.8-1.2v-19c0-0.7,0.6-1.3,1.3-1.3
					c0.7,0,1.3,0.6,1.3,1.3v18.1l13.3,5.3V59.4c0-0.7,0.6-1.3,1.3-1.3s1.3,0.6,1.3,1.3v19c0,0.4-0.2,0.8-0.6,1
					C36.5,79.5,36.2,79.6,36,79.6z"/>
			</g>
		</g>
		<g>
			<g>
				<path class="st0" d="M36,79.6c-0.5,0-1-0.3-1.2-0.8c-0.3-0.6,0.1-1.4,0.7-1.6l15-6V53.1c0-0.7,0.6-1.3,1.3-1.3s1.3,0.6,1.3,1.3
					v19c0,0.5-0.3,1-0.8,1.2l-15.8,6.3C36.3,79.6,36.1,79.6,36,79.6z"/>
			</g>
		</g>
	</g>
	<g>
		<g>
			<g>
				<path class="st0" d="M67.6,60.7c-0.2,0-0.3,0-0.5-0.1l-15.8-6.3c-0.5-0.2-0.8-0.7-0.8-1.2s0.3-1,0.8-1.2l15.8-6.3
					c0.3-0.1,0.6-0.1,0.9,0l15.8,6.3c0.5,0.2,0.8,0.7,0.8,1.2c0,0.5-0.3,1-0.8,1.2L68,60.6C67.9,60.6,67.7,60.7,67.6,60.7z
					 M55.2,53.1l12.4,5l12.4-5l-12.4-5L55.2,53.1z"/>
			</g>
		</g>
		<g>
			<g>
				<path class="st0" d="M67.6,79.6c-0.2,0-0.3,0-0.5-0.1l-15.8-6.3c-0.5-0.2-0.8-0.7-0.8-1.2v-19c0-0.7,0.6-1.3,1.3-1.3
					s1.3,0.6,1.3,1.3v18.1l13.3,5.3V59.4c0-0.7,0.6-1.3,1.3-1.3c0.7,0,1.3,0.6,1.3,1.3v19c0,0.4-0.2,0.8-0.6,1
					C68.1,79.5,67.8,79.6,67.6,79.6z"/>
			</g>
		</g>
		<g>
			<g>
				<path class="st0" d="M67.6,79.6c-0.5,0-1-0.3-1.2-0.8c-0.3-0.6,0.1-1.4,0.7-1.6l15-6V53.1c0-0.7,0.6-1.3,1.3-1.3
					c0.7,0,1.3,0.6,1.3,1.3v19c0,0.5-0.3,1-0.8,1.2L68,79.5C67.9,79.6,67.7,79.6,67.6,79.6z"/>
			</g>
		</g>
	</g>
	<g>
		<g>
			<g>
				<path class="st0" d="M51.8,35.4c-0.2,0-0.3,0-0.5-0.1L35.5,29c-0.5-0.2-0.8-0.7-0.8-1.2s0.3-1,0.8-1.2l15.8-6.3
					c0.3-0.1,0.6-0.1,0.9,0L68,26.6c0.5,0.2,0.8,0.7,0.8,1.2c0,0.5-0.3,1-0.8,1.2l-15.8,6.3C52.1,35.3,51.9,35.4,51.8,35.4z
					 M39.4,27.8l12.4,5l12.4-5l-12.4-5L39.4,27.8z"/>
			</g>
		</g>
		<g>
			<g>
				<path class="st0" d="M51.8,54.3c-0.2,0-0.3,0-0.5-0.1l-15.8-6.3c-0.5-0.2-0.8-0.7-0.8-1.2v-19c0-0.7,0.6-1.3,1.3-1.3
					s1.3,0.6,1.3,1.3v18.1l13.3,5.3V34.1c0-0.7,0.6-1.3,1.3-1.3s1.3,0.6,1.3,1.3v19c0,0.4-0.2,0.8-0.6,1
					C52.3,54.3,52,54.3,51.8,54.3z"/>
			</g>
		</g>
		<g>
			<g>
				<path class="st0" d="M51.8,54.3c-0.5,0-1-0.3-1.2-0.8c-0.3-0.6,0.1-1.4,0.7-1.6l15-6V27.8c0-0.7,0.6-1.3,1.3-1.3
					c0.7,0,1.3,0.6,1.3,1.3v19c0,0.5-0.3,1-0.8,1.2l-15.8,6.3C52.1,54.3,51.9,54.3,51.8,54.3z"/>
			</g>
		</g>
	</g>
	<g>
		<g>
			<path class="st0" d="M87.5,88.7c-0.3,0-0.6-0.1-0.9-0.4L15.2,17c-0.5-0.5-0.5-1.3,0-1.8c0.5-0.5,1.3-0.5,1.8,0l71.4,71.4
				c0.5,0.5,0.5,1.3,0,1.8C88.1,88.6,87.8,88.7,87.5,88.7z"/>
		</g>
	</g>
</g>
</svg>
