<?xml version="1.0" encoding="utf-8"?>
<!-- Generator: Adobe Illustrator 26.0.1, SVG Export Plug-In . SVG Version: 6.00 Build 0)  -->
<svg version="1.1" id="Layer_1" xmlns="http://www.w3.org/2000/svg" xmlns:xlink="http://www.w3.org/1999/xlink" x="0px" y="0px"
	 viewBox="0 0 623.8 318.3" style="enable-background:new 0 0 623.8 318.3;" xml:space="preserve">
<style type="text/css">
	.st0{fill:#FFFFFF;}
</style>
<g>
	<path class="st0" d="M0,54.2C0.5,54.1,0.9,54,1.4,54c19.6,0,39.2,0,58.8,0c0.4,0,0.9,0,1.4,0c0,3.7,0,7.2,0,10.9
		c-16.8,0-33.6,0-50.5,0c0,62.6,0,125,0,187.6c16.8,0,33.6,0,50.5,0c0,3.7,0,7.3,0,11c-0.4,0-0.8,0-1.3,0c-19.6,0-39.3,0-58.9,0
		c-0.5,0-0.9-0.1-1.4-0.2C0,193.7,0,124,0,54.2z"/>
	<path class="st0" d="M623.8,263.5c-0.5,0.1-0.9,0.2-1.4,0.2c-19.6,0-39.2,0-58.8,0c-0.4,0-0.9,0-1.4,0c0-3.7,0-7.2,0-10.9
		c16.8,0,33.6,0,50.5,0c0-62.6,0-125,0-187.6c-16.8,0-33.6,0-50.5,0c0-3.7,0-7.3,0-11c0.4,0,0.8,0,1.3,0c19.6,0,39.3,0,58.9,0
		c0.5,0,0.9,0.1,1.4,0.2C623.8,124,623.8,193.7,623.8,263.5z"/>
</g>
<g>
	<path class="st0" d="M73.9,102.8c0-5.7,1.1-11.3,3.3-16.5c2.2-5.3,5.4-9.9,9.6-13.9c4.2-4,9.4-7.2,15.5-9.5
		c6.1-2.3,13.1-3.5,20.9-3.5c10.6,0,19.5,2.1,26.8,6.1c7.2,4.1,12.6,9.4,16.3,16L138.9,89c-3.6-5.3-8.9-8-15.9-8
		c-5.8,0-10.7,2-14.6,5.9c-3.9,3.9-5.9,9.2-5.9,15.8c0,3.3,0.5,6.3,1.6,9s2.5,5,4.4,6.9c1.9,1.9,4,3.4,6.6,4.5
		c2.5,1.1,5.2,1.6,8,1.6c3.5,0,6.7-0.8,9.6-2.3c2.9-1.5,5.1-3.5,6.5-6l27.3,7.7c-3.4,6.5-8.8,11.8-16.2,16c-7.4,4.1-16.4,6.2-27,6.2
		c-7.7,0-14.6-1.2-20.7-3.6s-11.3-5.6-15.6-9.6c-4.3-4-7.5-8.6-9.7-13.9C75,114,73.9,108.5,73.9,102.8z"/>
	<path class="st0" d="M178.4,157.4c2.3,0.7,4.5,1.3,6.6,1.6c2,0.3,3.9,0.5,5.5,0.5c3.4,0,6-1.1,7.9-3.2c1.9-2.1,3.6-6,5.1-11.5
		l-35-83.8h28.9l21.3,61.9L237,61h26.2l-35,97.4c-2.4,6.9-6.8,12.5-13.1,16.8c-6.3,4.3-13.8,6.5-22.4,6.5c-2.3,0-4.7-0.2-7.1-0.6
		c-2.4-0.4-4.8-1-7.3-1.8V157.4z"/>
	<path class="st0" d="M329.3,146.3c-7,0-13.1-1.4-18.4-4.1c-5.2-2.7-9.4-6.5-12.4-11.4v13.9h-24.3V28.2h28v46.4
		c3-4.8,7.1-8.5,12.2-11.3c5.1-2.7,11-4.1,17.9-4.1c5.8,0,11.2,1.1,16.1,3.4c4.9,2.3,9.1,5.4,12.6,9.3c3.5,3.9,6.2,8.6,8.2,14
		c2,5.4,3,11.1,3,17.2c0,6.1-1.1,11.7-3.2,17c-2.2,5.3-5.2,9.8-9,13.7c-3.8,3.9-8.4,6.9-13.6,9.1S335.4,146.3,329.3,146.3z
		 M321.5,124.8c3.3,0,6.2-0.6,8.9-1.7c2.7-1.1,5-2.6,6.9-4.5c1.9-1.9,3.4-4.2,4.5-6.8c1.1-2.6,1.7-5.5,1.7-8.5c0-3-0.5-5.8-1.6-8.5
		c-1-2.7-2.5-5.1-4.3-7.1c-1.8-2-4-3.6-6.6-4.8c-2.6-1.2-5.3-1.8-8.2-1.8c-4.4,0-8.5,1.4-12.2,4.1c-3.7,2.8-6.5,6.2-8.5,10.4v17.6
		c1.9,3.6,4.6,6.5,8.1,8.5C313.9,123.8,317.6,124.8,321.5,124.8z"/>
	<path class="st0" d="M430,146.3c-7.7,0-14.6-1.1-20.7-3.4c-6.1-2.3-11.3-5.4-15.6-9.3c-4.3-3.9-7.5-8.5-9.7-13.6
		c-2.2-5.2-3.3-10.6-3.3-16.2c0-6.1,1.1-11.8,3.3-17.2c2.2-5.4,5.4-10.1,9.6-14.1c4.2-4,9.4-7.2,15.5-9.6c6.1-2.3,13.1-3.5,20.9-3.5
		c7.8,0,14.7,1.2,20.8,3.5c6.1,2.3,11.2,5.5,15.4,9.5c4.2,4,7.4,8.6,9.5,13.8c2.2,5.2,3.2,10.7,3.2,16.4c0,1.5-0.1,3-0.2,4.4
		c-0.1,1.4-0.3,2.7-0.5,3.8h-67.8c0.5,5.6,2.7,9.9,6.7,12.8c4,2.9,8.6,4.4,13.7,4.4c4.1,0,8-0.9,11.8-2.7c3.8-1.8,6.3-4.3,7.6-7.3
		l23.8,6.1c-3.6,6.6-9.2,12-16.8,16.1C449.7,144.3,440.7,146.3,430,146.3z M449.5,95c-0.6-5.3-2.7-9.5-6.3-12.6
		c-3.6-3.1-8.1-4.6-13.5-4.6c-5.5,0-10,1.6-13.6,4.7c-3.6,3.1-5.6,7.3-6.2,12.5H449.5z"/>
	<path class="st0" d="M550,82.8c-6.8,0.1-12.9,1.1-18.4,3c-5.5,1.9-9.4,4.8-11.9,8.6v50.3h-28V61h25.7v16.9
		c3.1-5.6,7.2-10.1,12.2-13.2c5-3.2,10.2-4.8,15.8-4.9c1.3,0,2.2,0,2.8,0c0.6,0,1.2,0.1,1.7,0.2V82.8z"/>
</g>
<g>
	<path class="st0" d="M184.3,249.7h-19.5v-32.8c0-3.9-0.8-6.7-2.3-8.4c-1.5-1.7-3.5-2.6-6-2.6c-1.3,0-2.6,0.3-4,0.8
		c-1.3,0.5-2.6,1.2-3.7,2.2c-1.1,0.9-2.2,2-3.1,3.3c-0.9,1.3-1.7,2.6-2.3,4.1v33.5H124v-32.8c0-3.9-0.8-6.7-2.3-8.4
		c-1.5-1.7-3.5-2.6-6-2.6c-2.6,0-5.1,0.9-7.6,2.8c-2.5,1.9-4.3,4.4-5.4,7.5v33.5H83.2v-58.4h17.5v9.8c2.4-3.6,5.5-6.3,9.6-8.1
		c4-1.9,8.7-2.8,14.1-2.8c2.7,0,5,0.3,7,0.9c2,0.6,3.7,1.4,5.2,2.4c1.5,1,2.6,2.2,3.5,3.6c0.9,1.4,1.5,2.8,1.9,4.4
		c2.4-3.6,5.6-6.4,9.6-8.4c4-2,8.5-2.9,13.6-2.9c4.1,0,7.3,0.7,9.8,2.1c2.5,1.4,4.4,3.2,5.8,5.3c1.4,2.2,2.3,4.6,2.7,7.2
		c0.4,2.6,0.7,5.1,0.7,7.6V249.7z"/>
	<path class="st0" d="M227.5,250.8c-5.4,0-10.3-0.8-14.6-2.4s-7.9-3.8-10.8-6.6c-2.9-2.8-5.1-6-6.6-9.7c-1.5-3.7-2.3-7.5-2.3-11.5
		s0.7-7.8,2.3-11.5c1.5-3.7,3.7-6.9,6.6-9.7c2.9-2.8,6.5-5,10.8-6.7s9.1-2.5,14.6-2.5c5.4,0,10.3,0.8,14.5,2.5
		c4.2,1.7,7.8,3.9,10.7,6.7c2.9,2.8,5.2,6,6.7,9.7c1.5,3.7,2.3,7.5,2.3,11.5s-0.8,7.8-2.3,11.5c-1.5,3.7-3.7,6.9-6.6,9.7
		c-2.9,2.8-6.5,5-10.8,6.6S233,250.8,227.5,250.8z M213.3,220.6c0,4.6,1.3,8.3,4,11.1c2.7,2.8,6.1,4.2,10.2,4.2c2,0,3.9-0.4,5.6-1.1
		c1.7-0.7,3.2-1.8,4.4-3.1c1.3-1.3,2.3-2.9,3-4.8c0.7-1.9,1.1-3.9,1.1-6.2c0-4.6-1.3-8.3-4-11.1c-2.7-2.8-6-4.2-10.1-4.2
		c-2,0-3.9,0.4-5.7,1.1c-1.7,0.7-3.2,1.8-4.5,3.1c-1.3,1.3-2.3,2.9-3,4.8C213.7,216.3,213.3,218.4,213.3,220.6z"/>
	<path class="st0" d="M333,249.7h-19.5v-32.8c0-3.9-0.8-6.7-2.4-8.4c-1.6-1.7-3.7-2.6-6.3-2.6c-1.4,0-2.8,0.3-4.1,0.8
		c-1.4,0.5-2.7,1.2-4,2.2c-1.3,0.9-2.5,2-3.5,3.3c-1,1.3-1.8,2.6-2.4,4.1v33.5h-19.5v-58.4h17.5v9.8c2.4-3.5,5.7-6.2,10-8.1
		c4.3-1.9,9.3-2.8,14.9-2.8c4.1,0,7.5,0.7,10,2.1c2.5,1.4,4.5,3.2,5.8,5.3c1.4,2.2,2.3,4.6,2.7,7.2c0.4,2.6,0.7,5.1,0.7,7.6V249.7z"
		/>
	<path class="st0" d="M372.5,250.8c-4.4,0-8.4-0.8-12.1-2.3c-3.7-1.5-6.9-3.6-9.6-6.4c-2.7-2.7-4.8-5.9-6.3-9.6
		c-1.5-3.7-2.3-7.7-2.3-12.1c0-4.2,0.7-8.2,2.1-11.9c1.4-3.7,3.3-6.9,5.8-9.6c2.5-2.7,5.5-4.8,9-6.4c3.4-1.6,7.2-2.3,11.4-2.3
		c4.5,0,8.5,1,12.1,2.9c3.6,1.9,6.4,4.5,8.3,7.8v-32.3h19.5v61.1c0,1.8,0.3,3,0.9,3.7c0.6,0.7,1.7,1.1,3.2,1.3v15
		c-1.8,0.4-3.3,0.6-4.6,0.7c-1.3,0.1-2.5,0.2-3.7,0.2c-3.4,0-6.2-0.7-8.3-1.9c-2.1-1.3-3.3-3.2-3.7-5.6l-0.4-3
		c-2.3,3.6-5.3,6.3-9.2,8.1C381,249.9,376.8,250.8,372.5,250.8z M377.7,235.8c2.7,0,5.3-0.7,7.7-2.2c2.5-1.4,4.4-3.4,5.7-5.9v-12.2
		c-1.2-3-3.2-5.4-5.9-7.3c-2.7-1.9-5.5-2.8-8.5-2.8c-2.1,0-4,0.4-5.8,1.3c-1.7,0.9-3.3,2-4.6,3.4c-1.3,1.4-2.3,3-3,4.9
		c-0.7,1.9-1,3.8-1,5.9c0,2.1,0.4,4.2,1.2,6c0.8,1.9,1.8,3.4,3.2,4.8s3,2.4,4.9,3.1C373.4,235.4,375.5,235.8,377.7,235.8z"/>
	<path class="st0" d="M443.7,250.8c-3.2,0-6.1-0.5-8.8-1.4c-2.7-0.9-5.1-2.2-7-3.9c-1.9-1.7-3.5-3.6-4.6-5.9
		c-1.1-2.3-1.7-4.7-1.7-7.4c0-2.9,0.7-5.5,2-7.9c1.3-2.4,3.2-4.4,5.7-6.1c2.4-1.7,5.3-3,8.6-4c3.3-1,7-1.4,11.1-1.4
		c2.7,0,5.3,0.2,7.8,0.6c2.5,0.4,4.7,1,6.6,1.8v-2.7c0-6.7-4.3-10.1-12.8-10.1c-3.5,0-6.8,0.5-10,1.6c-3.2,1.1-6.5,2.7-10,4.8
		l-5.7-11.1c4.2-2.5,8.6-4.4,13.2-5.7c4.5-1.3,9.4-1.9,14.5-1.9c9.7,0,17.1,2.1,22.4,6.2c5.3,4.2,7.9,10.2,7.9,18.2v15
		c0,1.8,0.3,3,0.9,3.7c0.6,0.7,1.7,1.1,3.2,1.3v15c-1.7,0.4-3.2,0.6-4.6,0.7c-1.4,0.1-2.6,0.2-3.8,0.2c-3.7,0-6.4-0.7-8.3-1.9
		c-1.9-1.3-3-3.1-3.5-5.5l-0.4-2.7c-2.8,3.3-6.2,5.9-10.2,7.7C452.2,249.9,448.1,250.8,443.7,250.8z M449.4,238c2.1,0,4.2-0.3,6.2-1
		c2-0.7,3.6-1.6,4.9-2.7c1.9-1.3,2.8-2.7,2.8-4.2v-5.6c-1.7-0.6-3.6-1.1-5.5-1.4c-2-0.3-3.8-0.5-5.5-0.5c-3.6,0-6.5,0.7-8.8,2.2
		c-2.3,1.5-3.5,3.4-3.5,5.8c0,2.2,0.9,3.9,2.7,5.3C444.4,237.3,446.7,238,449.4,238z"/>
	<path class="st0" d="M495.8,258.5c1.6,0.5,3.1,0.9,4.6,1.1c1.4,0.2,2.7,0.3,3.8,0.3c2.4,0,4.2-0.7,5.5-2.2c1.3-1.5,2.5-4.2,3.5-8
		l-24.4-58.4H509l14.9,43.1l12.8-43.1h18.3l-24.4,67.8c-1.7,4.8-4.8,8.7-9.1,11.7c-4.4,3-9.6,4.5-15.6,4.5c-1.6,0-3.3-0.1-4.9-0.4
		c-1.7-0.3-3.3-0.7-5.1-1.3V258.5z"/>
</g>
</svg>
