<?xml version="1.0" encoding="utf-8"?>
<!-- Generator: Adobe Illustrator 26.0.1, SVG Export Plug-In . SVG Version: 6.00 Build 0)  -->
<svg version="1.1" id="Layer_1" xmlns="http://www.w3.org/2000/svg" xmlns:xlink="http://www.w3.org/1999/xlink" x="0px" y="0px"
	 viewBox="0 0 623.8 318.3" style="enable-background:new 0 0 623.8 318.3;" xml:space="preserve">
<style type="text/css">
	.st0{fill:#FFFFFF;}
</style>
<g>
	<path class="st0" d="M0,54.2c0.5-0.1,0.9-0.2,1.4-0.2c19.6,0,39.2,0,58.8,0c0.4,0,0.9,0,1.4,0c0,3.7,0,7.2,0,10.9
		c-16.8,0-33.6,0-50.5,0c0,62.6,0,125,0,187.6c16.8,0,33.6,0,50.5,0c0,3.7,0,7.3,0,11c-0.4,0-0.8,0-1.3,0c-19.6,0-39.3,0-58.9,0
		c-0.5,0-0.9-0.1-1.4-0.2C0,193.7,0,124,0,54.2z"/>
	<path class="st0" d="M623.8,263.5c-0.5,0.1-0.9,0.2-1.4,0.2c-19.6,0-39.2,0-58.8,0c-0.4,0-0.9,0-1.4,0c0-3.7,0-7.2,0-10.9
		c16.8,0,33.6,0,50.5,0c0-62.6,0-125,0-187.6c-16.8,0-33.6,0-50.5,0c0-3.7,0-7.3,0-11c0.4,0,0.8,0,1.3,0c19.6,0,39.3,0,58.9,0
		c0.5,0,0.9,0.1,1.4,0.2C623.8,124,623.8,193.7,623.8,263.5z"/>
	<g>
		<path class="st0" d="M275.4,33c-2,0-3.9-0.3-5.5-1s-3-1.5-4.1-2.6c-1.1-1.1-2-2.4-2.6-3.8c-0.6-1.4-0.9-2.9-0.9-4.5
			c0-1.7,0.3-3.3,0.9-4.8c0.6-1.5,1.4-2.8,2.5-3.9c1.1-1.1,2.5-2,4.1-2.7c1.6-0.7,3.5-1,5.5-1c2.1,0,3.9,0.3,5.5,1
			c1.6,0.7,3,1.5,4.1,2.7c1.1,1.1,2,2.4,2.5,3.9c0.6,1.5,0.9,3,0.9,4.6c0,0.4,0,0.8,0,1.2c0,0.4-0.1,0.8-0.1,1h-18
			c0.1,1.6,0.7,2.8,1.8,3.6c1.1,0.8,2.3,1.2,3.6,1.2c1.1,0,2.1-0.3,3.1-0.8c1-0.5,1.7-1.2,2-2.1l6.3,1.7c-1,1.8-2.4,3.3-4.4,4.5
			C280.6,32.4,278.2,33,275.4,33z M280.6,18.6c-0.2-1.5-0.7-2.7-1.7-3.5c-1-0.9-2.1-1.3-3.6-1.3c-1.5,0-2.6,0.4-3.6,1.3
			c-0.9,0.9-1.5,2-1.6,3.5H280.6z"/>
		<path class="st0" d="M298.7,33c-1.2,0-2.3-0.2-3.4-0.6c-1-0.4-1.9-0.9-2.7-1.6s-1.3-1.5-1.8-2.4c-0.4-0.9-0.6-1.9-0.6-3
			c0-1.2,0.3-2.2,0.8-3.2c0.5-1,1.2-1.8,2.2-2.5c0.9-0.7,2-1.2,3.3-1.6c1.3-0.4,2.7-0.6,4.2-0.6c1,0,2,0.1,3,0.2
			c1,0.2,1.8,0.4,2.5,0.7v-1.1c0-2.7-1.6-4.1-4.9-4.1c-1.3,0-2.6,0.2-3.8,0.6s-2.5,1.1-3.8,1.9l-2.2-4.5c1.6-1,3.3-1.8,5-2.3
			c1.7-0.5,3.6-0.8,5.5-0.8c3.7,0,6.5,0.8,8.5,2.5c2,1.7,3,4.1,3,7.3v6c0,0.7,0.1,1.2,0.3,1.5c0.2,0.3,0.6,0.5,1.2,0.5v6
			c-0.6,0.1-1.2,0.2-1.8,0.3c-0.5,0-1,0.1-1.4,0.1c-1.4,0-2.4-0.3-3.1-0.8c-0.7-0.5-1.2-1.3-1.3-2.2l-0.1-1.1
			c-1.1,1.3-2.4,2.4-3.9,3.1C301.9,32.6,300.3,33,298.7,33z M300.8,27.9c0.8,0,1.6-0.1,2.3-0.4s1.4-0.6,1.9-1.1
			c0.7-0.5,1.1-1.1,1.1-1.7v-2.2c-0.6-0.2-1.4-0.4-2.1-0.6c-0.8-0.1-1.5-0.2-2.1-0.2c-1.4,0-2.5,0.3-3.4,0.9
			c-0.9,0.6-1.3,1.4-1.3,2.3c0,0.9,0.3,1.6,1,2.1C298.9,27.6,299.8,27.9,300.8,27.9z"/>
		<path class="st0" d="M334.3,15.2c-1.8,0-3.4,0.3-4.9,0.8c-1.5,0.5-2.5,1.3-3.1,2.4v14h-7.4V9.1h6.8v4.7c0.8-1.6,1.9-2.8,3.2-3.7
			c1.3-0.9,2.7-1.4,4.2-1.4c0.3,0,0.6,0,0.7,0c0.2,0,0.3,0,0.5,0V15.2z"/>
		<path class="st0" d="M337.3,0h7.4v24.2c0,1.8,0.8,2.7,2.4,2.7c0.4,0,0.8-0.1,1.2-0.2c0.4-0.1,0.9-0.3,1.2-0.5l1,5.4
			c-0.9,0.4-2,0.7-3.2,1c-1.2,0.2-2.3,0.4-3.4,0.4c-2.1,0-3.8-0.5-4.9-1.6c-1.1-1.1-1.7-2.6-1.7-4.6V0z"/>
		<path class="st0" d="M352.6,36.1c0.6,0.2,1.2,0.4,1.7,0.4c0.5,0.1,1,0.1,1.5,0.1c0.9,0,1.6-0.3,2.1-0.9c0.5-0.6,0.9-1.7,1.3-3.2
			L350,9.1h7.6l5.6,17.3l4.9-17.3h6.9l-9.3,27.2c-0.6,1.9-1.8,3.5-3.5,4.7c-1.7,1.2-3.6,1.8-5.9,1.8c-0.6,0-1.2-0.1-1.9-0.2
			c-0.6-0.1-1.3-0.3-1.9-0.5V36.1z"/>
	</g>
	<g>
		<path class="st0" d="M130.1,23.1c0,14.9,0,29.7,0,44.6c0.6,0.1,0.6-0.4,0.8-0.6c4.5-7.3,11.2-11.1,19.5-12.3
			c5.7-0.9,11.3-0.6,16.8,1.3c7.1,2.6,12.7,7,17,13.2c3.9,5.6,6.3,11.8,7.5,18.4c1.5,8.1,1.4,16.3-0.7,24.3
			c-2.4,8.7-6.8,16.2-14,21.9c-7.9,6.2-16.9,8.8-26.9,8c-2.7-0.2-5.3-0.6-7.8-1.4c-6.4-1.9-11.4-5.7-15-11.3c-0.3-0.4-0.5-1-0.9-1.3
			c-0.4,0.3-0.2,0.7-0.2,1.1c0,3.4,0,6.8,0,10.2c0,1.2,0,1.2-1.2,1.2c-8,0-16.1,0-24.1,0c-1.1,0-1.2,0-1.2-1.1c0-0.3,0-0.7,0-1
			c0-37.8,0-75.5,0-113.3c0-0.6-0.1-1.3,0.1-1.9C109.8,23.1,120,23.1,130.1,23.1z M130.1,99.9c0,2.3,0,4.5,0,6.8
			c0,0.5,0.1,1,0.4,1.5c4.1,5.7,9.4,8.9,16.6,8c5.8-0.8,10-3.8,12.5-9.1c1.1-2.3,1.5-4.7,1.6-7.1c0.3-5.3-1.1-10.1-4.3-14.4
			c-4.6-6.1-12.4-7.3-18.8-3.2c-3.6,2.3-6.1,5.6-7.8,9.4c-0.2,0.6-0.3,1.1-0.3,1.7C130.1,95.7,130.1,97.8,130.1,99.9z"/>
		<path class="st0" d="M480.6,23.1c0,0.5-0.1,1.1-0.1,1.6c0,20.1,0,40.2,0,60.3c0,0.6-0.1,1.1,0.2,1.9c0.4-0.6,0.8-1,1.1-1.4
			c6.8-9.4,13.6-18.9,20.3-28.3c0.7-0.9,1.4-1.3,2.5-1.3c9.6,0,19.2,0,28.8,0c0.5,0,1-0.1,1.5,0.1c-0.2,0.6-0.6,0.9-0.9,1.3
			c-8.9,11.3-17.8,22.7-26.8,34c-0.1,0.1-0.2,0.2-0.3,0.3c-1.1,1.4-1,1.1-0.1,2.4c10,14.8,19.9,29.7,29.9,44.5
			c0.4,0.5,0.7,1.1,1,1.6c-0.3,0.5-0.6,0.3-1,0.3c-10,0-20,0-30,0c-0.9,0-1.4-0.4-1.8-1.1c-5.8-9.4-11.6-18.8-17.4-28.1
			c-0.3-0.5-0.5-1-1.1-1.5c-1.3,1.4-2.5,2.9-3.9,4.2c-1.7,1.6-2.2,3.3-2.2,5.6c0.2,6.3,0.1,12.6,0.1,18.9c0,0.3,0,0.6,0,0.9
			c0,1.1,0,1.1-1.2,1.1c-9.4,0-18.8,0-28.2,0c-1.2,0-1.2,0-1.2-1.3c0-0.4,0-0.8,0-1.2c0-37.6,0-75.2,0-112.9c0-0.7,0-1.4-0.1-2.1
			C460.1,23.1,470.3,23.1,480.6,23.1z"/>
		<path class="st0" d="M233.6,23.1c0,0.6,0,1.3,0,1.9c0,27.1,0,54.2,0,81.2c0,1.6,0.1,3.1,0.5,4.7c1,3.6,3.3,5.5,7,5.6
			c2.6,0.1,5-0.6,7.3-1.6c0.4-0.2,0.9-0.4,1.3-0.6c0.4,0.4,0.4,0.9,0.4,1.3c1.1,6.6,2.3,13.2,3.4,19.8c0.2,1.3,0.2,1.3-1,1.8
			c-5.2,2.3-10.7,3.6-16.3,4.4c-4,0.5-8,0.8-12.1,0.3c-3-0.3-5.8-0.9-8.5-2.2c-6.5-2.9-10.3-8-11.8-14.9c-0.5-2.3-0.7-4.7-0.7-7
			c0-31.2,0-62.3,0-93.5c0-0.4,0-0.8,0.1-1.2C213.3,23.1,223.4,23.1,233.6,23.1z"/>
		<path class="st0" d="M314.4,127.5c-0.7,0.8-1.4,1.6-2,2.3c-5,5.6-11.1,9.6-18.5,11.3c-8.2,2-16.2,1.2-23.6-2.8
			c-7.8-4.2-12.6-10.7-13.9-19.4c-1.5-10,2-18.2,9.7-24.6c4.5-3.8,9.8-6,15.5-7.2c7.5-1.6,15-1.6,22.4,0.1c1.4,0.3,2.8,0.8,4.2,1.3
			c0.4,0.2,0.8,0.5,1.4,0.3c0.1-3.1,0.1-6.2-1.6-8.9c-1.7-2.7-4.3-4-7.3-4.5c-6.9-1.2-13.6-0.4-20.1,2.2c-3.6,1.4-6.9,3.3-10.2,5.3
			c-0.5,0.3-1,0.6-1.5,0.9c-0.5-0.2-0.5-0.6-0.7-0.9c-2.6-5.6-5.2-11.1-7.8-16.7C260,65,260,65,261,64.4c7.5-4.7,15.7-7.7,24.4-9.1
			c7.1-1.2,14.2-1.3,21.3-0.5c5.8,0.6,11.3,2,16.5,4.6c8.8,4.5,14.1,11.7,16,21.4c0.6,3.1,0.9,6.1,0.9,9.2c0,5.5,0,11,0,16.5
			c0,1.1,0.1,2.3,0.2,3.4c0.4,2.6,1.8,4.1,4.3,4.6c1.3,0.3,1.3,0.3,1.3,1.6c0,7.6,0,15.3,0,22.9c0,1.4,0,1.4-1.4,1.7
			c-4,0.8-8,1.4-12,1.3c-2.3,0-4.5-0.3-6.7-0.8c-5.9-1.4-9.4-5.1-10.8-11C314.9,129.4,314.9,128.5,314.4,127.5z M309.7,108.4
			C309.7,108.4,309.7,108.4,309.7,108.4c0-0.9,0-1.9,0-2.8c0-0.6-0.2-0.9-0.8-1.1c-1.1-0.3-2.3-0.7-3.4-1c-3.7-0.9-7.4-1.4-11.3-0.7
			c-3,0.6-5.7,1.9-7.7,4.3c-2.3,2.9-2.7,8.4,1.9,11.3c0.8,0.5,1.7,0.9,2.7,1.2c2.7,0.8,5.4,0.6,8,0c3-0.8,5.9-1.9,8.2-4.1
			c1.5-1.5,2.5-3.3,2.3-5.5C309.6,109.5,309.7,108.9,309.7,108.4z"/>
		<path class="st0" d="M440.2,119.3c-1.4,2.8-3.2,5.4-5.3,7.8c-6.9,7.8-15.5,12.6-25.8,14.2c-8.1,1.3-16.2,1.3-24.2-0.9
			c-17.8-4.9-28.7-16.5-31.8-34.7c-2-11.7,0.2-22.8,6.9-32.7c6.2-9.2,15-14.7,25.6-17.2c10.6-2.5,21.1-2.2,31.4,1.3
			c9.6,3.3,16.9,9.5,22.1,18.2c0.2,0.3,0.3,0.5,0.4,0.8c0.6,1.2,0.6,1.2-0.6,1.6c-9.1,2.8-18.3,5.5-27.4,8.3
			c-0.8,0.2-1.3,0.1-1.8-0.6c-5.8-7.8-19.1-7.4-24.1,3c-1.3,2.7-1.8,5.6-1.9,8.6c-0.1,3.3,0.1,6.6,1.3,9.7c2.2,5.5,6.1,9,12.2,9.6
			c5,0.5,9.1-1.2,12.3-5c0.9-1.1,0.9-1.1,2.3-0.7c9,2.7,18.1,5.5,27.1,8.2C439.4,118.8,439.8,118.8,440.2,119.3z"/>
	</g>
	<g>
		<path class="st0" d="M484.8,318.3c-1.4-0.6-3-0.5-4.5-0.9c-2.3-0.5-4.6-1.1-6.8-1.9c-0.6-0.2-0.9-0.5-0.9-1.2c0-8.3,0-16.5,0-24.8
			c0,0,0-0.1,0.1-0.2c0.6-0.1,1.1,0.2,1.6,0.4c3.2,1.1,6.5,2,9.9,2.1c1.3,0,2.6,0,4-0.3c2.9-0.7,5-2.4,6.3-5.1
			c0.8-1.7,1.1-3.5,1.4-5.3c0.1-0.6-0.2-1.2-0.4-1.7c-7.4-20.3-14.7-40.6-22.1-60.9c-2.5-7-5.1-14-7.6-20.9
			c-0.2-0.5-0.4-0.9-0.4-1.5c0.3-0.2,0.7-0.1,1.1-0.1c9.6,0,19.2,0,28.8,0c1.3,0,1.3,0,1.7,1.3c5,18.3,10,36.5,15,54.8
			c0.2,0.7,0.4,1.3,0.7,2.3c0.6-1.6,0.8-2.9,1.1-4.2c3.9-17.5,7.8-35.1,11.7-52.6c0-0.2,0.1-0.4,0.1-0.6c0-0.8,0.5-1,1.3-1
			c3.2,0,6.3,0,9.5,0c5.9,0,11.8,0,17.7,0c0,0.3,0,0.6,0,0.9c-0.5,0.7-0.5,1.6-0.7,2.4c-1.8,6-3.7,12-5.5,18.1
			c-7.4,24.4-14.7,48.9-22.2,73.3c-4.6,14.8-14.7,23.9-29.9,27c-1.2,0.3-2.5,0.3-3.8,0.7C489.5,318.3,487.1,318.3,484.8,318.3z"/>
		<path class="st0" d="M91.5,205.7c3.2,0,6.4,0,9.6,0c1,0,1.1,0,1.1-1.1c0-2.9,0-5.8,0-8.7c0.1-5.9,1.1-11.6,3.5-16.9
			c4.2-9.1,11.1-14.9,21-16.9c3.9-0.8,7.8-0.7,11.8-0.3c5.8,0.6,11.3,2,16.8,4c0.2,0.1,0.5,0.2,0.7,0.2c0.7,0.1,0.8,0.6,0.6,1.2
			c0,0.1-0.1,0.3-0.1,0.4c-1.5,6.8-3,13.6-4.6,20.5c-0.1,0.2-0.1,0.5-0.1,0.7c-0.1,0.5-0.4,0.6-0.9,0.4c-1.8-0.6-3.7-1.1-5.6-1.5
			c-1.9-0.4-3.9-0.6-5.9-0.5c-3.9,0.2-6.2,2.4-6.6,6.3c-0.1,1.3-0.1,2.7-0.1,4c0,2.2,0,4.4,0,6.6c0,1.7-0.1,1.5,1.5,1.5
			c5.1,0,10.1,0,15.2,0c0.3,0,0.7,0,1,0c0.5,0,0.7,0.2,0.7,0.7c0,0.3,0,0.6,0,0.9c0,6.6,0,13.2,0,19.8c0,0.2,0,0.4,0,0.6
			c0,1,0,1-1.1,1c-0.3,0-0.6,0-0.9,0c-4.9,0-9.8,0-14.8,0c-1.7,0-1.7-0.2-1.7,1.6c0,16,0,32,0,48c0,2.4,0.3,2.1-2.1,2.1
			c-8.8,0-17.6,0-26.4,0c-0.3,0-0.7,0-1,0c-0.8,0.1-1-0.3-1-1.1c0-0.4,0-0.8,0-1.2c0-15.9,0-31.8,0-47.7c0-2.1,0.2-1.8-1.8-1.8
			c-3,0-5.9,0-8.9,0C91.5,221.1,91.5,213.4,91.5,205.7z"/>
		<path class="st0" d="M336.6,267.8c-0.4,0.1-0.5,0.4-0.6,0.6c-4.1,6.8-10.2,10.8-17.8,12.6c-16.7,4.1-36.7-2.5-45.3-23.3
			c-2.3-5.7-3.5-11.6-3.7-17.7c-0.2-8,0.9-15.8,4.2-23.2c3.6-8.3,9.1-15,17.4-19c9.8-4.7,19.8-4.9,29.7-0.2
			c4.3,2.1,7.7,5.2,10.3,9.3c0.2,0.2,0.3,0.5,0.5,0.7c0,0,0.1,0,0.2,0.1c0.3-0.5,0.2-1.1,0.2-1.7c0-13.6,0-27.2,0-40.8
			c0-2.2,0-2.2,2.3-2.2c8.8,0,17.5,0,26.3,0c0.3,0,0.7,0,1,0c0.8-0.1,1,0.3,1,1c0,0.4,0,0.8,0,1.2c0,26.9,0,53.8,0,80.7
			c0,1.4,0,2.7,0.2,4.1c0.4,2.5,1.8,4,4.2,4.5c1.3,0.3,1.3,0.3,1.3,1.6c0,7.6,0,15.3,0,22.9c0,1.4,0,1.4-1.4,1.7
			c-3.2,0.7-6.5,1.1-9.8,1.3c-3.4,0.2-6.8-0.1-10.1-1.1c-5.3-1.6-8.5-5.1-9.6-10.5C337.1,269.6,337,268.7,336.6,267.8z M332,240.2
			c0-2.2,0-4.4,0-6.6c0-0.5,0-1-0.2-1.4c-1.9-4.5-4.9-8.1-9.2-10.4c-3.1-1.7-6.3-2-9.7-1.2c-3.5,0.8-6.1,2.8-8.1,5.7
			c-3.9,5.6-4.9,11.7-3.2,18.3c3.1,12.4,17.4,14.7,25,9c1.9-1.4,3.5-3.1,4.9-4.9c0.4-0.6,0.6-1.2,0.6-1.9
			C332,244.5,332,242.4,332,240.2z"/>
		<path class="st0" d="M434.4,267.7c-0.6,0.3-0.8,0.8-1.2,1.2c-5.2,6.1-11.5,10.5-19.4,12.3c-10.2,2.4-19.8,0.9-28.1-5.7
			c-7.4-5.9-10.5-13.8-9.6-23.3c0.8-8.1,4.9-14.3,11.4-19c4.7-3.5,10.1-5.4,15.9-6.4c6.4-1.1,12.8-1.1,19.2,0.2
			c2.3,0.4,4.5,1.2,6.5,2.1c0.5-0.3,0.4-0.7,0.4-1c0-1.7,0-3.3-0.4-5c-0.8-3.5-2.9-5.9-6.3-7c-3.5-1.2-7-1.3-10.7-1.1
			c-6.8,0.4-12.8,2.8-18.6,6.1c-1.6,0.9-3.2,1.9-4.8,2.9c-0.4-0.3-0.5-0.7-0.7-1.1c-2.6-5.5-5.1-11-7.7-16.5c-0.6-1.4-0.8-1.2,0.6-2
			c8.2-5,17-8.1,26.5-9.3c8.2-1,16.4-1,24.5,0.6c3.7,0.7,7.2,1.9,10.6,3.5c9.1,4.5,14.5,11.8,16.5,21.7c0.6,3.1,0.9,6.1,0.9,9.2
			c0,5.5,0,11,0,16.5c0,1.1,0.1,2.3,0.2,3.4c0.4,2.5,1.8,4,4.2,4.5c1.3,0.3,1.3,0.3,1.3,1.6c0,7.6,0,15.3,0,22.9
			c0,1.8-0.2,1.5-1.5,1.8c-5,1-10.1,1.7-15.3,1.1c-1.7-0.2-3.3-0.5-4.9-1c-5-1.7-7.9-5.3-9.2-10.3
			C434.9,269.7,434.8,268.7,434.4,267.7z M429.6,248.6C429.6,248.6,429.6,248.6,429.6,248.6c0-1,0-2,0-3c0-0.6-0.2-0.9-0.8-1.1
			c-1.1-0.3-2.2-0.7-3.3-0.9c-3.8-0.9-7.5-1.5-11.4-0.7c-2.8,0.5-5.3,1.8-7.3,3.9c-2.8,3-3.2,9,1.8,11.9c0.8,0.4,1.6,0.8,2.4,1
			c2.6,0.7,5.3,0.6,7.9,0c3.1-0.8,6.1-1.9,8.4-4.3c1.5-1.5,2.3-3.1,2.2-5.3C429.6,249.7,429.6,249.1,429.6,248.6z"/>
		<path class="st0" d="M189.1,211.5c0.4-0.6,0.7-1.1,0.9-1.5c2.5-4.2,5.6-7.9,9.7-10.8c5.3-3.8,11.1-5.3,17.6-4.7c1,0.1,1,0.1,1,1.2
			c0,4,0,8.1,0,12.1c0,4.4,0,8.8,0,13.1c0,1.1,0,1.1-1.1,1.1c-5.2,0.1-10.3,0.7-15.3,2.1c-3.5,1-6.7,2.5-9.3,5.1
			c-0.7,0.7-1.1,1.5-1.1,2.6c0,15.7,0,31.3,0,47c0,2,0.2,1.8-1.7,1.8c-9.1,0-18.1,0-27.2,0c-1.8,0-1.6,0.1-1.6-1.7
			c0-27.1,0-54.2,0-81.2c0-1.8-0.1-1.6,1.7-1.6c8.2,0,16.3,0,24.5,0c1.9,0,1.8-0.2,1.8,1.7c0,4,0,8.1,0,12.1
			C188.9,210.3,188.8,210.8,189.1,211.5z"/>
		<path class="st0" d="M227.8,238.1c0-13.4,0-26.9,0-40.3c0-2-0.2-1.8,1.8-1.8c9,0,17.9,0,26.9,0c0.2,0,0.5,0,0.7,0
			c1.1,0,1.1,0,1.1,1.2c0,0.2,0,0.5,0,0.7c0,26.9,0,53.9,0,80.8c0,2,0.3,1.9-1.9,1.9c-8.9,0-17.8,0-26.7,0c-0.4,0-0.8,0-1.2,0
			c-0.6,0-0.8-0.3-0.8-0.8c0-0.4,0-0.8,0-1.2C227.8,265.1,227.8,251.6,227.8,238.1z"/>
	</g>
	<path class="st0" d="M243.1,188.9c-4.5,0-9,0-13.4,0c-0.3,0-0.6,0-0.9,0c-0.7,0.1-1.1-0.2-1-0.9c0-0.2,0-0.4,0-0.6
		c0-7.6,0-15.1,0-22.7c0-0.2,0-0.5,0-0.7c0-0.6,0.2-0.8,0.8-0.8c0.3,0,0.6,0,0.9,0c9.1,0,18.2,0,27.3,0c1.8,0,1.6-0.1,1.6,1.6
		c0,7.5,0,15.1,0,22.6c0,0.3,0,0.6,0,0.9c0,0.5-0.2,0.7-0.7,0.7c-0.3,0-0.7,0-1,0C252.1,188.9,247.6,188.9,243.1,188.9z"/>
</g>
</svg>
