<svg width="109px" height="36px" viewBox="0 0 109 36" version="1.1" xmlns="http://www.w3.org/2000/svg" xmlns:xlink="http://www.w3.org/1999/xlink"><title></title><desc>Created with Sketch.</desc><g id="logos/trustpilot__bhYOgQ7B" stroke="none" stroke-width="1" fill="none" fill-rule="evenodd"><g id="trustpilot-vector-logo__bhYOgQ7B" transform="translate(0.000000, 2.000000)" fill-rule="nonzero"><path d="M28.4759992,9.48599975 L39.401999,9.48599975 L39.401999,11.5199997 L35.0999991,11.5199997 L35.0999991,22.9859997 L32.7419991,22.9859997 L32.7419991,11.5199997 L28.4579992,11.5199997 L28.4759992,9.48599975 L28.4759992,9.48599975 Z M38.933999,13.2119997 L40.9499989,13.2119997 L40.9499989,15.1019996 L40.9859989,15.1019996 C41.0579989,14.8319996 41.1839989,14.5799996 41.3639989,14.3279996 C41.5439989,14.0759996 41.7599989,13.8419996 42.0299989,13.6439996 C42.2819989,13.4279996 42.5699989,13.2659996 42.8939989,13.1399997 C43.1999989,13.0139997 43.5239988,12.9419997 43.8479988,12.9419997 C44.0999988,12.9419997 44.2799988,12.9599997 44.3699988,12.9599997 C44.4599988,12.9779997 44.5679988,12.9959997 44.6579988,12.9959997 L44.6579988,15.0659996 C44.5139988,15.0299996 44.3519988,15.0119996 44.1899988,14.9939996 C44.0279988,14.9759996 43.8839988,14.9579996 43.7219988,14.9579996 C43.3619989,14.9579996 43.0199989,15.0299996 42.6959989,15.1739996 C42.3719989,15.3179996 42.1019989,15.5339996 41.8499989,15.8039996 C41.6159989,16.0919996 41.4179989,16.4339996 41.2739989,16.8479996 C41.1299989,17.2619995 41.0579989,17.7479995 41.0579989,18.2879995 L41.0579989,22.9319994 L38.897999,22.9319994 L38.933999,13.2119997 L38.933999,13.2119997 Z M54.5579986,22.9859994 L52.4339986,22.9859994 L52.4339986,21.6179994 L52.3979986,21.6179994 C52.1279986,22.1219994 51.7319986,22.4999994 51.2099986,22.8059994 C50.6879987,23.1119994 50.1479987,23.2559994 49.6079987,23.2559994 C48.3299987,23.2559994 47.3939987,22.9499994 46.8179988,22.3019994 C46.2419988,21.6719994 45.9539988,20.6999995 45.9539988,19.4219995 L45.9539988,13.2119997 L48.1139987,13.2119997 L48.1139987,19.2059995 C48.1139987,20.0699995 48.2759987,20.6819995 48.6179987,21.0239994 C48.9419987,21.3839994 49.4099987,21.5639994 50.0039987,21.5639994 C50.4539988,21.5639994 50.8319987,21.4919994 51.1379986,21.3479994 C51.4439986,21.2039994 51.6959986,21.0239994 51.8759986,20.7899994 C52.0739986,20.5559995 52.1999986,20.2679995 52.2899986,19.9439995 C52.3799986,19.6199995 52.4159986,19.2599995 52.4159986,18.8819995 L52.4159986,13.2119997 L54.5759986,13.2119997 L54.5759986,22.9859994 L54.5579986,22.9859994 Z M58.2299985,19.8539995 C58.3019985,20.4839995 58.5359984,20.9159994 58.9499984,21.1859994 C59.3639984,21.4379994 59.8679984,21.5639994 60.4439984,21.5639994 C60.6419984,21.5639994 60.8759984,21.5459994 61.1279984,21.5099994 C61.3799984,21.4739994 61.6319984,21.4199994 61.8479984,21.3299994 C62.0819984,21.2399994 62.2619984,21.1139994 62.4059983,20.9339994 C62.5499983,20.7539995 62.6219983,20.5379995 62.6039983,20.2679995 C62.5859983,19.9979995 62.4959983,19.7639995 62.2979983,19.5839995 C62.0999984,19.4039995 61.8659984,19.2779995 61.5779984,19.1519995 C61.2899984,19.0439995 60.9479984,18.9539995 60.5699984,18.8819995 C60.1919984,18.8099995 59.8139984,18.7199995 59.4179984,18.6299995 C59.0219984,18.5399995 58.6259984,18.4319995 58.2479985,18.3059995 C57.8699985,18.1799995 57.5459985,18.0179995 57.2399985,17.7839995 C56.9519985,17.5679995 56.6999985,17.2979995 56.5379985,16.9559996 C56.3579985,16.6139996 56.2679985,16.2179996 56.2679985,15.7139996 C56.2679985,15.1739996 56.3939985,14.7419996 56.6639985,14.3819996 C56.9159985,14.0219996 57.2579985,13.7339996 57.6539985,13.5179996 C58.0499985,13.3019996 58.4999985,13.1399997 58.9859984,13.0499997 C59.4719984,12.9599997 59.9399984,12.9239997 60.3719984,12.9239997 C60.8759984,12.9239997 61.3619984,12.9779997 61.8119984,13.0859997 C62.2619984,13.1939997 62.6939983,13.3559996 63.0539983,13.6079996 C63.4319983,13.8419996 63.7379983,14.1659996 63.9719983,14.5439996 C64.2239983,14.9219996 64.3679983,15.3899996 64.4399983,15.9299996 L62.1899984,15.9299996 C62.0819984,15.4079996 61.8479984,15.0659996 61.4879984,14.8859996 C61.1099984,14.7059996 60.6959984,14.6159996 60.2099984,14.6159996 C60.0659984,14.6159996 59.8679984,14.6339996 59.6699984,14.6519996 C59.4539984,14.6879996 59.2739984,14.7239996 59.0759984,14.7959996 C58.8959984,14.8679996 58.7339984,14.9759996 58.6079984,15.1019996 C58.4819985,15.2279996 58.4099985,15.4079996 58.4099985,15.6239996 C58.4099985,15.8939996 58.4999985,16.0919996 58.6799984,16.2539996 C58.8599984,16.4159996 59.0939984,16.5419996 59.3999984,16.6679996 C59.6879984,16.7759996 60.0299984,16.8659996 60.4079984,16.9379996 C60.7859984,17.0099995 61.1819984,17.0999995 61.5779984,17.1899995 C61.9739984,17.2799995 62.3519983,17.3879995 62.7299983,17.5139995 C63.1079983,17.6399995 63.4499983,17.8019995 63.7379983,18.0359995 C64.0259983,18.2519995 64.2779983,18.5219995 64.4579983,18.8459995 C64.6379983,19.1699995 64.7279983,19.5839995 64.7279983,20.0519995 C64.7279983,20.6279995 64.6019983,21.1139994 64.3319983,21.5279994 C64.0619983,21.9239997 63.7199983,22.2659994 63.3059983,22.5179994 C62.8919983,22.7699994 62.4059983,22.9499994 61.9019984,23.0759994 C61.3799984,23.1839994 60.8759984,23.2559994 60.3719984,23.2559994 C59.7599984,23.2559994 59.1839984,23.1839994 58.6619984,23.0399994 C58.1399985,22.8959994 57.6719985,22.6799994 57.2939985,22.4099994 C56.9159985,22.1219994 56.6099985,21.7799994 56.3939985,21.3479994 C56.1779985,20.9339994 56.0519985,20.4299995 56.0339985,19.8359995 L58.2119985,19.8359995 L58.2119985,19.8539995 L58.2299985,19.8539995 Z M65.3399983,13.2119997 L66.9779982,13.2119997 L66.9779982,10.2599997 L69.1379982,10.2599997 L69.1379982,13.1939997 L71.0819981,13.1939997 L71.0819981,14.7959996 L69.1379982,14.7959996 L69.1379982,20.0159995 C69.1379982,20.2499995 69.1559982,20.4299995 69.1739982,20.6099995 C69.1919982,20.7719994 69.2459982,20.9159994 69.2999982,21.0239994 C69.3719982,21.1319994 69.4799982,21.2219994 69.6059982,21.2759994 C69.7499982,21.3299994 69.9299981,21.3659994 70.1819981,21.3659994 C70.3259981,21.3659994 70.4879981,21.3659994 70.6319981,21.3479994 C70.7759981,21.3299994 70.9379981,21.3119994 71.0819981,21.2759994 L71.0819981,22.9499994 C70.8479981,22.9859994 70.6139981,23.0039994 70.3799981,23.0219994 C70.1459981,23.0579994 69.9299981,23.0579994 69.6779982,23.0579994 C69.1019982,23.0579994 68.6519982,23.0039994 68.3099982,22.8959994 C67.9679982,22.7879994 67.6979982,22.6259994 67.4999982,22.4279994 C67.3019982,22.2119994 67.1759982,21.9599994 67.1039982,21.6539994 C67.0319982,21.3479994 66.9959982,20.9699994 66.9779982,20.5739995 L66.9779982,14.8139996 L65.3399983,14.8139996 L65.3399983,13.1759997 L65.3399983,13.1759997 L65.3399983,13.2119997 Z M72.5939981,13.2119997 L74.627998,13.2119997 L74.627998,14.5439996 L74.663998,14.5439996 C74.969998,13.9679996 75.383998,13.5719996 75.923998,13.3199996 C76.463998,13.0679997 77.039998,12.9419997 77.6879979,12.9419997 C78.4619979,12.9419997 79.1279979,13.0679997 79.7039979,13.3559996 C80.2799979,13.6259996 80.7479979,13.9859996 81.1259979,14.4719996 C81.5039978,14.9399996 81.7919978,15.4979996 81.9719978,16.1279996 C82.1519978,16.7579996 82.2599978,17.4419997 82.2599978,18.1439995 C82.2599978,18.8099995 82.1699978,19.4399995 82.0079978,20.0519995 C81.8279978,20.6639995 81.5759978,21.2219994 81.2339978,21.6899994 C80.8919979,22.1579994 80.4599979,22.5359994 79.9199979,22.8239994 C79.3799979,23.1119994 78.7679979,23.2559994 78.0479979,23.2559994 C77.7419979,23.2559994 77.4179979,23.2199994 77.111998,23.1659994 C76.805998,23.1119994 76.499998,23.0219994 76.211998,22.8959994 C75.923998,22.7699994 75.653998,22.6079994 75.419998,22.4099994 C75.167998,22.2119994 74.969998,21.9779994 74.807998,21.7259994 L74.771998,21.7259994 L74.771998,26.6039993 L72.6119981,26.6039993 L72.6119981,13.2119997 L72.5939981,13.2119997 Z M80.1359979,18.1079995 C80.1359979,17.6759995 80.0819979,17.2439995 79.9559979,16.8299996 C79.8479979,16.4159996 79.6679979,16.0559996 79.4339979,15.7319996 C79.1999979,15.4079996 78.9119979,15.1559996 78.5879979,14.9579996 C78.2459979,14.7599996 77.8499979,14.6699996 77.4179979,14.6699996 C76.517998,14.6699996 75.833998,14.9759996 75.365998,15.6059996 C74.915998,16.2359996 74.681998,17.0819995 74.681998,18.1259995 C74.681998,18.6299995 74.735998,19.0799995 74.861998,19.4939995 C74.987998,19.9079995 75.149998,20.2679995 75.401998,20.5739995 C75.635998,20.8799994 75.923998,21.1139994 76.265998,21.2939994 C76.607998,21.4739994 76.985998,21.5639994 77.4359979,21.5639994 C77.9399979,21.5639994 78.3359979,21.4559994 78.6779979,21.2579994 C79.0199979,21.0599994 79.2899979,20.7899994 79.5239979,20.4839995 C79.7399979,20.1599995 79.9019979,19.7999995 79.9919979,19.3859995 C80.0819979,18.9539995 80.1359979,18.5399995 80.1359979,18.1079995 L80.1359979,18.1079995 Z M83.9339978,9.48599975 L86.0939977,9.48599975 L86.0939977,11.5199997 L83.9339978,11.5199997 C83.9339978,11.5199997 83.9339978,9.48599975 83.9339978,9.48599975 Z M83.9339978,13.2119997 L86.0939977,13.2119997 L86.0939977,22.9859994 L83.9339978,22.9859994 L83.9339978,13.2119997 L83.9339978,13.2119997 Z M88.0199977,9.48599975 L90.1799976,9.48599975 L90.1799976,22.9859997 L88.0199977,22.9859997 L88.0199977,9.48599975 L88.0199977,9.48599975 Z M96.7679974,23.2559994 C95.9939975,23.2559994 95.2919975,23.1299994 94.6799975,22.8599994 C94.0679975,22.5899994 93.5639975,22.2479994 93.1319975,21.7979994 C92.7179975,21.3479994 92.3939976,20.7899994 92.1779976,20.1599995 C91.9619976,19.5299995 91.8359976,18.8279995 91.8359976,18.0899995 C91.8359976,17.3519995 91.9439976,16.6679996 92.1779976,16.0379996 C92.3939976,15.4079996 92.7179975,14.8679996 93.1319975,14.3999996 C93.5459975,13.9499996 94.0679975,13.5899996 94.6799975,13.3379996 C95.2919975,13.0859997 95.9939975,12.9419997 96.7679974,12.9419997 C97.5419974,12.9419997 98.2439974,13.0679997 98.8559974,13.3379996 C99.4679974,13.5899996 99.9719974,13.9499996 100.403997,14.3999996 C100.817997,14.8499996 101.141997,15.4079996 101.357997,16.0379996 C101.573997,16.6679996 101.699997,17.3519995 101.699997,18.0899995 C101.699997,18.8459995 101.591997,19.5299995 101.357997,20.1599995 C101.123997,20.7899994 100.817997,21.3299994 100.403997,21.7979994 C99.9899974,22.2479994 99.4679974,22.6079994 98.8559974,22.8599994 C98.2439974,23.1119994 97.5599974,23.2559994 96.7679974,23.2559994 L96.7679974,23.2559994 Z M96.7679974,21.5459994 C97.2359974,21.5459994 97.6679974,21.4379994 98.0099974,21.2399994 C98.3699974,21.0419994 98.6399974,20.7719994 98.8739974,20.4479995 C99.1079974,20.1239995 99.2699974,19.7459995 99.3779974,19.3499995 C99.4859974,18.9359995 99.5399974,18.5219995 99.5399974,18.0899995 C99.5399974,17.6759995 99.4859974,17.2619995 99.3779974,16.8479996 C99.2699974,16.4339996 99.1079974,16.0739996 98.8739974,15.7499996 C98.6399974,15.4259996 98.3519974,15.1739996 98.0099974,14.9759996 C97.6499974,14.7779996 97.2359974,14.6699996 96.7679974,14.6699996 C96.2999974,14.6699996 95.8679975,14.7779996 95.5259975,14.9759996 C95.1659975,15.1739996 94.8959975,15.4439996 94.6619975,15.7499996 C94.4279975,16.0739996 94.2659975,16.4339996 94.1579975,16.8479996 C94.0499975,17.2619995 93.9959975,17.6759995 93.9959975,18.0899995 C93.9959975,18.5219995 94.0499975,18.9359995 94.1579975,19.3499995 C94.2659975,19.7639995 94.4279975,20.1239995 94.6619975,20.4479995 C94.8959975,20.7719994 95.1839975,21.0419994 95.5259975,21.2399994 C95.8859975,21.4559994 96.2999974,21.5459994 96.7679974,21.5459994 L96.7679974,21.5459994 Z M102.347997,13.2119997 L103.985997,13.2119997 L103.985997,10.2599997 L106.145997,10.2599997 L106.145997,13.1939997 L108.089997,13.1939997 L108.089997,14.7959996 L106.145997,14.7959996 L106.145997,20.0159995 C106.145997,20.2499995 106.163997,20.4299995 106.181997,20.6099995 C106.199997,20.7719994 106.253997,20.9159994 106.307997,21.0239994 C106.379997,21.1319994 106.487997,21.2219994 106.613997,21.2759994 C106.757997,21.3299994 106.937997,21.3659994 107.189997,21.3659994 C107.333997,21.3659994 107.495997,21.3659994 107.639997,21.3479994 C107.783997,21.3299994 107.945997,21.3119994 108.089997,21.2759994 L108.089997,22.9499994 C107.855997,22.9859994 107.621997,23.0039994 107.387997,23.0219994 C107.153997,23.0579994 106.937997,23.0579994 106.685997,23.0579994 C106.109997,23.0579994 105.659997,23.0039994 105.317997,22.8959994 C104.975997,22.7879994 104.705997,22.6259994 104.507997,22.4279994 C104.309997,22.2119994 104.183997,21.9599994 104.111997,21.6539994 C104.039997,21.3479994 104.003997,20.9699994 103.985997,20.5739995 L103.985997,14.8139996 L102.347997,14.8139996 L102.347997,13.1759997 L102.347997,13.1759997 L102.347997,13.2119997 Z" id="Shape__bhYOgQ7B" fill="#000000"></path><path d="M13.0319997,0.0899999976 L16.0739996,9.48599975 L25.9559993,9.48599975 L17.9639995,15.2819996 L21.0059994,24.6779993 L13.0139997,18.8639995 L5.02199987,24.6779993 L8.08199979,15.2819996 L0.0899999976,9.46799975 L9.97199974,9.48599975 L13.0319997,0.0899999976 Z M17.9639995,15.2819996 L13.0319997,18.8639995 L18.6479995,17.4059995 L17.9639995,15.2819996 Z" id="Combined-Shape__bhYOgQ7B" fill="#00B67A"></path></g><rect id="Rectangle__bhYOgQ7B" x="0" y="0" width="109" height="36"></rect></g></svg>