<?xml version="1.0" encoding="utf-8"?>
<!-- Generator: Adobe Illustrator 26.0.1, SVG Export Plug-In . SVG Version: 6.00 Build 0)  -->
<svg version="1.1" id="Layer_1" xmlns="http://www.w3.org/2000/svg" xmlns:xlink="http://www.w3.org/1999/xlink" x="0px" y="0px"
	 viewBox="0 0 103.4 33.3" style="enable-background:new 0 0 103.4 33.3;" xml:space="preserve">
<style type="text/css">
	.st0{fill:#3D3D3D;}
</style>
<g>
	<path class="st0" d="M0,10.8c0-3.2,0-6.5,0-9.7C0,0.3,0.2,0,1.1,0c2.2,0.1,4.5,0.1,6.7,0c1.1,0,1.5,0.2,1.5,1.4
		c-0.1,5.6,0,11.3,0,16.9c0,0.9,0,1.8,0.2,2.7c0.6,2.8,2.3,4.2,5,4.2c2.7,0,4.5-1.4,5-4.2c0.2-1,0.2-2,0.2-3c0-5.5,0-11.1,0-16.6
		c0-1.2,0.3-1.5,1.5-1.5c1.9,0.1,3.8,0.1,5.8,0c1.2-0.1,1.5,0.5,1.5,1.5c0,1.7,0.1,3.3,0,5c0,0.9,0.3,1.2,1.2,1.1
		c4-0.2,7.9,0.2,11.8,1.4c1.1,0.3,1.5,0.7,1,1.9c-0.5,1.2-0.8,2.5-1.1,3.8c-0.2,0.9-0.5,1.2-1.5,0.8c-2.3-1-4.6-1.7-7.1-1.6
		c-0.7,0-1.5-0.1-1.7,0.9c-0.2,1,0.6,1.4,1.3,1.6c2,0.7,4.1,1.1,6.1,2c3.9,1.6,5.8,4.2,4.3,9.6c-0.9,3.4-3.8,4.6-7,5.1
		c-4.1,0.6-8-0.1-11.9-1.4c-0.8-0.3-1.4-0.2-2.1,0.1c-4.6,2-9.4,2.1-14,0.3c-5.1-1.9-7.2-6.1-7.6-11.2C-0.1,17.5,0.1,14.2,0,10.8
		C0.1,10.8,0,10.8,0,10.8z M32.6,27.1c0.5,0,0.7,0,0.9,0c0.8-0.1,1.7,0,1.9-1c0.2-1.1-0.7-1.4-1.5-1.6c-1-0.3-2.1-0.6-3.1-0.9
		c-2.2-0.7-2.2-0.7-3,1.5c-0.3,0.7-0.2,1.1,0.6,1.3C29.9,26.7,31.4,27.1,32.6,27.1z"/>
	<path class="st0" d="M73.7,25.4c-9.3,0-18.6,0-27.9,0c-1.1,0-1.5-0.2-1.5-1.4c0.1-4.8,0.1-9.7,0-14.5c0-0.8,0.2-1.1,1.1-1.1
		c19,0,37.9,0,56.9,0c0.9,0,1.1,0.3,1.1,1.1c0,4.9,0,9.9,0,14.8c0,1-0.4,1.1-1.2,1.1C92.7,25.4,83.2,25.4,73.7,25.4z M52,15.6
		c-0.1,0-0.1,0-0.2,0c-0.1-0.9-0.3-1.7-0.3-2.6c-0.1-1-0.5-1.4-1.5-1.3c-0.4,0-0.8,0-1.2,0c-0.8-0.1-1,0.4-0.8,1
		c0.6,2.6,1.3,5.2,1.9,7.9c0.2,0.7,0.5,0.9,1.2,0.9c3.1-0.1,2.4,0.4,3-2.5c0.1-0.5,0.2-1,0.3-1.4c0.2,1,0.4,2.1,0.6,3.1
		c0.1,0.6,0.4,0.8,1,0.8c0.5,0,1-0.1,1.4,0c1,0.2,1.4-0.4,1.6-1.3c0.5-2.2,1.1-4.5,1.7-6.7c0.5-1.8,0.4-1.8-1.5-1.8
		c-1.1-0.1-1.5,0.3-1.6,1.4c-0.1,0.9,0,1.8-0.5,2.7c-0.2-1.1-0.4-2.1-0.6-3.1c-0.1-0.7-0.4-1-1.1-1c-0.5,0-1.1,0-1.6,0
		c-0.7-0.1-1,0.3-1.1,0.9C52.5,13.7,52.2,14.7,52,15.6z M81.2,14.8c-0.1,0-0.2,0-0.2,0c0-0.7,0-1.4,0-2.2c0-0.6-0.2-0.9-0.9-0.8
		c-0.4,0-0.9,0-1.3,0c-0.8-0.1-1.2,0.2-1.1,1.1c0,2.2,0,4.4,0,6.5c0,2.4-0.5,2.1,2.3,2.2c0.8,0,1.1-0.4,1-1.1c0-0.7,0-1.4,0-2.1
		c0.5,0.3,0.8,0.7,0.9,1.1c0.5,1.7,1.5,2.3,3.3,2.1c1.4-0.2,1.5-0.2,0.9-1.4c-0.5-1-1-2-1.5-2.9c-0.3-0.6-0.3-1,0-1.5
		c0.6-1,1.1-2,1.6-3c0.3-0.6,0.2-0.9-0.6-1c-2.4-0.2-2.4-0.2-3.6,2C81.6,14.1,81.4,14.5,81.2,14.8z M64.9,14.9
		c0.9-0.4,1.9-0.3,2.8-0.3c1.2,0,0.9-0.9,1-1.5c0-0.7,0.1-1.4-1-1.4c-1.7,0.1-3.5,0-5.2,0c-0.8,0-1.1,0.3-1.1,1.1c0,2.6,0,5.2,0,7.7
		c0,0.7,0.2,1,1,1c1.8,0,3.7,0,5.5,0c0.3,0,0.7,0.1,0.9-0.3c0.6-1.3-0.1-2.5-1.5-2.5c-0.8,0-1.6,0.2-2.5-0.3c0.8-0.4,1.4-0.3,2-0.2
		c1.2,0.1,1.3-0.6,1.3-1.5c0-0.9-0.1-1.5-1.2-1.4C66.2,15.2,65.5,15.3,64.9,14.9z M73,15c0-0.1,0-0.3,0-0.4c0.9,0,1.9,0,2.8,0
		c1.2,0,1.1-0.8,1.1-1.5c0-0.7,0.1-1.4-1-1.4c-1.7,0.1-3.5,0.1-5.2,0c-0.9,0-1.1,0.4-1.1,1.2c0,2.5,0,5,0,7.5c0,0.8,0.2,1.2,1.1,1.2
		c1.7-0.1,3.5-0.1,5.2,0c1.1,0,1.1-0.5,1.1-1.3c-0.1-0.7,0.3-1.7-1.1-1.6c-0.9,0-1.9,0.1-3.2-0.2c0.9-0.5,1.5-0.4,2-0.3
		c1.1,0.1,1.4-0.4,1.4-1.5c0-1.1-0.3-1.6-1.5-1.5C74.1,15.2,73.6,15.3,73,15z M96.8,14.6c-0.6-2.4-1.9-3.2-4-2.9
		c-0.8,0.1-0.9,0.4-0.6,1c0.6,1,1.1,2.1,1.8,3.1c0.9,1.3,1.4,2.7,1.2,4.3c-0.1,1.1,0.2,1.6,1.4,1.5c1.9-0.1,2,0,1.9-1.9
		c-0.1-1.3,0.3-2.5,1-3.6c0.7-1.1,1.3-2.3,2-3.4c0.2-0.4,0.4-0.8-0.3-1c-1.8-0.4-2.8,0-3.7,1.6C97.3,13.7,97.1,13.9,96.8,14.6z
		 M86.7,16.6c0,1.3,0,2.6,0,3.9c0,0.8,0.2,1.1,1,1.1c1.5-0.1,3-0.1,4.4,0c1.1,0.1,1.5-0.3,1.5-1.4c0-1.1-0.3-1.6-1.5-1.5
		c-0.4,0.1-0.8,0-1.2,0c-0.8,0.1-1.1-0.2-1-1c0.1-1.5-0.1-3,0-4.4c0.1-1.2-0.3-1.6-1.5-1.4c-0.3,0-0.5,0-0.8,0
		c-0.8-0.1-1.1,0.2-1.1,1C86.8,14.1,86.7,15.3,86.7,16.6z"/>
</g>
</svg>
