<?xml version="1.0" encoding="utf-8"?>
<!-- Generator: Adobe Illustrator 25.3.1, SVG Export Plug-In . SVG Version: 6.00 Build 0)  -->
<svg version="1.1" id="Layer_1" xmlns="http://www.w3.org/2000/svg" xmlns:xlink="http://www.w3.org/1999/xlink" x="0px" y="0px"
	 viewBox="0 0 107.3 38.6" style="enable-background:new 0 0 107.3 38.6;" xml:space="preserve">
<style type="text/css">
	.st0{fill:#009BFF;}
	.st1{fill:#404040;}
	.st2{fill:#282B6A;}
	.st3{fill:#FFFFFF;}
	.st4{fill:#5F53AE;}
	.st5{fill:#C81A46;}
	.st6{fill:#0E88D3;}
	.st7{fill:#F25C19;}
	.st8{fill:#33B540;}
	.st9{fill:#FAB20B;}
	.st10{fill:#231F20;}
</style>
<g>
	<circle class="st0" cx="19.3" cy="19.3" r="19.3"/>
	<path class="st1" d="M49.6,14.8c0.6,0,1.2-0.2,1.6-0.6c0.4-0.5,0.6-1.1,0.5-1.8V4.7h3.5v7.7c0.1,1.5-0.5,2.9-1.5,3.9
		c-1.2,1-2.6,1.5-4.1,1.4c-1.5,0.1-3-0.4-4.1-1.4c-1.1-1-1.7-2.4-1.6-3.9V4.7h3.5v7.7c0,0.6,0.2,1.3,0.6,1.8
		C48.3,14.6,48.9,14.8,49.6,14.8z M62.2,17.7c-1,0-2-0.2-2.9-0.5c-0.9-0.3-1.8-0.9-2.5-1.5l1.7-2.1c0.5,0.4,1.1,0.8,1.7,1.1
		c0.7,0.3,1.4,0.4,2.1,0.4c0.4,0,0.8-0.1,1.2-0.3c0.3-0.2,0.4-0.5,0.4-0.8c0-0.3-0.2-0.7-0.5-0.8c-0.6-0.3-1.2-0.6-1.8-0.7l-0.8-0.2
		c-1-0.2-1.9-0.7-2.6-1.4c-0.6-0.6-0.9-1.5-0.9-2.4c0-0.7,0.2-1.5,0.7-2.1c0.4-0.6,1.1-1.1,1.8-1.4c0.8-0.3,1.7-0.5,2.6-0.5
		c0.9,0,1.9,0.2,2.8,0.5c0.9,0.3,1.7,0.8,2.4,1.4l-1.7,2.2c-0.5-0.4-1-0.7-1.6-1c-0.6-0.3-1.2-0.4-1.8-0.4c-0.4,0-0.8,0.1-1.2,0.2
		c-0.3,0.2-0.5,0.5-0.4,0.8c0,0.3,0.2,0.6,0.4,0.8c0.5,0.3,1,0.5,1.5,0.6l1,0.3c1.1,0.2,2.1,0.8,2.9,1.5c0.6,0.6,0.9,1.4,0.9,2.3
		c0,0.8-0.2,1.5-0.6,2.1c-0.5,0.6-1.1,1.1-1.8,1.4C64,17.6,63.1,17.7,62.2,17.7z M77.7,17.5l-0.8-2.3h-4.8l-0.8,2.4h-3.4l4.7-12.7h4
		l4.6,12.7H77.7z M73,12.5h3L74.6,8L73,12.5z M47.6,33.8v-9.9h-3.8v-2.8h11v2.8h-3.7v9.9L47.6,33.8z M62.2,34
		c-1.2,0-2.4-0.3-3.4-0.8c-1-0.6-1.8-1.4-2.3-2.3c-0.6-1-0.9-2.2-0.9-3.4c0-0.9,0.1-1.8,0.5-2.6c0.3-0.8,0.8-1.5,1.4-2.1
		c0.6-0.6,1.3-1.1,2.1-1.4c1.7-0.6,3.6-0.6,5.3,0c0.8,0.3,1.5,0.8,2.1,1.4c0.6,0.6,1.1,1.3,1.4,2.1c0.4,0.8,0.6,1.7,0.6,2.6
		c0,1.2-0.3,2.4-0.9,3.4c-0.6,1-1.4,1.8-2.4,2.3C64.6,33.8,63.4,34.1,62.2,34z M62.2,31.1c0.6,0,1.1-0.2,1.6-0.5
		c0.5-0.3,0.8-0.8,1.1-1.3c0.3-0.6,0.4-1.3,0.4-1.9c0-0.7-0.1-1.3-0.4-1.9c-0.2-0.5-0.6-1-1.1-1.4c-1-0.6-2.2-0.6-3.2,0
		c-0.5,0.4-0.8,0.8-1.1,1.4c-0.3,0.6-0.4,1.3-0.4,1.9c0,0.7,0.1,1.3,0.4,1.9c0.2,0.5,0.6,1,1.1,1.3C61,31,61.6,31.2,62.2,31.1
		L62.2,31.1z M70.8,33.8V21h5c1.2,0,2.3,0.3,3.3,0.8c0.9,0.5,1.7,1.3,2.3,2.2c1.1,2.1,1.1,4.5,0,6.6c-0.5,0.9-1.3,1.7-2.3,2.2
		c-1,0.6-2.2,0.8-3.3,0.8L70.8,33.8z M74.2,31h1.6c0.8,0,1.6-0.3,2.2-1c0.6-0.8,0.8-1.7,0.8-2.6c0-0.9-0.2-1.9-0.8-2.6
		c-0.5-0.7-1.3-1-2.2-1h-1.6V31z M92.5,33.8l-0.8-2.4H87l-0.8,2.4h-3.4L87.4,21h4l4.7,12.7H92.5z M87.8,28.8h3l-1.5-4.5L87.8,28.8z
		 M102.8,29.2v4.6h-3.5v-4.6L94.8,21h3.9l2.4,5.1l2.3-5.1h3.9L102.8,29.2z"/>
</g>
</svg>
