<?xml version="1.0" encoding="utf-8"?>
<!-- Generator: Adobe Illustrator 26.0.2, SVG Export Plug-In . SVG Version: 6.00 Build 0)  -->
<svg version="1.1" id="Layer_1" xmlns="http://www.w3.org/2000/svg" xmlns:xlink="http://www.w3.org/1999/xlink" x="0px" y="0px"
	 viewBox="0 0 920.6 108.9" style="enable-background:new 0 0 920.6 108.9;" xml:space="preserve">
<style type="text/css">
	.st0{fill:#FFFFFF;}
</style>
<g>
	<g>
		<path class="st0" d="M915.1,39.7c-6.5-4-13.6-7.1-21.2-9c-6-1.5-12.3-2.3-18.8-2.3c-0.3,0-0.5,0-0.8,0
			c-14.4,0.1-27.8,4.3-39.1,11.4c-2.5,1.5-4.8,3.2-7.1,5v-1.2c-1.8-1.3-3.6-2.6-5.5-3.8c-6.5-4-13.6-7.1-21.2-9
			c-6-1.5-12.3-2.3-18.8-2.3c-0.3,0-0.5,0-0.8,0c-14.4,0.1-27.8,4.3-39.1,11.4c-12.6,7.8-22.7,19.2-28.9,32.8
			c-7.2-2.9-15-4.5-23.3-4.5c-11.4,0-22.1,3.1-31.4,8.4c-3.9-7.9-9.1-15.1-15.3-21.1c-1.9-1.9-4-3.7-6.1-5.4v0
			c-10.6-8.3-23.4-13.8-37.4-15.5c-3-0.4-6.2-0.6-9.3-0.6c-0.8,0-1.6,0-2.4,0c-4.2,0.1-8.4,0.6-12.4,1.4
			c-14.3,2.8-27.1,9.7-37.3,19.3c-3.1,2.9-5.9,6-8.4,9.4c0,0,0,0,0,0c0,0,0,0,0,0c-8.1-4.9-17.3-8-27.2-8.8c-0.1,0-0.1,0-0.2,0
			c-1-0.1-2-0.1-3-0.2c-0.6,0-1.2,0-1.8,0c-14,0-27,4.6-37.4,12.5c-0.1,0.1-0.3,0.2-0.4,0.3c-0.1-0.1-0.3-0.2-0.4-0.3
			c-10.4-7.8-23.4-12.5-37.4-12.5c-0.6,0-1.2,0-1.8,0c-1,0-2,0.1-3,0.2c-0.1,0-0.1,0-0.2,0c-9.9,0.8-19.2,3.9-27.2,8.8c0,0,0,0,0,0
			c0,0,0,0,0,0c-2.6-3.4-5.4-6.5-8.4-9.4c-10.2-9.6-23-16.4-37.3-19.3c-4-0.8-8.2-1.3-12.4-1.4c-0.8,0-1.6,0-2.4,0
			c-3.2,0-6.3,0.2-9.3,0.6c-14,1.7-26.8,7.2-37.4,15.5v0c-2.1,1.7-4.2,3.5-6.1,5.4c-6.3,6.1-11.5,13.2-15.3,21.1
			c-9.2-5.4-19.9-8.4-31.4-8.4c-8.2,0-16.1,1.6-23.3,4.5c-6.2-13.5-16.3-24.9-28.9-32.8c-11.4-7.1-24.8-11.2-39.1-11.4
			c-0.3,0-0.5,0-0.8,0c-6.5,0-12.8,0.8-18.8,2.3c-7.6,1.9-14.7,5-21.2,9c-1.9,1.2-3.7,2.4-5.5,3.8v1.2c-2.3-1.8-4.6-3.5-7.1-5
			C74,32.6,60.6,28.5,46.2,28.3c-0.3,0-0.5,0-0.8,0c-6.5,0-12.8,0.8-18.8,2.3c-0.7-1.8-1.5-3.6-2.3-5.4c-2.1-4.2-4.6-8-7.6-11.6
			C12.1,8.2,6.4,3.5,0,0v43.5v59.1v6.4h92.4H121h50.4h42h40.2h34.9h72h44.8h53h3.9h53H560h72h34.9h40.2h42h50.4h28.5h92.4V43.5
			C918.8,42.1,916.9,40.9,915.1,39.7z"/>
	</g>
</g>
</svg>
