<?xml version="1.0" encoding="utf-8"?>
<!-- Generator: Adobe Illustrator 26.0.0, SVG Export Plug-In . SVG Version: 6.00 Build 0)  -->
<svg version="1.1" id="Слой_1" xmlns="http://www.w3.org/2000/svg" xmlns:xlink="http://www.w3.org/1999/xlink" x="0px" y="0px"
	 viewBox="0 0 1919.8 214.9" style="enable-background:new 0 0 1919.8 214.9;" xml:space="preserve">
<style type="text/css">
	.st0{fill:#FFFFFF;}
</style>
<path class="st0" d="M1916.9,185.3c-26.2-2.5-52.4-4.5-78.6-7.4c-27.6-3.1-55.3-6-82.7-10.6c-47.4-8-94.6-17.9-142.7-20.8
	c-5.7-0.3-12.5,0.8-16.9-1.8c-4.5-2.7-6.8-9.2-10-14.1c-3-4.6-6-9.2-9.4-14.3c6.3,0.8,11.6,1.4,18.1,2.2
	c-8.4-14-16.1-26.9-24.2-40.6c4.4,0.5,8,0.9,12.5,1.4c-8.6-15.3-16.7-29.9-25.3-45.2c-8.2,15.7-15.9,30.5-23.8,45.5
	c4,0.7,7.3,1.2,11.1,1.8c-8.6,13.9-17,27.5-26,42.1c6.4-1,11.4-1.8,17.5-2.8c-7.6,11.7-14.6,22.7-22,34c4.9,0.3,9,0.6,13,0.8
	c-1,1.3-2,1.7-3.1,2c-24.9,5.9-49.9,11.7-74.8,17.5c-30.4,7.1-60.8,10.5-92.1,5.9c-33.7-5-67.5-9.4-101.3-13.9c0,0,0,0,0,0
	c0,0-0.1,0-0.1,0c-1.9-0.3-3.9-0.5-5.8-0.8c-19.8-2.6-37.8-4.5-54.3-6c-1.8-0.1-3.9-0.3-6.5-0.6c-6.2-0.5-12.2-1-17.9-1.4
	c-64.7-3.1-155.7,9.2-155.8,9.2c-22.3,3.7-44.7,7.3-67,10.9c-7.4,1.2-14.7,2.5-22.1,3.6c-0.1,0-0.2,0-0.2,0c-4.5,0.7-9,1.3-13.5,1.8
	c-0.2,0-0.4,0-0.6,0.1c-0.8,0.1-1.5,0.1-2.3,0.2c-0.7,0.1-1.4,0.1-2,0.2c-27,2.1-52.4-0.8-69.4-5.9c-17.3-5.2-60.9-12.9-75.2-15.4
	c-12.8-2.2-25.6-4.4-38.3-6.5c-34.3-5.8-68.9-7.5-103.6-5.2c-41.8,2.8-82.9,10.4-124.2,17c-24.3,3.9-48.8,6.4-73.3,9.4
	c-1.7,0.2-3.5-0.3-5.2-0.4c0-0.5,0-0.9,0.1-1.4c6.3-0.4,12.7-0.8,19.7-1.3c-10.7-16.6-20.9-32.5-31.8-49.4c9,1.6,16.7,2.9,25.4,4.4
	c-12.8-20.9-25.1-40.8-37.6-61.1c5.7-1,10.6-1.8,16.1-2.7C398.9,43.7,387.8,22.3,376.2,0c-12.3,22.2-24.1,43.5-36.4,65.6
	c6.3-0.8,11.7-1.5,18.2-2.4c-11.8,19.9-23.2,39-35.1,59.1c9.3-1.3,17.4-2.4,25.6-3.5c-0.2,0.8-0.3,1.4-0.5,1.8
	c-10.8,16.4-21.5,32.9-32.5,49.2c-0.9,1.3-3.7,2.1-5.4,1.8c-10.8-1.9-21.6-4.1-32.4-6.2c-35.6-7-71-14.9-107.3-17.8
	c-36.4-2.9-70.9,1.6-103,20.8c-9.2,5.5-20.1,9-30.6,11.6c-12,3-24.6,4-36.9,5.9c0,9.7,0,19.3,0,29c639.9,0,1279.8,0,1919.8,0
	c0-9.7,0-19.3,0-29C1918.8,185.7,1917.8,185.4,1916.9,185.3z"/>
</svg>
